<svg width="64" height="65" viewBox="0 0 64 65" fill="none" xmlns="http://www.w3.org/2000/svg">
<g id="form-validation-check-double--Streamline-Freehand" clip-path="url(#clip0_2421_16583)">
<g id="Group">
<path id="Vector" fillRule="evenodd" clipRule="evenodd" d="M63.7599 6.99711C63.6161 6.56578 63.346 6.18766 62.9846 5.91184C62.6232 5.63602 62.1872 5.47526 61.7332 5.45044C60.8226 5.51547 59.968 5.91429 59.3332 6.57044C56.0606 9.88308 53.0557 13.4498 50.3465 17.2371C43.6799 26.0904 35.6265 37.8771 32.0265 43.3171L30.7199 45.3171C27.0841 43.9973 23.3079 43.1025 19.4665 42.6504C17.6943 42.3526 15.8802 42.4161 14.1332 42.8371C13.8985 42.931 13.6852 43.0716 13.5064 43.2504C13.3277 43.4291 13.1871 43.6424 13.0932 43.8771C13.0057 44.4029 13.0369 44.9416 13.1845 45.4538C13.3322 45.966 13.5925 46.4386 13.9465 46.8371C15.7731 49.0758 17.8588 51.0898 20.1599 52.8371C25.2265 56.9171 31.6265 60.8371 33.9199 61.1304C34.0391 61.1453 34.16 61.1363 34.2757 61.104C34.3914 61.0718 34.4996 61.0168 34.5938 60.9424C34.6881 60.8679 34.7667 60.7755 34.8249 60.6705C34.8832 60.5654 34.92 60.4498 34.9332 60.3304C34.9556 60.0869 34.8816 59.8443 34.727 59.6548C34.5724 59.4653 34.3496 59.344 34.1065 59.3171C30.1909 57.8027 26.5783 55.599 23.4399 52.8104C20.6999 50.7749 18.2034 48.4306 15.9999 45.8238C15.7947 45.5519 15.6077 45.2668 15.4399 44.9704C15.6464 44.8979 15.8616 44.8531 16.0799 44.8371C18.7846 44.9389 21.4688 45.3505 24.0799 46.0638C26.297 46.5689 28.4587 47.2924 30.5332 48.2238C30.759 48.3589 31.0209 48.4212 31.2834 48.4021C31.5458 48.383 31.796 48.2835 31.9999 48.1171C32.229 47.983 32.4072 47.7767 32.5065 47.5304V47.3971C32.7999 46.9438 33.3865 46.0371 34.2665 44.7304C37.9199 39.3971 46.0532 27.7704 52.7199 18.9971C55.7065 15.0504 58.3732 11.6638 60.2399 9.71711C60.4805 9.4654 60.7489 9.24176 61.0399 9.05044C60.9065 9.79711 60.5865 10.7838 60.3465 11.7171C58.0706 18.8868 55.1984 25.8534 51.7599 32.5438C47.7105 41.0909 43.0495 49.3345 37.8132 57.2104C37.7502 57.2945 37.7043 57.3901 37.6782 57.4919C37.6522 57.5937 37.6464 57.6996 37.6612 57.8036C37.6761 57.9076 37.7113 58.0076 37.7648 58.098C37.8183 58.1884 37.8891 58.2674 37.9732 58.3304C38.1472 58.4592 38.3648 58.5146 38.5792 58.4847C38.7936 58.4548 38.9877 58.3419 39.1199 58.1704C47.8548 45.5735 55.2969 32.1277 61.3332 18.0371C62.4941 15.4689 63.3877 12.7882 63.9999 10.0371C64.1867 9.0202 64.104 7.9721 63.7599 6.99711Z" fill="black"/>
<path id="Vector_2" fillRule="evenodd" clipRule="evenodd" d="M24.2931 37.6372C27.6531 33.0239 32.2931 26.9706 36.6398 21.3706L41.9731 14.4372C44.6398 11.1572 46.6665 8.38389 48.1598 6.78389C48.4265 6.51723 48.6665 6.19723 48.8798 5.95723C48.905 6.08937 48.905 6.22509 48.8798 6.35723C48.8129 7.51341 48.6161 8.65839 48.2931 9.77056C47.9998 11.4239 47.3331 13.4506 46.5331 15.5839C46.4683 15.6849 46.4269 15.7992 46.4122 15.9183C46.3975 16.0375 46.4098 16.1584 46.4482 16.2721C46.4866 16.3859 46.5501 16.4895 46.634 16.5754C46.7179 16.6612 46.82 16.7271 46.9328 16.7682C47.0456 16.8092 47.1662 16.8243 47.2857 16.8124C47.4051 16.8004 47.5204 16.7618 47.6228 16.6993C47.7253 16.6368 47.8124 16.552 47.8777 16.4512C47.9429 16.3505 47.9847 16.2363 47.9998 16.1172C49.4983 13.0703 50.6006 9.84408 51.2798 6.51723C51.4931 4.33056 50.5598 3.29056 49.3331 3.15723C48.5784 3.17159 47.856 3.46626 47.3065 3.98389C44.4461 6.57487 41.8388 9.4322 39.5198 12.5172C37.8398 14.6506 36.0265 17.0772 34.1865 19.5839C29.9998 25.3972 25.8398 31.7972 22.7198 36.5972C22.6263 36.7977 22.607 37.0248 22.6654 37.2381C22.7238 37.4515 22.8561 37.6371 23.0386 37.762C23.2212 37.8869 23.4421 37.943 23.6621 37.9201C23.8821 37.8972 24.0869 37.797 24.2398 37.6372H24.2931Z" fill="black"/>
<path id="Vector_3" fillRule="evenodd" clipRule="evenodd" d="M17.7599 58.7838C16.2666 58.4905 13.4932 55.3172 10.6666 51.6905C9.51991 50.2505 8.39991 48.6772 7.33325 47.2105C6.26658 45.7438 5.09325 43.9838 4.26658 42.5972C3.69789 41.7546 3.20698 40.862 2.79991 39.9305C2.79991 39.9305 2.79991 39.9305 2.79991 39.7972C5.21689 39.7554 7.6263 40.0791 9.94658 40.7572C10.0464 40.7939 10.1525 40.8107 10.2587 40.8065C10.365 40.8022 10.4694 40.7771 10.566 40.7326C10.6626 40.688 10.7494 40.6248 10.8216 40.5467C10.8937 40.4686 10.9498 40.377 10.9866 40.2772C11.0233 40.1774 11.0401 40.0713 11.0359 39.965C11.0317 39.8587 11.0065 39.7543 10.962 39.6578C10.9174 39.5612 10.8542 39.4743 10.7761 39.4022C10.698 39.33 10.6064 39.2739 10.5066 39.2372C8.14353 38.2881 5.65548 37.6863 3.11991 37.4505C2.34306 37.3339 1.54909 37.4355 0.826579 37.7438C0.542699 37.8981 0.317718 38.1419 0.186579 38.4372C0.0136889 39.1588 -0.0140497 39.9076 0.104975 40.6401C0.224001 41.3726 0.487416 42.0741 0.879913 42.7038C2.0258 45.0533 3.4109 47.2784 5.01325 49.3438C9.22658 54.9172 15.0932 60.4105 17.4399 60.7572C17.5573 60.7804 17.678 60.7801 17.7953 60.7565C17.9126 60.7328 18.024 60.6862 18.1231 60.6192C18.2223 60.5523 18.3072 60.4664 18.373 60.3665C18.4388 60.2666 18.4842 60.1547 18.5066 60.0372C18.5615 59.9063 18.585 59.7644 18.5751 59.6228C18.5652 59.4812 18.5222 59.344 18.4496 59.2221C18.3769 59.1001 18.2767 58.997 18.1569 58.9209C18.0371 58.8447 17.9011 58.7978 17.7599 58.7838Z" fill="black"/>
</g>
</g>
<defs>
<clipPath id="clip0_2421_16583">
<rect width="64" height="64" fill="white" transform="translate(0 0.117188)"/>
</clipPath>
</defs>
</svg>
