<svg width="69" height="69" viewBox="0 0 38 55" fill="none" xmlns="http://www.w3.org/2000/svg">
<g id="Logo Figma">
<path fillRule="evenodd" clipRule="evenodd" d="M38 10.2892C38 15.9717 33.4131 20.5784 27.7548 20.5784H17.3233V0H27.7548C33.4131 0 38 4.60663 38 10.2892ZM27.7548 17.211C31.5613 17.211 34.647 14.112 34.647 10.2892C34.647 6.46637 31.5613 3.36737 27.7548 3.36737H20.6763V17.211H27.7548Z" fill="#211814"/>
<path fillRule="evenodd" clipRule="evenodd" d="M0 10.2892C0 15.9717 4.58693 20.5784 10.2452 20.5784H20.6767V0H10.2452C4.58693 0 0 4.60663 0 10.2892ZM10.2452 17.211C6.43873 17.211 3.35297 14.112 3.35297 10.2892C3.35297 6.46637 6.43873 3.36737 10.2452 3.36737H17.3237V17.211H10.2452Z" fill="#211814"/>
<path fillRule="evenodd" clipRule="evenodd" d="M0 27.4999C0 33.1825 4.58693 37.7891 10.2452 37.7891H20.6767V17.2107L10.2452 17.211C4.58693 17.211 0 21.8174 0 27.4999ZM10.2452 34.4217C6.43873 34.4217 3.35297 31.3227 3.35297 27.4999C3.35297 23.6771 6.43873 20.5784 10.2452 20.5784L17.3237 20.5781V34.4217H10.2452Z" fill="#211814"/>
<path fillRule="evenodd" clipRule="evenodd" d="M0 44.7108C0 50.4052 4.64503 55 10.2915 55C15.9894 55 20.6767 50.3633 20.6767 44.6173V34.4216L10.2452 34.4217C4.58693 34.4217 0 39.0282 0 44.7108ZM10.2915 51.6326C6.47327 51.6326 3.35297 48.5218 3.35297 44.7108C3.35297 40.888 6.43873 37.7891 10.2452 37.7891L17.3237 37.789V44.6173C17.3237 48.48 14.1612 51.6326 10.2915 51.6326Z" fill="#211814"/>
<path fillRule="evenodd" clipRule="evenodd" d="M17.3217 27.4999C17.3217 33.1825 21.9087 37.7891 27.5669 37.7891H27.7532C33.4115 37.7891 37.9984 33.1825 37.9984 27.4999C37.9984 21.8174 33.4115 17.2107 27.7532 17.2107H27.5669C21.9087 17.2107 17.3217 21.8174 17.3217 27.4999ZM27.5669 34.4217C23.7605 34.4217 20.6747 31.3227 20.6747 27.4999C20.6747 23.6771 23.7605 20.5781 27.5669 20.5781H27.7532C31.5597 20.5781 34.6454 23.6771 34.6454 27.4999C34.6454 31.3227 31.5597 34.4217 27.7532 34.4217H27.5669Z" fill="#211814"/>
</g>
</svg>
