<svg width="66" height="67" viewBox="0 0 66 67" fill="none" xmlns="http://www.w3.org/2000/svg">
<g id="business-deal-men-cash-conversation--Streamline-Freehand" clip-path="url(#clip0_2421_16633)">
<g id="Group">
<path id="Vector" fillRule="evenodd" clipRule="evenodd" d="M46.4199 34.6023C49.1699 34.2173 50.7924 33.0898 51.1775 31.6598C51.5789 29.7087 51.8545 27.7338 52.0024 25.7473C52.3049 22.3648 52.4974 18.5698 52.4974 17.0573C52.599 14.4266 52.4424 11.7924 52.0299 9.19227C51.7363 7.22616 50.8542 5.39502 49.5 3.93977C48.8445 3.3912 48.0581 3.02171 47.2174 2.86727C45.71 2.59864 44.1834 2.4515 42.6525 2.42727C35.1213 1.57464 27.5308 1.37222 19.9649 1.82227C15.5099 2.28977 11.9074 3.44477 10.4774 5.45227C10.3444 5.64377 10.2902 5.87914 10.326 6.10955C10.3619 6.33996 10.485 6.54773 10.6699 6.68977C10.7621 6.76288 10.8684 6.81612 10.9821 6.84616C11.0959 6.87619 11.2146 6.88236 11.3308 6.86428C11.4471 6.8462 11.5583 6.80426 11.6575 6.7411C11.7568 6.67793 11.8419 6.59492 11.9074 6.49727C13.1724 4.79227 16.3624 4.10477 20.1574 3.74727C27.5912 3.4671 35.0351 3.83516 42.4049 4.84727C43.3675 4.84727 44.7975 4.84727 46.09 5.17727C46.669 5.2202 47.2231 5.43038 47.6849 5.78227C48.618 6.87598 49.1938 8.22912 49.3349 9.65977C49.6717 12.0918 49.773 14.5507 49.6374 17.0023C49.6374 18.4873 49.3624 22.1448 49.0324 25.4448C48.8982 27.2932 48.6409 29.1306 48.2624 30.9448C48.2624 31.2198 47.7949 31.2473 47.3824 31.3848C46.2888 31.6876 45.1619 31.8538 44.0275 31.8798C39.5175 32.1273 33.5499 31.4948 30.7999 31.6598C29.951 31.6377 29.1189 31.8989 28.4349 32.4023C26.8563 34.4128 25.5009 36.5889 24.3924 38.8923C24.1999 39.1673 23.9524 39.4698 23.7049 39.7723C22.9074 37.7373 21.8074 34.2723 21.2024 32.6498C21.0782 32.3994 20.8859 32.1891 20.6475 32.0432C20.4092 31.8972 20.1344 31.8215 19.8549 31.8248H17.1049C16.1158 31.7506 15.1381 31.5661 14.1899 31.2748C13.3235 31.0304 12.5303 30.5772 11.8799 29.9548C11.4462 29.4278 11.1698 28.7892 11.0824 28.1123C10.9247 26.8811 10.8971 25.6367 10.9999 24.3998C10.9999 21.6498 11.1649 19.0648 11.3849 16.3973C11.6049 13.7298 11.8799 11.1173 12.1824 8.36727C12.2059 8.15978 12.147 7.95139 12.0184 7.78685C11.8899 7.62231 11.7019 7.51475 11.4949 7.48727C11.3937 7.47584 11.2912 7.4846 11.1934 7.51305C11.0956 7.5415 11.0044 7.58908 10.9252 7.65302C10.8459 7.71697 10.78 7.79601 10.7315 7.88557C10.683 7.97513 10.6527 8.07343 10.6424 8.17477C10.2574 10.9248 9.92745 13.5373 9.62495 16.2323C9.32245 18.9273 9.15745 21.7323 9.04745 24.2898C8.89955 25.6792 8.89955 27.0804 9.04745 28.4698C9.18238 29.5422 9.62132 30.5537 10.3124 31.3848C11.0506 32.141 11.9411 32.7315 12.9249 33.1173C14.2272 33.6456 15.5973 33.9881 16.9949 34.1348H19.2499C19.9649 36.3348 21.0649 40.0198 21.6974 41.6423C21.8659 42.0973 22.1177 42.517 22.4399 42.8798C22.6851 43.1119 23.0099 43.2412 23.3474 43.2412C23.685 43.2412 24.0098 43.1119 24.2549 42.8798C25.2273 42.1546 26.0809 41.2825 26.7849 40.2948C27.7785 38.321 28.9376 36.4351 30.2499 34.6573C31.0688 34.5341 31.8975 34.488 32.7249 34.5198C37.2808 34.9049 41.8598 34.9325 46.4199 34.6023Z" fill="black"/>
<path id="Vector_2" fillRule="evenodd" clipRule="evenodd" d="M27.775 43.5672C27.6805 43.6353 27.6005 43.7216 27.5396 43.8209C27.4786 43.9202 27.4381 44.0306 27.4202 44.1457C27.4022 44.2608 27.4074 44.3784 27.4352 44.4915C27.4631 44.6046 27.5132 44.7111 27.5825 44.8047C28.6957 47.0581 28.9404 49.6424 28.27 52.0647C28.0483 53.2619 27.5914 54.4033 26.9259 55.4229C26.2603 56.4424 25.3993 57.32 24.3925 58.0047C22.4858 59.2078 20.3503 60.0025 18.1209 60.3386C15.8915 60.6747 13.6167 60.5448 11.44 59.9572C9.30642 59.4267 7.36298 58.3119 5.82793 56.738C4.29288 55.1641 3.227 53.1934 2.75 51.0472C2.23986 48.251 2.79935 45.3652 4.3175 42.9622C5.64952 40.3806 7.92438 38.4111 10.67 37.4622C10.8723 37.4221 11.0512 37.3051 11.1692 37.1359C11.2871 36.9667 11.3349 36.7584 11.3025 36.5547C11.2928 36.448 11.261 36.3444 11.209 36.2507C11.157 36.157 11.086 36.0752 11.0006 36.0105C10.9152 35.9458 10.8172 35.8996 10.7129 35.8749C10.6086 35.8503 10.5004 35.8476 10.395 35.8672C7.09518 36.7559 4.27895 38.9101 2.5575 41.8622C0.548099 44.6835 -0.307726 48.1659 0.164998 51.5972C0.656148 54.2763 1.90366 56.759 3.76022 58.752C5.61679 60.745 8.00487 62.1651 10.6425 62.8447C13.2145 63.4843 15.8931 63.5699 18.5007 63.0958C21.1082 62.6217 23.5853 61.5987 25.7675 60.0947C26.9948 59.1732 28.0241 58.0142 28.7942 56.6866C29.5643 55.359 30.0594 53.8901 30.25 52.3672C30.8948 49.3947 30.4147 46.2888 28.9025 43.6497C28.7542 43.5057 28.5599 43.4185 28.3537 43.4035C28.1476 43.3884 27.9427 43.4463 27.775 43.5672Z" fill="black"/>
<path id="Vector_3" fillRule="evenodd" clipRule="evenodd" d="M63.4424 42.9072C61.9497 40.7921 59.8815 39.1496 57.4833 38.1747C55.0851 37.1998 52.4575 36.9335 49.9124 37.4072C49.6755 37.4475 49.4643 37.5802 49.3251 37.7761C49.1859 37.972 49.1301 38.2152 49.1699 38.4522C49.1897 38.5687 49.2327 38.68 49.2964 38.7795C49.3601 38.8791 49.4431 38.9648 49.5407 39.0315C49.6382 39.0982 49.7482 39.1446 49.864 39.1679C49.9798 39.1912 50.0992 39.191 50.2149 39.1672C52.3788 38.827 54.5949 39.1122 56.6021 39.9891C58.6094 40.8661 60.3243 42.2983 61.5449 44.1172C62.762 45.8743 63.414 47.9609 63.414 50.0984C63.414 52.2359 62.762 54.3225 61.5449 56.0797C61.1173 56.6897 60.6584 57.2771 60.1699 57.8397C59.7093 58.388 59.1828 58.8776 58.6024 59.2972C57.9055 59.7951 57.1698 60.2365 56.4024 60.6172C55.6242 60.9559 54.8133 61.214 53.9824 61.3872C51.1874 61.8776 48.3092 61.5034 45.7324 60.3146C43.0918 59.2475 40.8978 57.3059 39.5174 54.8147C38.9149 53.3638 38.6302 51.8007 38.6824 50.2306C38.7346 48.6605 39.1224 47.1198 39.8199 45.7122C40.4352 44.231 41.3669 42.9024 42.5498 41.8193C43.7326 40.7362 45.138 39.9249 46.6674 39.4422C46.8703 39.396 47.0471 39.2724 47.1602 39.0977C47.2732 38.9231 47.3135 38.7111 47.2724 38.5072C47.2263 38.3043 47.1027 38.1274 46.928 38.0144C46.7533 37.9014 46.5414 37.8611 46.3374 37.9022C44.5401 38.3857 42.8703 39.2565 41.4451 40.4537C40.02 41.6508 38.8739 43.1452 38.0874 44.8322C37.1719 46.5011 36.629 48.3487 36.496 50.2477C36.3631 52.1467 36.6433 54.0519 37.3174 55.8322C38.8285 58.9929 41.4104 61.5163 44.6049 62.9547C47.756 64.4776 51.3097 64.9591 54.7524 64.3297C55.7831 64.1167 56.788 63.7941 57.7499 63.3672C58.7254 62.9216 59.6478 62.3681 60.4999 61.7172C61.234 61.1571 61.9069 60.521 62.5074 59.8196C63.0758 59.1458 63.5907 58.4286 64.0474 57.6747C65.4646 55.4452 66.1662 52.8357 66.058 50.1961C65.9499 47.5566 65.0372 45.0132 63.4424 42.9072Z" fill="black"/>
<path id="Vector_4" fillRule="evenodd" clipRule="evenodd" d="M14.0525 46.2622C13.8582 45.9093 13.6278 45.5775 13.365 45.2722C12.8887 44.7155 12.2605 44.3097 11.5571 44.1046C10.8538 43.8994 10.1059 43.9038 9.40502 44.1172C8.99971 44.2326 8.618 44.4188 8.27752 44.6672C7.24444 45.5962 6.47587 46.7822 6.05002 48.1047C5.99642 48.1964 5.9617 48.298 5.9479 48.4034C5.93411 48.5088 5.94153 48.6159 5.96971 48.7184C5.99789 48.8208 6.04627 48.9166 6.11201 49.0002C6.17775 49.0837 6.25952 49.1532 6.35252 49.2047C6.44267 49.2523 6.54137 49.2815 6.6429 49.2907C6.74443 49.2998 6.84677 49.2887 6.94398 49.2581C7.0412 49.2274 7.13134 49.1777 7.2092 49.1118C7.28705 49.046 7.35107 48.9654 7.39752 48.8747C7.95216 48.2241 8.62374 47.6831 9.37752 47.2797C9.66102 47.0676 9.99097 46.9262 10.34 46.8672C10.5621 46.8241 10.7911 46.8313 11.01 46.8884C11.2289 46.9455 11.4323 47.0511 11.605 47.1972C11.835 47.3242 12.0399 47.4919 12.21 47.6922C12.5675 48.1597 12.87 48.6822 13.255 49.1222C13.3863 49.3191 13.5904 49.4558 13.8225 49.5022C14.0546 49.5486 14.2956 49.501 14.4925 49.3697C14.6894 49.2384 14.8261 49.0343 14.8726 48.8022C14.919 48.5701 14.8713 48.3291 14.74 48.1322C14.465 47.5272 14.3275 46.8672 14.0525 46.2622Z" fill="black"/>
<path id="Vector_5" fillRule="evenodd" clipRule="evenodd" d="M49.4999 46.2623C49.3154 45.9099 49.0942 45.5781 48.8399 45.2723C48.3683 44.7336 47.754 44.3394 47.0679 44.135C46.3818 43.9306 45.6518 43.9245 44.9624 44.1173C44.5594 44.2387 44.1786 44.4244 43.8349 44.6673C42.8018 45.5963 42.0332 46.7823 41.6074 48.1048C41.5538 48.1966 41.5191 48.2981 41.5053 48.4035C41.4915 48.5089 41.4989 48.616 41.5271 48.7185C41.5553 48.8209 41.6036 48.9168 41.6694 49.0003C41.7351 49.0838 41.8169 49.1533 41.9099 49.2048C42.0973 49.2952 42.312 49.3114 42.5109 49.2502C42.7098 49.189 42.8782 49.0549 42.9824 48.8748C43.5207 48.2185 44.1844 47.6763 44.9349 47.2798C45.2264 47.0637 45.5662 46.9221 45.9249 46.8673C46.1427 46.8265 46.3669 46.8349 46.5811 46.892C46.7952 46.9491 46.9938 47.0534 47.1624 47.1973C47.3923 47.3244 47.5973 47.4921 47.7674 47.6923C48.1005 48.1868 48.4584 48.6641 48.8399 49.1223C48.9011 49.2202 48.9816 49.3047 49.0765 49.3705C49.1714 49.4364 49.2787 49.4823 49.3918 49.5054C49.505 49.5286 49.6217 49.5285 49.7348 49.5052C49.8479 49.4819 49.9551 49.4358 50.0499 49.3698C50.1487 49.3059 50.2337 49.2229 50.2999 49.1256C50.366 49.0283 50.412 48.9187 50.4351 48.8033C50.4582 48.6879 50.4579 48.5691 50.4342 48.4539C50.4106 48.3386 50.364 48.2292 50.2974 48.1323C50.0224 47.5273 49.8849 46.8673 49.4999 46.2623Z" fill="black"/>
<path id="Vector_6" fillRule="evenodd" clipRule="evenodd" d="M17.6275 49.0949C18.1861 48.5274 18.8255 48.0455 19.525 47.6649C19.8766 47.4831 20.245 47.3357 20.625 47.2249C20.9275 47.2249 21.2025 46.9774 21.45 47.2249C21.645 47.3339 21.8139 47.4841 21.945 47.6649C22.2475 48.1874 22.44 48.7649 22.6875 49.2874C22.7218 49.4005 22.7785 49.5056 22.8543 49.5964C22.9301 49.6872 23.0234 49.7617 23.1286 49.8156C23.2338 49.8695 23.3489 49.9017 23.4668 49.9101C23.5847 49.9186 23.7032 49.9032 23.815 49.8649C23.9272 49.8337 24.0317 49.7799 24.1223 49.7068C24.2129 49.6337 24.2875 49.5428 24.3416 49.4398C24.3957 49.3367 24.4282 49.2237 24.4369 49.1076C24.4457 48.9915 24.4306 48.8749 24.3925 48.7649C24.3336 47.9759 24.2048 47.1936 24.0075 46.4274C23.8477 45.9968 23.6151 45.5968 23.32 45.2449C22.8119 44.6975 22.1356 44.3354 21.3984 44.2159C20.6611 44.0963 19.9051 44.2262 19.25 44.5849C18.7946 44.8226 18.3849 45.1391 18.04 45.5199C17.2648 46.3013 16.6649 47.2387 16.28 48.2699C16.1826 48.4561 16.1627 48.6732 16.2245 48.874C16.2863 49.0748 16.4248 49.2431 16.61 49.3424C16.7779 49.4439 16.9792 49.4749 17.1698 49.4285C17.3605 49.3822 17.525 49.2622 17.6275 49.0949Z" fill="black"/>
<path id="Vector_7" fillRule="evenodd" clipRule="evenodd" d="M53.185 49.0947C53.7536 48.5269 54.4022 48.0451 55.11 47.6647C55.4499 47.4783 55.8097 47.3307 56.1825 47.2247C56.485 47.2247 56.76 46.9772 57.0075 47.2247C57.2153 47.3261 57.3948 47.4772 57.53 47.6647C57.8325 48.1872 57.9975 48.7647 58.245 49.2872C58.2793 49.4004 58.336 49.5055 58.4118 49.5963C58.4876 49.687 58.5809 49.7616 58.6861 49.8155C58.7914 49.8694 58.9064 49.9015 59.0243 49.91C59.1423 49.9185 59.2607 49.9031 59.3725 49.8647C59.4847 49.8336 59.5893 49.7798 59.6798 49.7067C59.7704 49.6336 59.845 49.5427 59.8992 49.4396C59.9533 49.3365 59.9857 49.2235 59.9944 49.1074C60.0032 48.9914 59.9881 48.8747 59.95 48.7647C59.8912 47.9757 59.7623 47.1935 59.565 46.4272C59.4161 45.9916 59.1824 45.5897 58.8775 45.2447C58.3687 44.6977 57.6905 44.3378 56.9522 44.2231C56.2139 44.1083 55.4585 44.2454 54.8075 44.6122C54.3393 44.8423 53.9193 45.1596 53.57 45.5472C52.806 46.3375 52.2077 47.2725 51.81 48.2972C51.7127 48.4834 51.6927 48.7005 51.7545 48.9013C51.8163 49.1022 51.9548 49.2705 52.14 49.3697C52.2259 49.4233 52.3218 49.4587 52.4219 49.4738C52.5219 49.489 52.624 49.4835 52.7219 49.4577C52.8198 49.432 52.9113 49.3865 52.991 49.3241C53.0706 49.2617 53.1367 49.1836 53.185 49.0947Z" fill="black"/>
<path id="Vector_8" fillRule="evenodd" clipRule="evenodd" d="M14.3551 55.2547C13.5051 55.1263 12.7012 54.7858 12.0176 54.2647C11.9639 54.1605 11.888 54.0695 11.7951 53.998C11.7023 53.9265 11.5948 53.8764 11.4804 53.8512C11.366 53.826 11.2474 53.8263 11.1331 53.8521C11.0188 53.8779 10.9116 53.9286 10.8191 54.0005C10.7266 54.0724 10.6511 54.1639 10.598 54.2683C10.5448 54.3727 10.5154 54.4876 10.5116 54.6047C10.5079 54.7218 10.53 54.8383 10.5764 54.9459C10.6228 55.0534 10.6924 55.1495 10.7801 55.2272C11.3148 56.4039 12.2236 57.3708 13.3651 57.9772C13.8903 58.2574 14.4749 58.4083 15.0701 58.4172C15.4869 58.4257 15.9029 58.3795 16.3076 58.2797C17.7211 57.8103 18.908 56.8294 19.6351 55.5297C19.7997 55.3603 19.8918 55.1334 19.8918 54.8972C19.8918 54.6609 19.7997 54.434 19.6351 54.2647C19.4704 54.1018 19.248 54.0104 19.0164 54.0104C18.7847 54.0104 18.5624 54.1018 18.3976 54.2647C17.9791 54.6413 17.4865 54.9264 16.9513 55.1016C16.4162 55.2768 15.8504 55.3383 15.2901 55.2822L14.3551 55.2547Z" fill="black"/>
<path id="Vector_9" fillRule="evenodd" clipRule="evenodd" d="M49.9125 55.2547C49.0668 55.1114 48.2663 54.7724 47.575 54.2647C47.5213 54.1605 47.4453 54.0695 47.3525 53.998C47.2596 53.9265 47.1522 53.8764 47.0377 53.8512C46.9233 53.826 46.8048 53.8263 46.6905 53.8521C46.5762 53.8779 46.469 53.9286 46.3765 54.0005C46.284 54.0724 46.2085 54.1639 46.1554 54.2683C46.1022 54.3727 46.0727 54.4876 46.069 54.6047C46.0653 54.7218 46.0874 54.8383 46.1338 54.9459C46.1802 55.0534 46.2498 55.1495 46.3375 55.2272C46.8721 56.4039 47.781 57.3708 48.9225 57.9772C49.4563 58.2607 50.0506 58.4116 50.655 58.4172C51.0627 58.4259 51.4697 58.3796 51.865 58.2797C53.2785 57.8103 54.4653 56.8294 55.1925 55.5297C55.351 55.3571 55.4389 55.1314 55.4389 54.8972C55.4389 54.6629 55.351 54.4372 55.1925 54.2647C55.0231 54.1 54.7962 54.0079 54.56 54.0079C54.3238 54.0079 54.0969 54.1 53.9275 54.2647C53.5131 54.6392 53.0252 54.9231 52.4948 55.0983C51.9645 55.2735 51.4034 55.3361 50.8475 55.2822L49.9125 55.2547Z" fill="black"/>
</g>
</g>
<defs>
<clipPath id="clip0_2421_16633">
<rect width="66" height="66" fill="white" transform="translate(0 0.117188)"/>
</clipPath>
</defs>
</svg>
