<svg width="68" height="69" viewBox="0 0 68 69" fill="none" xmlns="http://www.w3.org/2000/svg">
<g id="face-id-user--Streamline-Freehand" clip-path="url(#clip0_2421_16593)">
<g id="Group">
<path id="Vector" fillRule="evenodd" clipRule="evenodd" d="M33.3482 8.61719C33.3444 8.74606 33.3665 8.87438 33.4132 8.99455C33.4599 9.11471 33.5303 9.22428 33.6201 9.31676C33.7099 9.40924 33.8174 9.48274 33.9362 9.53291C34.0549 9.58309 34.1826 9.60891 34.3115 9.60885C34.5745 9.60885 34.8267 9.50438 35.0127 9.3184C35.1987 9.13243 35.3032 8.88019 35.3032 8.61719C35.5446 7.68403 35.7338 6.73811 35.8698 5.78385C35.8979 5.39714 35.8979 5.0089 35.8698 4.62219C35.9131 4.24565 35.9131 3.86539 35.8698 3.48885C35.6715 2.66719 35.3315 1.87385 35.1048 0.967188C35.0975 0.739185 35.0017 0.522989 34.8378 0.364349C34.6738 0.205708 34.4546 0.117069 34.2265 0.117188C34.0011 0.117188 33.7849 0.206741 33.6254 0.366147C33.466 0.525553 33.3765 0.741754 33.3765 0.967188C33.0887 1.8959 32.8615 2.84234 32.6965 3.80052C32.6676 4.1872 32.6676 4.57551 32.6965 4.96219C32.7175 5.34279 32.7648 5.72147 32.8382 6.09552C32.9232 6.83219 33.1498 7.65385 33.3482 8.61719Z" fill="black"/>
<path id="Vector_2" fillRule="evenodd" clipRule="evenodd" d="M35.1048 59.6171C35.0975 59.3891 35.0017 59.1729 34.8378 59.0143C34.6738 58.8556 34.4546 58.767 34.2265 58.7671C34.1138 58.7632 34.0015 58.7824 33.8966 58.8237C33.7917 58.8651 33.6964 58.9275 33.6166 59.0073C33.5369 59.087 33.4744 59.1823 33.4331 59.2872C33.3918 59.3921 33.3725 59.5044 33.3765 59.6171C33.0887 60.5458 32.8615 61.4923 32.6965 62.4504C32.6676 62.8371 32.6676 63.2254 32.6965 63.6121C32.7175 63.9927 32.7648 64.3714 32.8382 64.7454C32.8382 65.5954 33.2065 66.4171 33.4048 67.3804C33.401 67.5093 33.4231 67.6376 33.4699 67.7578C33.5166 67.878 33.5869 67.9875 33.6768 68.08C33.7666 68.1725 33.8741 68.246 33.9928 68.2962C34.1116 68.3463 34.2392 68.3722 34.3682 68.3721C34.6263 68.3722 34.8744 68.2716 35.0595 68.0917C35.2447 67.9118 35.3524 67.6668 35.3598 67.4088C35.6013 66.4756 35.7905 65.5297 35.9265 64.5754C35.9546 64.1887 35.9546 63.8005 35.9265 63.4138C35.9698 63.0372 35.9698 62.657 35.9265 62.2804C35.6715 61.1754 35.3315 60.3821 35.1048 59.6171Z" fill="black"/>
<path id="Vector_3" fillRule="evenodd" clipRule="evenodd" d="M66.9234 34.4855C66.047 34.1762 65.1468 33.9393 64.2317 33.7772C63.8456 33.7351 63.4561 33.7351 63.07 33.7772C62.6927 33.7507 62.314 33.7507 61.9367 33.7772C61.0867 33.7772 60.2367 34.1455 59.2734 34.3155C59.1459 34.3078 59.0182 34.3262 58.8981 34.3698C58.7781 34.4133 58.6682 34.4809 58.5753 34.5685C58.4824 34.6561 58.4084 34.7618 58.3579 34.8791C58.3074 34.9964 58.2815 35.1228 58.2817 35.2505C58.2739 35.5089 58.3673 35.76 58.5419 35.9506C58.7165 36.1411 58.9587 36.2559 59.2167 36.2705C60.2084 36.4972 61.0584 36.7239 62.05 36.8655C62.4368 36.8934 62.825 36.8934 63.2117 36.8655C63.5882 36.9088 63.9685 36.9088 64.345 36.8655C65.2446 36.6763 66.1336 36.4399 67.0084 36.1572C67.1224 36.161 67.2359 36.1418 67.3424 36.1008C67.4488 36.0598 67.5459 35.9978 67.6278 35.9185C67.7098 35.8392 67.7749 35.7442 67.8194 35.6392C67.8639 35.5341 67.8868 35.4212 67.8867 35.3072C67.8838 35.1878 67.8557 35.0703 67.8044 34.9624C67.753 34.8546 67.6795 34.7587 67.5886 34.6812C67.4977 34.6037 67.3914 34.5462 67.2768 34.5125C67.1622 34.4787 67.0418 34.4696 66.9234 34.4855Z" fill="black"/>
<path id="Vector_4" fillRule="evenodd" clipRule="evenodd" d="M5.04325 35.3071C5.42997 35.3352 5.81821 35.3352 6.20492 35.3071C7.13992 35.1371 7.93325 34.8255 8.83992 34.5988C9.0423 34.562 9.22534 34.4553 9.35714 34.2974C9.48894 34.1395 9.56114 33.9403 9.56114 33.7346C9.56114 33.5289 9.48894 33.3298 9.35714 33.1718C9.22534 33.0139 9.0423 32.9073 8.83992 32.8705C7.95947 32.5747 7.06025 32.338 6.14825 32.1621C5.76219 32.1198 5.37265 32.1198 4.98659 32.1621H3.85325C3.00325 32.3038 2.15325 32.5305 1.21825 32.7005C0.957269 32.7001 0.706059 32.7997 0.516321 32.9789C0.326583 33.1581 0.212751 33.4032 0.198252 33.6638C0.190512 33.7913 0.208966 33.919 0.252477 34.039C0.295987 34.1591 0.363631 34.269 0.451237 34.3619C0.538843 34.4548 0.644555 34.5288 0.761853 34.5793C0.879151 34.6298 1.00555 34.6557 1.13325 34.6555C2.12492 34.9105 2.97492 35.1371 3.96659 35.2788L5.04325 35.3071Z" fill="black"/>
<path id="Vector_5" fillRule="evenodd" clipRule="evenodd" d="M53.8334 17.7689C54.7117 17.2589 55.4767 16.8622 56.2417 16.3522C56.556 16.1319 56.8586 15.8955 57.1484 15.6439C57.4257 15.3814 57.6815 15.0972 57.9134 14.7939C58.5084 14.0289 58.8767 13.2639 59.3867 12.4705C59.5442 12.3069 59.6323 12.0885 59.6323 11.8614C59.6323 11.6342 59.5442 11.4158 59.3867 11.2522C59.3097 11.1671 59.2157 11.0991 59.1107 11.0525C59.0058 11.006 58.8923 10.9819 58.7775 10.9819C58.6627 10.9819 58.5492 11.006 58.4443 11.0525C58.3394 11.0991 58.2454 11.1671 58.1684 11.2522C57.3209 11.6361 56.4977 12.0713 55.7034 12.5555C55.398 12.7856 55.1048 13.0315 54.825 13.2922C54.5553 13.562 54.3 13.8457 54.06 14.1422C53.5217 14.8222 53.0684 15.5589 52.4734 16.3522C52.2934 16.5328 52.1924 16.7773 52.1924 17.0322C52.1924 17.2871 52.2934 17.5316 52.4734 17.7122C52.65 17.8934 52.8893 18.0002 53.1421 18.0107C53.3949 18.0212 53.6422 17.9347 53.8334 17.7689Z" fill="black"/>
<path id="Vector_6" fillRule="evenodd" clipRule="evenodd" d="M14.8182 50.4371C13.9682 50.8905 13.1749 51.2305 12.3532 51.7688C12.0411 51.9903 11.7474 52.2367 11.4749 52.5055C11.1983 52.7686 10.9426 53.0528 10.7099 53.3555C10.1716 54.0355 9.71824 54.7721 9.12324 55.5371C8.94799 55.7258 8.85059 55.9738 8.85059 56.2313C8.85059 56.4888 8.94799 56.7368 9.12324 56.9255C9.30861 57.1072 9.55783 57.2089 9.8174 57.2089C10.077 57.2089 10.3262 57.1072 10.5116 56.9255C11.3285 56.5044 12.1229 56.041 12.8916 55.5371C13.2271 55.3234 13.5403 55.0767 13.8266 54.8005C14.0752 54.5354 14.3026 54.2512 14.5066 53.9505C15.1016 53.1571 15.4699 52.3921 15.9799 51.5988C16.0636 51.5225 16.1315 51.4305 16.1796 51.328C16.2278 51.2255 16.2553 51.1145 16.2606 51.0014C16.2658 50.8882 16.2487 50.7752 16.2103 50.6686C16.1719 50.5621 16.1128 50.4642 16.0366 50.3805C15.9603 50.2968 15.8683 50.2289 15.7658 50.1807C15.6633 50.1326 15.5523 50.1051 15.4391 50.0998C15.326 50.0945 15.2129 50.1116 15.1064 50.1501C14.9999 50.1885 14.902 50.2475 14.8182 50.3238V50.4371Z" fill="black"/>
<path id="Vector_7" fillRule="evenodd" clipRule="evenodd" d="M55.5333 55.8204C55.3121 55.4992 55.0658 55.196 54.7966 54.9138L53.9749 54.1488C53.2949 53.5821 52.5583 53.1288 51.7933 52.5338C51.6155 52.368 51.383 52.2733 51.14 52.2676C50.897 52.2619 50.6604 52.3457 50.4751 52.5031C50.2898 52.6604 50.1687 52.8803 50.1349 53.121C50.1011 53.3617 50.1568 53.6065 50.2916 53.8088C50.7128 54.6348 51.1761 55.4387 51.6799 56.2171C51.8743 56.5583 52.1124 56.8726 52.3883 57.1521C52.6335 57.4446 52.909 57.7106 53.2099 57.9454C53.9749 58.5404 54.7399 58.9088 55.5049 59.4471C55.6435 59.6138 55.8387 59.7233 56.0532 59.7547C56.2676 59.7861 56.4861 59.7371 56.6666 59.6171C56.748 59.5379 56.8127 59.4432 56.8569 59.3386C56.901 59.2339 56.9238 59.1215 56.9238 59.0079C56.9238 58.8944 56.901 58.7819 56.8569 58.6773C56.8127 58.5727 56.748 58.478 56.6666 58.3988C56.3426 57.5167 55.9641 56.6556 55.5333 55.8204Z" fill="black"/>
<path id="Vector_8" fillRule="evenodd" clipRule="evenodd" d="M13.0333 12.3006C13.2536 12.6149 13.4901 12.9175 13.7417 13.2073C13.9867 13.5001 14.2621 13.7661 14.5633 14.0006C15.3437 14.5511 16.1575 15.0526 17 15.5023C17.0792 15.5837 17.1739 15.6484 17.2786 15.6926C17.3832 15.7367 17.4956 15.7595 17.6092 15.7595C17.7228 15.7595 17.8352 15.7367 17.9398 15.6926C18.0444 15.6484 18.1391 15.5837 18.2183 15.5023C18.3759 15.3386 18.4639 15.1203 18.4639 14.8931C18.4639 14.666 18.3759 14.4476 18.2183 14.284C17.8598 13.458 17.453 12.6538 17 11.8756C16.7884 11.5639 16.5515 11.2701 16.2917 10.9973C16.0293 10.72 15.745 10.4642 15.4417 10.2323C14.7617 9.66563 14.025 9.2123 13.26 8.6173C13.1782 8.52056 13.078 8.44089 12.9654 8.38284C12.8528 8.32479 12.7298 8.28949 12.6035 8.27897C12.4772 8.26844 12.3501 8.2829 12.2294 8.3215C12.1087 8.36011 11.9968 8.42211 11.9 8.50397C11.8033 8.58582 11.7236 8.68593 11.6656 8.79858C11.6075 8.91123 11.5722 9.03421 11.5617 9.16049C11.5512 9.28678 11.5656 9.41391 11.6042 9.53461C11.6428 9.65531 11.7048 9.76723 11.7867 9.86397C12.151 10.7014 12.5674 11.5152 13.0333 12.3006Z" fill="black"/>
<path id="Vector_9" fillRule="evenodd" clipRule="evenodd" d="M21.6465 6.40724C21.7437 6.77437 21.8668 7.13416 22.0148 7.4839C22.1848 7.8239 22.3548 8.1639 22.5532 8.5039C22.7515 8.8439 23.5448 9.92057 24.0548 10.7422C24.1499 10.9856 24.3371 11.1816 24.5758 11.2877C24.8146 11.3938 25.0855 11.4014 25.3298 11.3089C25.5665 11.2138 25.7574 11.0312 25.8629 10.7991C25.9684 10.5669 25.9805 10.303 25.8965 10.0622C25.7265 9.07057 25.6415 8.19224 25.4148 7.2289C25.3316 6.85198 25.2179 6.48244 25.0748 6.1239C24.9396 5.76762 24.7687 5.42589 24.5648 5.1039C24.0265 4.28224 23.4315 3.6589 22.8932 2.92224C22.8523 2.8143 22.7905 2.71547 22.7115 2.63141C22.6324 2.54735 22.5375 2.47971 22.4322 2.43234C22.327 2.38498 22.2134 2.35882 22.098 2.35537C21.9827 2.35192 21.8677 2.37125 21.7598 2.41224C21.5516 2.50582 21.3864 2.67449 21.2971 2.88459C21.2078 3.09468 21.201 3.33072 21.2782 3.54557C21.3437 4.50596 21.4667 5.46157 21.6465 6.40724Z" fill="black"/>
<path id="Vector_10" fillRule="evenodd" clipRule="evenodd" d="M46.92 61.7423C46.8368 61.3561 46.7231 60.9771 46.58 60.6089C46.41 60.2689 46.24 59.9006 46.0417 59.5889C45.5317 58.7672 44.9367 58.1722 44.37 57.4072C44.3327 57.3004 44.2737 57.2024 44.1967 57.1195C44.1197 57.0365 44.0264 56.9704 43.9227 56.9251C43.819 56.8799 43.707 56.8566 43.5938 56.8567C43.4806 56.8568 43.3687 56.8802 43.265 56.9256C43.1607 56.9663 43.0653 57.0272 42.9846 57.1048C42.9038 57.1824 42.8392 57.2752 42.7944 57.3779C42.7497 57.4806 42.7257 57.5911 42.7238 57.7032C42.7219 57.8152 42.7421 57.9264 42.7834 58.0306C42.848 58.9817 42.971 59.9279 43.1517 60.8639C43.2491 61.2402 43.3721 61.6094 43.52 61.9689C43.6773 62.311 43.8571 62.6423 44.0584 62.9606C44.5117 63.7256 45.0217 64.4056 45.56 65.1989C45.6047 65.318 45.6723 65.4271 45.7592 65.52C45.846 65.6129 45.9502 65.6878 46.066 65.7404C46.1818 65.7931 46.3068 65.8224 46.4338 65.8267C46.5609 65.831 46.6876 65.8102 46.8067 65.7656C46.9258 65.7209 47.0349 65.6533 47.1278 65.5665C47.2207 65.4796 47.2956 65.3754 47.3482 65.2596C47.4008 65.1438 47.4301 65.0189 47.4345 64.8918C47.4388 64.7647 47.418 64.638 47.3734 64.5189C47.2317 63.4706 47.1184 62.5923 46.92 61.7423Z" fill="black"/>
<path id="Vector_11" fillRule="evenodd" clipRule="evenodd" d="M57.1482 25.4189C57.2379 25.6607 57.4182 25.8581 57.6509 25.9692C57.8837 26.0803 58.1505 26.0963 58.3949 26.0139C59.3866 25.8723 60.2649 25.7873 61.2282 25.5889C61.6027 25.4966 61.9717 25.3831 62.3332 25.2489C62.6984 25.1133 63.0495 24.9425 63.3816 24.7389C64.2032 24.2289 64.8266 23.6339 65.5916 23.0956C65.6985 23.0577 65.7967 22.9988 65.8805 22.9224C65.9643 22.846 66.032 22.7536 66.0795 22.6506C66.127 22.5476 66.1535 22.4362 66.1572 22.3228C66.161 22.2095 66.1421 22.0965 66.1016 21.9906C66.0607 21.8827 65.9989 21.7838 65.9199 21.6998C65.8408 21.6157 65.7459 21.5481 65.6406 21.5007C65.5354 21.4533 65.4218 21.4272 65.3064 21.4237C65.1911 21.4203 65.0761 21.4396 64.9682 21.4806C64.0332 21.4806 63.1549 21.4806 62.1349 21.8206C61.764 21.905 61.4031 22.0285 61.0582 22.1889L60.0099 22.7839C59.2449 23.2089 58.5649 23.7473 57.7432 24.2573C57.5203 24.3461 57.3371 24.5128 57.2277 24.7264C57.1183 24.94 57.0901 25.1861 57.1482 25.4189Z" fill="black"/>
<path id="Vector_12" fillRule="evenodd" clipRule="evenodd" d="M11.3332 42.6173C11.2923 42.5094 11.2305 42.4105 11.1515 42.3265C11.0724 42.2424 10.9775 42.1748 10.8722 42.1274C10.767 42.08 10.6534 42.0539 10.538 42.0504C10.4227 42.047 10.3077 42.0663 10.1998 42.1073C9.25002 42.1545 8.30388 42.2586 7.36651 42.419C6.99938 42.5162 6.63959 42.6393 6.28984 42.7873L5.26984 43.2973C4.50484 43.7506 3.82484 44.2606 3.00318 44.7706C2.76137 44.8603 2.56399 45.0406 2.45291 45.2733C2.34183 45.5061 2.32578 45.7729 2.40818 46.0173C2.44943 46.1393 2.51472 46.2518 2.6002 46.3481C2.68567 46.4445 2.7896 46.5227 2.90582 46.5781C3.02205 46.6336 3.14822 46.6652 3.27687 46.6711C3.40553 46.677 3.53405 46.657 3.65484 46.6123C4.64651 46.4706 5.52484 46.3856 6.48818 46.1873C6.86617 46.1081 7.23606 45.9943 7.59318 45.8473C7.9058 45.7402 8.20905 45.6076 8.49984 45.4506C9.32151 44.969 9.94484 44.374 10.7098 43.8356C10.8413 43.8141 10.9658 43.7621 11.0734 43.6836C11.181 43.6051 11.2686 43.5025 11.3293 43.3839C11.39 43.2654 11.4219 43.1343 11.4226 43.0011C11.4233 42.8679 11.3926 42.7365 11.3332 42.6173Z" fill="black"/>
<path id="Vector_13" fillRule="evenodd" clipRule="evenodd" d="M45.1349 12.1589C45.2482 12.2174 45.372 12.2528 45.4991 12.2631C45.6263 12.2734 45.7541 12.2583 45.8754 12.2187C45.9966 12.1792 46.1088 12.116 46.2054 12.0328C46.302 11.9495 46.3812 11.848 46.4382 11.7339C47.0899 10.9406 47.6566 10.2889 48.1666 9.55226C48.383 9.25244 48.5816 8.94025 48.7616 8.61726C48.9353 8.27503 49.0684 7.91369 49.1582 7.54059C49.4132 6.60559 49.4699 5.75559 49.6682 4.84892C49.7519 4.75033 49.8127 4.63449 49.8464 4.50967C49.8802 4.38485 49.8859 4.25412 49.8633 4.12683C49.8406 3.99953 49.7901 3.87881 49.7154 3.77327C49.6408 3.66774 49.5437 3.57999 49.4312 3.5163C49.3186 3.45261 49.1935 3.41455 49.0645 3.40483C48.9356 3.39511 48.8061 3.41397 48.6853 3.46007C48.5645 3.50618 48.4554 3.57838 48.3657 3.67152C48.2761 3.76467 48.2081 3.87646 48.1666 3.99892C47.5263 4.66798 46.9301 5.3778 46.3816 6.12392C46.1594 6.44434 45.9696 6.78601 45.8149 7.14392C45.8149 7.48392 45.5316 7.85226 45.4182 8.22059C45.1632 9.04226 45.0216 9.89226 44.7666 10.8273C44.6427 11.0535 44.6119 11.3192 44.6807 11.5678C44.7494 11.8164 44.9124 12.0285 45.1349 12.1589Z" fill="black"/>
<path id="Vector_14" fillRule="evenodd" clipRule="evenodd" d="M23.3465 56.0471C23.1436 55.9497 22.9103 55.9367 22.6978 56.0111C22.4854 56.0855 22.3111 56.2411 22.2132 56.4438C21.5635 57.1222 20.9579 57.8415 20.3999 58.5971C20.1824 58.9205 19.9929 59.2617 19.8332 59.6171C19.8332 59.9571 19.5499 60.3255 19.4365 60.6938C19.1815 61.5155 19.0399 62.3655 18.7849 63.3005C18.7124 63.4167 18.6648 63.5467 18.6451 63.6823C18.6254 63.8178 18.634 63.956 18.6703 64.0881C18.7066 64.2201 18.7699 64.3432 18.8562 64.4496C18.9425 64.556 19.0499 64.6434 19.1716 64.7062C19.2933 64.769 19.4268 64.806 19.5635 64.8147C19.7002 64.8234 19.8372 64.8036 19.9659 64.7568C20.0946 64.7099 20.2122 64.6368 20.3113 64.5422C20.4103 64.4476 20.4887 64.3335 20.5415 64.2071C21.1649 63.4421 21.7315 62.7621 22.2415 62.0255C22.4605 61.7077 22.6592 61.3765 22.8365 61.0338C23.0013 60.6877 23.134 60.3273 23.2332 59.9571C23.4623 59.0243 23.6326 58.078 23.7432 57.1238C23.8171 56.9266 23.8178 56.7094 23.745 56.5117C23.6721 56.3141 23.5307 56.1492 23.3465 56.0471Z" fill="black"/>
<path id="Vector_15" fillRule="evenodd" clipRule="evenodd" d="M64.1467 48.2839C63.4769 47.6357 62.7672 47.03 62.0217 46.4705C61.718 46.2382 61.3844 46.0476 61.03 45.9039C60.6931 45.7332 60.3424 45.5911 59.9817 45.4789C59.1317 45.2239 58.2817 45.0539 57.3467 44.7989C57.1213 44.6787 56.8573 44.6529 56.6129 44.7273C56.3685 44.8017 56.1636 44.9701 56.0434 45.1955C55.9218 45.4252 55.8953 45.6934 55.9695 45.9425C56.0437 46.1915 56.2126 46.4015 56.44 46.5272C57.205 47.1505 57.8567 47.7455 58.5934 48.2555C58.9111 48.4745 59.2423 48.6733 59.585 48.8505C59.9334 49.0255 60.2931 49.177 60.6617 49.3039C61.5967 49.5589 62.4467 49.6155 63.3534 49.8422C63.5605 49.9409 63.7979 49.9546 64.015 49.8805C64.2321 49.8064 64.4116 49.6503 64.515 49.4455C64.5687 49.3454 64.6018 49.2356 64.6123 49.1224C64.6228 49.0093 64.6105 48.8952 64.5762 48.7869C64.5419 48.6786 64.4862 48.5783 64.4124 48.4919C64.3386 48.4055 64.2483 48.3348 64.1467 48.2839Z" fill="black"/>
<path id="Vector_16" fillRule="evenodd" clipRule="evenodd" d="M4.36314 19.9505C5.12814 20.5739 5.77981 21.1689 6.51647 21.6789C6.83419 21.8978 7.16541 22.0966 7.50814 22.2739C7.82157 22.4753 8.15366 22.6461 8.49981 22.7839C9.43481 23.0389 10.2848 23.1239 11.3331 23.3222C11.5511 23.3948 11.7889 23.3792 11.9955 23.2785C12.2021 23.1779 12.361 23.0003 12.4381 22.7839C12.4918 22.6837 12.5249 22.5739 12.5354 22.4607C12.5459 22.3476 12.5336 22.2335 12.4993 22.1252C12.465 22.0169 12.4093 21.9166 12.3355 21.8302C12.2617 21.7438 12.1714 21.6731 12.0698 21.6222C11.3959 21.0226 10.6863 20.4643 9.94481 19.9505C9.64106 19.7182 9.30754 19.5276 8.95314 19.3839C8.60855 19.2083 8.24804 19.066 7.87647 18.9589C7.05481 18.7039 6.20481 18.5339 5.26981 18.2789C5.04437 18.1586 4.78041 18.1329 4.53599 18.2073C4.29157 18.2817 4.0867 18.4501 3.96647 18.6755C3.86196 18.8993 3.8447 19.154 3.91806 19.3898C3.99142 19.6256 4.15013 19.8256 4.36314 19.9505Z" fill="black"/>
<g id="Group_2">
<path id="Vector_17" d="M54.6832 28.1955C54.3095 26.7555 53.8069 25.352 53.1816 24.0021C52.5636 22.6173 51.7632 21.3213 50.8016 20.1488C50.7117 20.0554 50.6039 19.9811 50.4846 19.9303C50.3653 19.8796 50.237 19.8534 50.1074 19.8534C49.9778 19.8534 49.8495 19.8796 49.7302 19.9303C49.6109 19.9811 49.5031 20.0554 49.4132 20.1488C49.2399 20.3328 49.1434 20.576 49.1434 20.8288C49.1434 21.0816 49.2399 21.3248 49.4132 21.5088C50.2316 22.5684 50.9079 23.7305 51.4249 24.9655C51.9615 26.2103 52.3881 27.4996 52.6999 28.8188C53.596 32.3754 53.4265 36.117 52.2124 39.578C50.9983 43.039 48.7932 46.0665 45.8716 48.2838C44.7269 49.1603 43.5033 49.9286 42.2165 50.5788C39.1889 52.1372 35.789 52.8271 32.3934 52.5721C28.9978 52.317 25.7391 51.127 22.9782 49.1338C21.488 48.0907 20.2411 46.7375 19.3232 45.1671C16.5406 40.7735 15.528 35.488 16.4899 30.3771C17.0416 27.7969 18.1027 25.3528 19.6109 23.1878C21.1191 21.0228 23.0441 19.1805 25.2732 17.7688C28.5917 15.7673 32.4649 14.8834 36.3232 15.2471C40.241 15.6659 43.9864 17.0802 47.2032 19.3555C47.3938 19.4824 47.6254 19.5324 47.8513 19.4956C48.0773 19.4588 48.281 19.3379 48.4216 19.1571C48.4843 19.0627 48.5276 18.9566 48.5488 18.8452C48.57 18.7338 48.5686 18.6193 48.5449 18.5084C48.5211 18.3975 48.4754 18.2925 48.4104 18.1995C48.3454 18.1066 48.2625 18.0275 48.1665 17.9671C44.7478 15.401 40.7292 13.7526 36.4932 13.1788C32.1621 12.5956 27.7585 13.4305 23.9415 15.5588C21.3201 17.0837 19.0364 19.126 17.2292 21.5614C15.4221 23.9969 14.1295 26.7746 13.4299 29.7255C12.3876 33.6499 12.5234 37.7942 13.8205 41.6419C15.1176 45.4896 17.5185 48.8705 20.7239 51.3629C23.9294 53.8554 27.7976 55.3492 31.8462 55.6582C35.8949 55.9672 39.945 55.0776 43.4916 53.1005C47.9931 50.9341 51.5847 47.2472 53.6324 42.6904C55.6801 38.1336 56.0523 32.9999 54.6832 28.1955Z" fill="black"/>
<path id="Vector_18" d="M23.7149 45.0539C24.0832 44.0905 24.2249 43.8639 24.5932 42.9855C25.1202 41.6756 25.8571 40.4603 26.7748 39.3872C27.6711 38.4191 28.7131 37.597 29.8632 36.9505C32.462 38.0968 35.3824 38.2875 38.1082 37.4889C39.0011 37.2144 39.8503 36.8137 40.6299 36.2989C41.5367 37.1876 42.2588 38.2468 42.7549 39.4155L43.3215 40.7472L44.1715 42.7589C44.6815 43.9489 44.7665 44.4022 45.1632 45.2239C45.2707 45.4758 45.4475 45.692 45.6732 45.8472C46.2682 46.1872 47.2315 46.0455 47.6565 44.8272C47.8176 44.1181 47.7583 43.3767 47.4865 42.7022C47.3421 41.9519 47.114 41.2201 46.8065 40.5205C46.5276 39.7923 46.1664 39.0984 45.7298 38.4522C44.7751 37.0593 43.5029 35.9134 42.0182 35.1089C43.4653 33.5802 44.2583 31.547 44.2282 29.4422C44.3223 27.9335 44.1595 26.4197 43.7465 24.9655C43.3838 23.9761 42.8248 23.0702 42.1032 22.3022C42.0158 22.2096 41.9104 22.1358 41.7935 22.0854C41.6765 22.035 41.5505 22.009 41.4232 22.009C41.2958 22.009 41.1698 22.035 41.0529 22.0854C40.936 22.1358 40.8306 22.2096 40.7432 22.3022C40.6442 22.3819 40.5619 22.4804 40.5012 22.5921C40.4404 22.7037 40.4024 22.8263 40.3892 22.9527C40.3761 23.0791 40.388 23.2069 40.4245 23.3287C40.4609 23.4505 40.5211 23.5638 40.6015 23.6622C41.2364 24.4155 41.6572 25.3256 41.8199 26.2972C41.9619 27.3502 41.9619 28.4175 41.8199 29.4705C41.7569 30.7277 41.2771 31.9281 40.4562 32.8823C39.6354 33.8366 38.5201 34.4904 37.2865 34.7405C36.0259 35.0625 34.7109 35.1102 33.4303 34.8804C32.1497 34.6507 30.9333 34.1489 29.8632 33.4089C29.1988 32.9025 28.7126 32.198 28.4749 31.3972C28.1494 30.4905 28.0426 29.5197 28.1632 28.5639C28.2856 27.1723 28.7424 25.8309 29.4949 24.6539C30.2782 23.5247 31.4143 22.6876 32.7249 22.2739C33.7819 21.945 34.8771 21.7545 35.9832 21.7072C37.0742 21.6542 38.1643 21.8278 39.1849 22.2172C39.287 22.2645 39.3976 22.2911 39.5102 22.2953C39.6227 22.2995 39.735 22.2813 39.8404 22.2417C39.9459 22.2022 40.0424 22.1421 40.1244 22.0649C40.2064 21.9878 40.2723 21.8951 40.3182 21.7922C40.3689 21.6889 40.3974 21.5761 40.4018 21.4612C40.4062 21.3462 40.3864 21.2315 40.3436 21.1247C40.3009 21.0179 40.2362 20.9212 40.1537 20.8409C40.0712 20.7607 39.9728 20.6987 39.8648 20.6589C38.6606 20.0794 37.3475 19.7608 36.0115 19.7239C34.7134 19.6181 33.4068 19.6944 32.1299 19.9505C30.2509 20.3251 28.5535 21.3236 27.3132 22.7839C26.1646 24.2772 25.3964 26.0275 25.0749 27.8839C24.8806 29.3049 25.0263 30.7517 25.4999 32.1055C25.8935 33.3982 26.6391 34.5558 27.6532 35.4489C26.1361 36.1002 24.7745 37.0659 23.6582 38.2822C22.8014 39.2584 22.1466 40.3948 21.7315 41.6255C21.3911 42.5888 21.2373 43.6081 21.2782 44.6289V45.2522C21.2782 45.4789 22.6665 47.9439 23.7149 45.0539Z" fill="black"/>
</g>
</g>
</g>
<defs>
<clipPath id="clip0_2421_16593">
<rect width="68" height="68" fill="white" transform="translate(0 0.117188)"/>
</clipPath>
</defs>
</svg>
