<svg width="59" height="48" viewBox="0 0 59 48" fill="none" xmlns="http://www.w3.org/2000/svg">
<path d="M7.50012 24L15.5001 28.5V32.5L17.0001 40.5L21.0001 35L26.5001 34L34.0001 35L41.5001 37.5H43.5001V34L54.5001 9.5L7.50012 24Z" fill="white"/>
<path d="M15.5747 35.5554C15.5967 35.3783 16.059 41.1989 18.537 37.6788C19.289 36.6183 16.5311 42.3927 16.5311 42.3927C16.5311 42.3927 14.94 39.0189 15.5747 35.5554Z" fill="#231F20"/>
<path d="M44.9763 17.8963L41.5299 20.3717C41.114 20.6737 40.7195 21.0032 40.2982 21.2983L35.8131 24.3954C35.1369 24.8449 34.499 25.3365 33.8457 25.8013C33.4355 26.1172 33.0096 26.4121 32.5697 26.6851C32.343 26.812 32.1117 26.926 31.9049 27.043C31.6981 27.16 31.4087 27.242 31.1667 27.3422C30.9248 27.4424 30.8613 27.3043 31.0153 27.0628C31.262 26.6588 31.546 26.2786 31.8635 25.9274C32.6304 25.2472 33.5012 24.6791 34.3246 24.0431C35.148 23.4071 36.0035 22.8123 36.8765 22.2258C37.9137 21.5171 38.8965 20.6466 39.9015 19.847L43.2256 17.2075C43.9124 16.6724 44.5992 16.1373 45.2493 15.5976C46.2596 14.7553 47.3173 13.9312 48.2474 13.0355C48.9641 12.3324 49.6387 11.5876 50.2675 10.8049C50.4064 10.636 50.5337 10.4595 50.6779 10.2975C50.9251 10.0056 51.1082 9.82979 51.3281 9.75783C51.5507 9.78966 51.7708 9.83771 51.9864 9.9016C52.1147 9.91753 52.2491 9.93422 52.3591 9.94787C52.4691 9.96152 52.6555 10.1087 52.7092 10.376C52.732 10.5384 52.7241 10.7036 52.6859 10.8632C52.6523 11.0185 52.5855 11.1647 52.49 11.2917C51.339 12.8256 49.975 14.1874 48.4394 15.3361C47.3238 16.2274 46.1699 17.0767 45.0145 17.9383L44.9763 17.8963Z" fill="#231F20"/>
<path d="M38.1939 24.0581L29.371 29.3649C28.2979 30.0133 27.2684 30.7106 26.19 31.3521C25.2217 31.8643 24.3128 32.4817 23.4799 33.1932C23.265 33.3692 23.0378 33.5297 22.8 33.6733C22.7252 33.726 22.7122 33.7306 22.6931 33.7344C22.6698 33.7494 22.6487 33.7677 22.6305 33.7887C22.5596 33.8606 22.4757 33.937 22.4032 34.021C22.095 34.355 21.8372 34.7821 21.5306 35.1534C20.9126 36.0124 20.3551 36.9133 19.862 37.8496L19.6691 38.2041L19.4389 38.6594L18.848 39.7709C18.4859 40.489 18.1483 41.2101 17.815 41.7457C17.5862 42.1158 17.3106 42.4548 16.995 42.7543C16.875 42.887 16.716 42.978 16.5408 43.0143L16.4431 43.0022C16.4332 43.0816 16.4431 43.0022 16.4378 43.045L16.3889 43.0389C16.3328 43.013 16.2785 42.9834 16.2262 42.9505C16.1221 42.8818 16.028 42.7992 15.9465 42.7048C15.8586 42.6133 15.789 42.524 15.7126 42.44C15.6439 42.3383 15.5803 42.2331 15.5222 42.1248C15.4028 41.9133 15.2995 41.6931 15.2132 41.4661C15.104 41.219 15.0112 40.965 14.9353 40.7058C14.8796 40.4218 14.816 40.1347 14.7445 39.8446C14.6686 39.4567 14.6506 39.0016 14.5785 38.5833L14.5031 37.8915C14.4678 37.6762 14.4622 37.3715 14.4445 37.2639L14.3826 36.3132C14.3451 35.9993 14.3367 35.6826 14.3574 35.3671L14.4445 33.5665C14.4509 33.2829 14.4757 33 14.5186 32.7196C14.5464 32.4798 14.5556 32.2383 14.5463 31.9972C14.5622 31.8689 14.5698 31.8078 14.5796 31.7284C14.5924 31.639 14.6355 31.5568 14.7016 31.4954C14.9668 31.2922 15.338 31.3021 15.592 31.519C16.1117 31.8882 16.5455 32.3653 16.8638 32.9177C17.2355 33.5468 17.4557 34.2538 17.507 34.9827C17.5225 35.3072 17.5594 35.6096 17.5414 35.9547L17.3662 37.366C17.3525 37.476 17.3563 37.4455 17.3563 37.4455C17.3233 37.5029 17.3149 37.5711 17.3328 37.6348C17.3596 37.7188 17.384 37.7219 17.4733 37.6523L17.5519 37.569C17.5519 37.569 17.5519 37.569 17.5915 37.4995L17.6426 37.3879L17.8469 36.9418C18.1305 36.3567 18.4263 35.773 18.7587 35.1939C18.9577 34.8402 19.1628 34.4873 19.3802 34.1358C19.4953 33.9578 19.6044 33.779 19.7256 33.6018C19.8469 33.4245 19.9911 33.2625 20.1299 33.0936C20.4301 32.7366 20.7557 32.4017 21.1042 32.0917C21.2293 31.9963 21.3603 31.909 21.4965 31.8302L21.7445 31.6811C21.9112 31.5756 22.0846 31.4811 22.2635 31.3982C22.62 31.2253 22.9925 31.073 23.3291 30.9101L24.3097 30.1571L26.2444 28.8154L34.7461 22.9972L37.3699 21.2013C38.249 20.6157 39.1282 20.03 40.0028 19.4314C42.6526 17.6263 45.3099 15.8098 47.8496 13.8917C48.8302 13.1388 49.7711 12.3561 50.6951 11.5588C51.6192 10.7616 52.5173 9.92396 53.4215 9.13669C53.8144 8.76984 54.2265 8.44878 54.6516 8.12313C55.2048 7.67395 55.8144 7.29915 56.465 7.00827C56.6676 6.92326 56.8837 6.87449 57.1032 6.86418C57.3089 6.86931 57.5135 6.89472 57.7142 6.94003C57.8791 6.96051 58.0563 6.98251 58.1724 6.99692C58.4924 7.06767 58.336 8.12768 57.358 9.30904C57.0041 9.76139 56.6303 10.174 56.2542 10.605L55.6843 11.2477C55.4905 11.4594 55.2753 11.6436 55.0708 11.8415C54.1801 12.6201 53.2924 13.3743 52.4077 14.104C51.5119 14.8241 50.5931 15.5289 49.6605 16.2444L46.8751 18.2932C44.0468 20.2871 41.1775 22.2283 38.2672 24.1168L38.1939 24.0581Z" fill="#231F20"/>
<path d="M42.4055 16.3673C40.2173 17.3364 38.0291 18.3054 35.8409 19.2745C35.0455 19.6348 34.2853 20.0615 33.4907 20.4157L25.0903 24.1682C23.8377 24.7137 22.6134 25.331 21.4082 25.9444C19.8603 26.7407 18.2632 27.4376 16.6267 28.0308C16.1145 28.2091 16.0723 27.9992 16.3407 27.5362C16.7677 26.8253 17.3207 26.1981 17.9725 25.6854L19.0554 24.9079L19.6011 24.5103L20.1765 24.1723C20.9438 23.7217 21.7178 23.2843 22.4983 22.8601C23.283 22.4364 24.0623 22.0058 24.8775 21.6355C25.6927 21.2653 26.5171 20.8713 27.3621 20.5606C29.3545 19.7533 31.2862 18.6346 33.254 17.6754C35.4195 16.6228 37.6056 15.6039 39.7802 14.5773L43.8113 12.6894C45.8386 11.7003 47.8919 10.8014 49.8795 9.78258C51.4229 8.99401 52.9005 8.13525 54.4263 7.3383C54.7644 7.16315 55.0918 6.97426 55.4308 6.84264C56.7444 6.25509 57.3486 6.38593 57.7948 6.78874C57.9078 6.87462 58.0143 6.96871 58.1135 7.07024C58.2534 7.2427 58.2139 7.46113 58.0316 7.73007C57.8148 8.08857 57.5272 8.39906 57.1863 8.64252C56.5735 9.13098 55.9125 9.50799 55.2562 9.94761C54.5999 10.3872 53.9122 10.7795 53.2406 11.1924C51.864 12.0177 50.4398 12.7606 48.9754 13.4173C46.8122 14.4515 44.6062 15.4308 42.3956 16.4467L42.4055 16.3673Z" fill="#231F20"/>
<path d="M34.8551 36.1048C33.7927 35.8318 32.7071 35.6094 31.6051 35.4389C31.1989 35.3649 30.7587 35.3955 30.3694 35.3339C29.65 35.2167 28.9221 35.1734 28.1773 35.0931C27.4331 35.0266 26.6842 34.9914 25.9344 34.9878C25.2719 34.9906 24.6125 35.0524 23.9707 35.1719C23.1709 35.3768 22.3302 35.4847 21.4822 35.4912C21.2029 35.4912 21.0592 34.9678 21.1186 34.4445C21.178 33.9213 21.4659 33.3796 21.9653 33.2812C23.818 32.9447 25.7478 32.8971 27.6278 33.1414C28.7534 33.2833 29.9299 33.2159 31.0725 33.3332C32.3261 33.4664 33.5629 33.6726 34.7711 33.95C35.5159 34.1288 36.2522 34.3014 36.9716 34.5047C38.0718 34.7944 39.1127 35.1887 40.1791 35.5277C41.0299 35.7602 41.8583 36.034 42.6588 36.3472C42.8196 36.4334 42.9973 36.5074 43.1496 36.6059C43.6997 36.9939 43.7588 37.2218 43.5217 37.5911C43.4805 37.6711 43.4324 37.7492 43.3778 37.825C43.0909 38.0735 42.6239 38.1686 42.2012 38.0647C41.8204 38.003 41.4056 37.9721 41.0248 37.9228C40.6634 37.8678 40.3134 37.7787 39.9838 37.6577L37.9526 37.0415C36.9271 36.7184 35.8757 36.4405 34.8043 36.2094L34.8551 36.1048Z" fill="#231F20"/>
<path d="M51.6046 19.8234C51.1981 20.4987 50.8146 21.1894 50.4128 21.8777C50.0109 22.5661 49.6221 23.2498 49.237 23.9526C48.9572 24.4576 48.7469 25.0023 48.4724 25.5141C47.5042 27.317 46.5695 29.1489 45.7655 31.0281C45.4211 31.9035 45.0842 32.7177 44.7925 33.5686C44.6135 34.1109 44.4459 34.6609 44.2914 35.2062C44.0983 35.7266 43.9331 36.257 43.7964 36.7949C43.763 37.0638 43.6035 37.1494 43.3336 36.8243C43.0004 36.3081 42.823 35.7067 42.8229 35.0922C42.9462 33.8631 43.1678 32.6459 43.4857 31.4522C43.8621 30.2935 44.3319 29.1672 44.8902 28.0843C45.555 26.7772 46.0188 25.3398 46.6431 23.9594C47.3298 22.4751 48.0365 21.0306 48.85 19.5745C49.3373 18.6982 49.8474 17.8372 50.3537 16.9571C51.1376 15.64 51.9673 14.3534 52.7665 13.063C53.0891 12.5633 53.3704 12.0461 53.6701 11.5312C53.9502 11.0033 54.2701 10.4976 54.6271 10.0184C54.7896 9.80907 54.9231 9.5837 55.1092 9.38348C55.7844 8.64222 56.1806 8.54873 56.733 8.84683C56.8638 8.90661 56.99 8.9762 57.1104 9.05498C57.484 9.34332 57.473 9.88167 57.1596 10.4569C56.6862 11.3225 56.3143 12.2689 55.7202 13.1071L54.076 15.7566C53.2891 17.0982 52.4327 18.4497 51.6703 19.8439L51.6046 19.8234Z" fill="#231F20"/>
<path d="M31.7669 17.3109L21.7507 20.0377C20.5307 20.3701 19.3437 20.7873 18.1237 21.1197L11.7017 22.8783L10.9169 23.1035L10.5169 23.2275L10.2009 23.3248L9.50306 23.4987C9.02134 23.6312 8.48159 23.7813 7.91286 23.965C7.78384 24.0049 7.66093 24.0454 7.54338 24.0929C7.48146 24.1136 7.42323 24.1441 7.37088 24.1831C7.40754 24.1877 7.47474 24.196 7.52973 24.2028L8.22625 24.3389C8.71121 24.4302 9.2084 24.5229 9.65443 24.6279C9.80106 24.6461 9.9439 24.6949 10.0814 24.7368C10.1241 24.7421 10.1303 24.7428 10.2097 24.7527L10.4472 24.838L10.9162 25.0079C11.5491 25.2434 12.163 25.5271 12.7526 25.8563C13.3736 26.1978 13.9469 26.6194 14.4581 27.1102C14.9935 27.648 15.3692 28.3239 15.5433 29.0626C15.6536 29.523 15.5515 29.746 15.4117 29.7721C15.272 29.7982 15.0306 29.6441 14.68 29.4703C14.2349 29.2708 13.7597 29.1468 13.2738 29.1035C12.7354 28.9838 12.2104 28.8106 11.7065 28.5863C11.2022 28.3579 10.6835 28.1629 10.1536 28.0027C9.87863 27.9189 9.60366 27.8351 9.32106 27.7628L9.10567 27.6988L8.63748 27.5725C8.30757 27.5315 7.96388 27.4516 7.62402 27.3908L6.63113 27.1435L5.5993 26.9099L4.52854 26.6901L3.98935 26.586C3.8253 26.5596 3.66434 26.5168 3.50893 26.4581C3.0923 26.3204 2.70991 26.0953 2.3874 25.7977C2.19785 25.6525 2.06918 25.4419 2.02649 25.207C2.00354 25.0569 2.00367 24.9042 2.02687 24.7542C2.04731 24.6702 2.058 24.5841 2.05873 24.4976C2.05666 24.413 2.06714 24.3286 2.08983 24.2471C2.20976 23.791 2.47808 23.3878 2.85248 23.101C3.22348 22.7923 3.64838 22.5548 4.10574 22.4005L4.31413 22.3209L4.65467 22.2764C4.86921 22.2472 5.12042 22.2225 5.28609 22.1873L6.22511 21.9192L8.02986 21.4237L8.89867 21.2213L9.30329 21.1103L9.48881 21.0651L9.60409 21.036C12.6166 20.2561 15.6365 19.1173 18.6443 18.1756L28.6947 15.1242L34.8432 13.22C37.9304 12.2385 41.0711 11.3753 44.1124 10.3136C45.2919 9.9079 46.4461 9.45565 47.5896 8.98966L51.0323 7.69247C51.54 7.50114 52.0247 7.29456 52.5377 7.11011C53.0507 6.92565 53.4003 6.80776 53.7293 6.70593C54.0122 6.63577 54.3002 6.58854 54.5906 6.5647C54.9545 6.52647 55.3223 6.57214 55.6658 6.6982C55.8002 6.74062 55.9365 6.77619 56.0745 6.80477C56.2784 6.8611 56.232 7.13451 55.9521 7.49059C55.548 7.968 55.0784 8.38589 54.5573 8.73185C52.5537 9.87893 50.5143 10.9161 48.3953 11.8937C46.2404 12.7615 44.0334 13.5483 41.8105 14.3145C40.1592 14.8726 38.5432 15.4474 36.8308 15.9482L31.7937 17.3949L31.7669 17.3109Z" fill="#231F20"/>
</svg>
