<svg width="105" height="104" viewBox="0 0 105 104" fill="none" xmlns="http://www.w3.org/2000/svg">
<path d="M34.6098 50.237C34.0048 52.3805 33.3501 54.5196 32.6628 56.6453C32.403 57.4198 32.2721 58.2355 31.9885 59.0137C31.4942 60.3691 30.9364 61.7098 30.358 63.0354C29.7795 64.361 29.0861 65.6553 28.411 66.9102C27.815 68.0426 27.2332 69.2279 26.6711 70.3429C25.9542 71.8359 24.9674 73.1834 23.7605 74.3176C23.3676 74.666 22.9351 74.2432 22.6564 73.5091C22.3051 72.7048 22.2524 71.8016 22.5075 70.9619C22.828 70.2637 23.0813 69.5269 23.3949 68.8236L24.3632 66.7341C25.0161 65.3358 25.6602 63.9205 26.3918 62.5162C27.2182 60.7534 27.8582 58.9091 28.3013 57.0133C28.9261 54.9585 29.5146 52.8664 30.0447 50.7528C30.3754 49.4471 30.6991 48.1365 30.9851 46.8194C31.4017 44.8028 31.9075 42.8092 32.2399 40.7628C32.3865 39.9691 32.42 39.1561 32.5528 38.3523C32.672 37.5388 32.8376 36.7327 33.0487 35.938C33.1274 35.5473 33.2583 35.1689 33.4378 34.813C33.5541 34.6543 33.6602 34.5094 33.7217 34.353C33.7832 34.1966 33.9238 34.077 34.0097 33.9597C34.1824 33.7599 34.399 33.6029 34.6426 33.5008C35.063 33.358 35.5245 33.4025 35.9099 33.6232C36.0788 33.6961 36.2375 33.791 36.3818 33.9052C36.5696 34.1293 36.6938 34.3996 36.7415 34.688L36.9083 35.213C36.9619 35.3877 36.9859 35.5701 36.9795 35.7528C37.0607 36.8723 36.9614 38.2095 36.9361 39.5903C36.9108 40.9712 36.468 42.3431 36.1936 43.7747C35.7164 45.874 35.1836 48.0493 34.6558 50.2176L34.6098 50.237Z" fill="#231F20"/>
<path d="M39.2173 35.0275C38.9939 35.0865 38.9762 34.7343 39.1 34.1888C39.1808 33.94 39.2993 33.705 39.4512 33.492C39.5794 33.3907 39.7144 33.2983 39.8552 33.2154C39.8855 33.174 40.8258 33.1205 41.155 33.0329C41.4463 32.9749 41.7455 32.968 42.0392 33.0125C42.6181 33.076 43.2136 33.088 43.8077 33.1308C43.941 33.1385 44.0692 33.1846 44.177 33.2635C44.5581 33.5232 45.022 33.6325 45.4789 33.5702C45.5575 33.5642 45.6298 33.5958 45.7327 33.4698C45.8356 33.3437 47.1336 33.3083 47.2684 33.4283C47.5988 33.7444 47.9585 33.9336 48.3173 34.1964C48.3725 34.2368 48.4336 34.1967 48.4512 34.3898C48.4805 34.8565 48.6134 34.8054 48.7251 34.8554C48.9021 34.9332 49.0599 35.0488 49.1875 35.194C49.2663 35.3711 49.3181 35.5591 49.341 35.7516C49.3364 36.0712 49.2799 36.3879 49.1738 36.6893C49.0775 36.9404 49.0295 37.2073 49.0322 37.4761L48.9841 37.759C48.5918 38.2066 48.1236 38.5814 47.6009 38.8662C47.5554 38.9283 46.0467 38.7882 45.8926 38.7814C45.7386 38.7746 45.7339 38.6652 45.6442 38.5995C45.5545 38.5338 44.4059 38.4665 44.3626 38.4242C44.1556 38.2726 43.8774 38.334 43.707 37.9442C43.6822 37.8623 43.6173 37.8785 43.5828 37.8532C43.1665 37.7022 42.7736 37.493 42.4159 37.2319C42.218 37.1355 42.0149 37.0505 41.8074 36.9771C41.7665 36.9563 41.7292 36.929 41.697 36.8963C41.6487 36.8609 41.6004 36.8255 41.5659 36.8003C41.0969 36.5554 40.6121 36.342 40.1147 36.1616C39.9929 36.1254 39.5644 35.6103 39.4186 35.5777C39.2729 35.5452 39.3042 34.9957 39.2173 35.0275Z" fill="#231F20"/>
<path d="M39.2593 30.468C39.1932 30.674 38.885 30.5013 38.4732 30.0938C38.3069 29.9004 38.179 29.6772 38.0962 29.436C38.0898 29.2683 38.0924 29.1004 38.1041 28.933C38.1445 28.8778 38.6819 27.9992 38.8421 27.6501C38.9912 27.3523 39.1894 27.0817 39.4283 26.8496C39.8527 26.3579 40.311 25.8965 40.7999 25.4688C40.9116 25.3727 41.0487 25.3111 41.1947 25.2915C41.6851 25.1835 42.1274 24.9198 42.4555 24.5398C42.5407 24.4844 42.5852 24.3839 42.5689 24.2836C42.8358 23.798 43.245 23.4059 43.7415 23.1599C44.2244 23.1445 44.7056 23.0967 45.182 23.0169C45.2487 23.0127 45.2528 22.9203 45.4115 23.0365C45.7358 23.274 45.801 23.1415 45.9288 23.0973C46.1317 23.0407 46.3441 23.0267 46.5527 23.0559C46.7106 23.1101 46.8641 23.1764 47.0118 23.2543C47.1926 23.378 47.3402 23.5443 47.4416 23.7386C47.4674 23.906 47.6638 24.0286 47.7954 24.1674L47.9307 24.3301C47.936 24.6347 47.9217 24.9395 47.8881 25.2423C47.8837 25.4421 47.8526 25.6404 47.7957 25.8319C47.782 25.9273 47.7506 26.0194 47.703 26.1032C47.703 26.1032 46.6651 27.3468 46.5199 27.5161C46.3747 27.6854 46.3324 27.5696 46.2229 27.5742C46.1135 27.5789 45.2855 28.4779 45.2327 28.4922C44.9909 28.5908 44.8448 28.8337 44.4447 28.6997C44.3891 28.6786 44.3263 28.6984 44.293 28.7476C43.9141 28.9911 43.5019 29.1784 43.0694 29.3039C42.8565 29.3919 42.6837 29.541 42.4709 29.6289C42.4709 29.6289 42.3716 29.6198 42.3238 29.6272C42.2651 29.6186 42.2052 29.6216 42.1477 29.636C41.6443 29.8356 41.1549 30.0687 40.6827 30.3337C40.5825 30.3981 39.8882 30.4197 39.7816 30.5219C39.675 30.624 39.2941 30.3769 39.2593 30.468Z" fill="#231F20"/>
<path d="M35.861 26.6543C36.0266 26.7756 35.6589 26.9303 35.0718 27.0517C34.7969 27.0989 34.5161 27.1009 34.2405 27.0578C34.0818 26.9614 33.9317 26.8515 33.7919 26.7293C33.7091 26.6687 33.2583 25.6919 33.0406 25.3522C32.855 25.0756 32.7614 24.7473 32.7733 24.4144L32.6295 22.613C32.6265 22.4722 32.6622 22.3334 32.7327 22.2115C32.9679 21.8047 33.036 21.3224 32.9226 20.8664C32.9046 20.7896 32.9294 20.7124 32.7881 20.6302C32.6469 20.5479 32.6429 19.2941 32.7904 19.1795C32.9379 19.0649 33.0531 18.8206 33.1946 18.6274L33.6039 18.0685C33.6393 18.0202 33.5993 17.959 33.7698 17.9143C34.1638 17.8106 34.1026 17.6915 34.1715 17.583C34.2384 17.3967 34.3577 17.2338 34.5151 17.1137C34.6586 17.0156 34.8085 16.927 34.9637 16.8486C35.1365 16.781 35.3252 16.7646 35.5071 16.8013C35.6245 16.8872 35.8235 16.7891 35.9789 16.7651L36.1481 16.7512C36.2386 16.8005 36.3222 16.8617 36.3965 16.9331C36.5766 17.0386 36.7454 17.1622 36.9002 17.302C37.1271 17.4853 37.3271 17.6995 37.4943 17.9385L37.7758 18.7701C37.926 19.1875 37.941 19.6013 37.9916 19.6914C38.0423 19.7814 37.9219 19.8735 37.8612 19.9563C37.8006 20.0391 38.1081 21.1972 38.0538 21.2423C37.9694 21.4878 38.068 21.7296 37.6906 21.9409C37.6342 21.9548 37.5958 22.0072 37.5996 22.0652C37.5402 22.4828 37.4149 22.8884 37.2285 23.2669C37.1726 23.4702 37.1371 23.6787 37.1227 23.8891C37.1227 23.8891 37.0671 23.965 37.0418 23.9995C37 24.0351 36.9671 24.08 36.9458 24.1306C36.918 24.3744 36.8692 24.6153 36.8001 24.8508C36.7407 25.086 36.7 25.3256 36.6783 25.5672C36.6691 25.6666 36.2235 26.1883 36.2213 26.2927C36.219 26.397 35.7902 26.5918 35.861 26.6543Z" fill="#231F20"/>
<path d="M32.4231 29.5539C32.664 29.529 32.6087 29.923 32.3139 30.4704C32.1588 30.712 31.9727 30.9321 31.7602 31.1251L31.3029 31.3733C31.2726 31.4147 30.3377 31.3449 29.9892 31.3866C29.6898 31.4092 29.3888 31.3725 29.1036 31.2787C28.5893 31.0399 28.0498 30.8357 27.491 30.5854C27.365 30.5403 27.2547 30.4595 27.1736 30.353C26.8959 29.9862 26.4961 29.7311 26.0466 29.6337C25.9845 29.5882 25.9223 29.5427 25.7918 29.6486C25.6613 29.7544 24.4793 29.3129 24.3698 29.1585C24.1258 28.7678 23.806 28.4807 23.5676 28.1258C23.5193 28.0905 23.4779 28.0602 23.4815 27.925C23.5268 27.5447 23.3916 27.5411 23.3 27.4634C23.15 27.3491 23.024 27.2064 22.9291 27.0434C22.8785 26.9533 22.8931 26.7308 22.8892 26.5478C22.947 26.3019 23.055 26.0706 23.2065 25.8684C23.3387 25.693 23.4346 25.493 23.4889 25.2801C23.5344 25.218 23.59 25.1421 23.6253 25.0938C24.076 24.8398 24.5651 24.6608 25.0734 24.5641C25.0734 24.5641 26.5078 24.936 26.6756 24.9529C26.8434 24.9698 26.8205 25.059 26.861 25.1629C26.9016 25.2668 28.0347 25.4711 28.0761 25.5014C28.2693 25.6429 28.5397 25.6501 28.6057 26.0376C28.6237 26.1144 28.6885 26.0983 28.7299 26.1286C29.104 26.3175 29.4444 26.5668 29.7374 26.8664C29.9164 26.9813 30.1021 27.0854 30.2935 27.1782C30.2935 27.1782 30.3625 27.2287 30.3667 27.2954C30.3709 27.3621 30.4192 27.3974 30.4587 27.4158C30.9297 27.6123 31.2937 28.0272 31.7362 28.2771C31.8328 28.3478 32.1377 28.9739 32.2595 29.0101C32.3814 29.0463 32.3293 29.5807 32.4231 29.5539Z" fill="#231F20"/>
<path d="M30.4991 33.933C30.5546 33.698 30.8127 33.9825 31.1957 34.5597C31.3665 34.8414 31.5016 35.1433 31.5977 35.4584C31.6023 35.6451 31.5964 35.8319 31.5801 36.018C31.5641 36.1122 30.994 36.8184 30.8019 37.0807C30.6376 37.3255 30.417 37.5275 30.1586 37.6697C29.6898 37.9624 29.2385 38.2892 28.7766 38.587C28.667 38.6498 28.5402 38.6759 28.4148 38.6613C27.9833 38.6479 27.5628 38.7982 27.2375 39.0819C27.1525 39.1126 27.0946 39.1917 27.091 39.282C27.0801 39.5285 26.1011 40.0837 25.9263 40.0617C25.5083 40.01 25.1028 39.9993 24.6935 39.9646C24.6521 39.9343 24.6329 40.0474 24.4944 39.9036C24.2413 39.6122 24.1908 39.6812 24.0529 39.7393C23.8825 39.7712 23.7075 39.7691 23.5379 39.7332C23.393 39.6575 23.2604 39.5604 23.1445 39.4452C23.0002 39.2369 22.8939 39.0047 22.8305 38.7593C22.7765 38.5461 22.6893 38.3428 22.5721 38.1567L22.4703 37.9338C22.5458 37.4362 22.696 36.9529 22.9158 36.5002C22.9158 36.5002 23.187 36.2747 23.4682 36.0355C23.7495 35.7962 24.0482 35.5909 24.0937 35.5288C24.1391 35.4667 24.256 35.5098 24.3502 35.5258C24.4445 35.5419 25.2253 34.8521 25.2662 34.8396C25.3071 34.8272 25.6242 34.5824 25.9499 34.7891C26.012 34.8345 26.0492 34.7982 26.0883 34.7738C26.4234 34.6174 26.7838 34.5223 27.1525 34.493C27.3358 34.4387 27.5132 34.3662 27.6821 34.2766C27.723 34.2791 27.7634 34.2873 27.8021 34.3009C27.8435 34.3312 27.8918 34.3666 27.9511 34.3146C28.3839 34.1894 28.8028 34.0201 29.201 33.8093C29.2616 33.7265 29.8755 33.858 29.967 33.7766C30.0584 33.6951 30.4711 34.0291 30.4991 33.933Z" fill="#231F20"/>
<path d="M54.41 50.8915C52.3945 52.6595 50.4867 54.5699 48.5531 56.472C47.8528 57.1678 47.2529 57.9581 46.5544 58.6658C45.3506 59.9044 44.146 61.1778 42.9406 62.486L39.4258 66.4317C38.3907 67.6137 37.4452 68.8613 36.5186 70.1122C35.9274 70.9196 35.3896 71.7554 34.745 72.5343C34.1004 73.3132 33.3436 73.9993 32.5817 74.6923C32.0955 75.1101 31.9302 74.8725 31.8916 74.1869C31.8707 73.1912 32.0262 72.1997 32.3508 71.2581C32.449 71.0226 32.5385 70.7701 32.6556 70.5378L33.0621 69.8814L33.87 68.5755C34.4212 67.707 34.9912 66.8417 35.5769 65.9985C36.7326 64.2737 38.0388 62.6548 39.4801 61.1605C41.2096 59.3633 42.6837 57.22 44.3708 55.307C45.2911 54.2529 46.2509 53.2172 47.2214 52.2105C48.1918 51.2038 49.2156 50.2256 50.2412 49.2593C51.5003 48.0611 52.8145 46.9033 54.1357 45.7506C56.1347 44.0341 58.2717 42.4187 60.3738 40.8944C61.9899 39.6232 63.6717 38.438 65.4123 37.3436C65.7943 37.0847 66.1941 36.8532 66.6087 36.6507C66.9402 36.4901 67.2835 36.3552 67.6356 36.2472C67.8946 36.1937 68.1612 36.1878 68.4223 36.2297C68.8697 36.3364 69.2552 36.6187 69.4919 37.0129C69.6406 37.1945 69.7766 37.3861 69.8988 37.5865C70.2538 38.2599 69.841 39.1131 68.9352 39.7855C66.1831 41.6183 63.3635 43.5289 60.5574 45.725C58.4756 47.3808 56.4352 49.067 54.4721 50.937L54.41 50.8915Z" fill="#231F20"/>
<path d="M69.9758 41.173C69.8524 41.0085 70.1107 40.8584 70.5764 40.7436C70.7947 40.7111 71.0169 40.7161 71.2335 40.7583L71.5786 41.011C71.6269 41.0464 72.0362 41.8337 72.1926 42.0543C72.3467 42.2846 72.466 42.5363 72.5468 42.8013C72.7117 43.3143 72.9263 43.8319 73.129 44.3514C73.1714 44.4689 73.1846 44.595 73.1674 44.7187C73.1098 45.1507 73.1991 45.5896 73.4212 45.9646C73.4557 46.0429 73.5293 46.0968 73.6144 46.1061C73.8443 46.1685 74.2842 47.2326 74.2415 47.3922C74.1383 47.7937 74.1308 48.1804 74.0396 48.58C74.0092 48.6215 74.092 48.6821 73.9183 48.7457C73.5887 48.9496 73.6909 49.0562 73.6767 49.1624C73.6803 49.3387 73.6492 49.5141 73.5851 49.6784C73.4775 49.8088 73.3535 49.9246 73.2161 50.023C72.9845 50.1427 72.7322 50.217 72.4727 50.2419C72.286 50.2218 72.0429 50.3512 71.8213 50.4222C71.7467 50.4491 71.6704 50.4712 71.5928 50.4881C71.0988 50.3276 70.6376 50.0797 70.2313 49.7561C70.1899 49.7258 69.7131 48.4225 69.6463 48.2676C69.5795 48.1127 69.6733 48.086 69.7082 47.9949C69.7431 47.9038 69.3364 46.8958 69.3479 46.8511C69.3587 46.6047 69.228 46.3923 69.4779 46.1089C69.5097 46.0656 69.5149 46.0083 69.4916 45.9599C69.4457 45.5509 69.456 45.1376 69.5221 44.7313C69.519 44.5249 69.5035 44.3188 69.4757 44.1143C69.4757 44.1143 69.5262 44.0453 69.5464 44.0177C69.5666 43.9901 69.6121 43.928 69.5909 43.87C69.5973 43.3768 69.5762 42.8836 69.5278 42.3927C69.5163 42.2782 69.7407 41.7111 69.7135 41.5746C69.6863 41.4381 70.0278 41.2323 69.9758 41.173Z" fill="#231F20"/>
<path d="M73.9918 39.9159C73.7881 39.9045 73.7934 39.6222 73.9444 39.2133C74.029 39.0304 74.1492 38.8661 74.2981 38.7303C74.4429 38.6773 74.5707 38.6331 74.6884 38.6026C74.8061 38.5722 75.621 38.7767 75.9429 38.8004C76.2347 38.8248 76.5214 38.8918 76.7937 38.9994C77.3433 39.1898 77.9182 39.3458 78.4829 39.5155C78.6093 39.5506 78.7259 39.6142 78.8238 39.7015C79.1739 39.9934 79.5995 40.1801 80.0514 40.24C80.1066 40.2805 80.1939 40.2914 80.3111 40.2183C80.83 40.1973 81.3454 40.3117 81.8067 40.5501C82.0943 40.8667 82.4512 41.1176 82.7213 41.4002C82.7696 41.4355 82.8345 41.4194 82.8346 41.5785C82.8164 41.9362 82.9498 41.9279 83.0583 41.9968C83.2137 42.0933 83.3478 42.2204 83.4526 42.3703C83.5057 42.5195 83.5341 42.6763 83.5366 42.8347C83.5083 43.0712 83.4286 43.2986 83.303 43.5011C83.1967 43.6772 83.123 43.871 83.0855 44.0732C83.0501 44.1215 83.0359 44.2278 83.0194 44.2793C82.5703 44.5367 82.0806 44.7158 81.5714 44.809C81.536 44.8573 80.1176 44.3911 79.948 44.3623C79.7783 44.3334 79.7961 44.2511 79.7506 44.1541C79.705 44.0571 78.5897 43.7705 78.5534 43.7333C78.3464 43.5817 78.0962 43.5469 77.981 43.1976C77.9635 43.1474 77.9168 43.1132 77.8637 43.1117C77.4919 42.8978 77.1448 42.6436 76.8286 42.3537C76.6492 42.2223 76.4514 42.1305 76.2688 42.0179C76.2321 41.9959 76.1974 41.9705 76.1653 41.9421C76.1316 41.9026 76.089 41.8714 76.0411 41.8512C75.5986 41.6014 75.1992 41.2347 74.7365 41.0125C74.6399 40.9417 74.2579 40.45 74.1323 40.3898C74.0068 40.3297 74.0773 39.9149 73.9918 39.9159Z" fill="#231F20"/>
<path d="M71.4456 32.825C71.5764 33.0373 71.2031 33.1562 70.58 33.124C70.2757 33.0864 69.9785 33.0045 69.6979 32.8809L69.2839 32.5777C69.2356 32.5423 68.8768 31.6859 68.6973 31.3955C68.5522 31.1339 68.4562 30.848 68.4139 30.5519C68.4057 29.9841 68.3396 29.4374 68.3309 28.8268C68.3291 28.6925 68.3637 28.5603 68.4309 28.4441C68.6375 28.0314 68.6943 27.5597 68.5918 27.1097C68.5738 27.0329 68.5936 26.9625 68.4662 26.8904C68.3387 26.8183 68.2064 25.5659 68.3378 25.3865C68.6106 25.0138 68.712 24.6004 68.9333 24.2113C68.9687 24.163 68.9098 24.0986 69.0597 24.0387C69.426 23.9148 69.3648 23.7958 69.4011 23.6739C69.4387 23.4913 69.5117 23.3179 69.6159 23.1634C69.7488 23.0583 69.8966 22.9736 70.0544 22.912C70.2998 22.8576 70.554 22.8559 70.8002 22.9069C71.0142 22.9502 71.2348 22.9494 71.4485 22.9046L71.6881 22.9104C72.1099 23.2081 72.4803 23.5725 72.785 23.9893C72.785 23.9893 73.072 25.4504 73.1268 25.6071C73.1816 25.7639 73.0741 25.7805 73.0203 25.8684C72.9666 25.9562 73.2051 27.0638 73.2465 27.0941C73.1979 27.3341 73.3153 27.5791 72.9964 27.812C72.9509 27.8741 72.9357 27.8948 72.9569 27.9527C72.945 28.3727 72.8755 28.7891 72.7504 29.1902C72.715 29.4006 72.7008 29.6139 72.7081 29.8271C72.7081 29.8271 72.6525 29.903 72.6272 29.9375C72.6019 29.972 72.5565 30.0341 72.5362 30.0617C72.5591 30.5661 72.2997 31.0652 72.3005 31.5852C72.307 31.7066 71.8305 32.227 71.8684 32.3925C71.9062 32.558 71.4125 32.7689 71.4456 32.825Z" fill="#231F20"/>
<path d="M74.5982 35.0488C74.4618 35.2351 74.2124 34.9677 73.9789 34.4469C73.9182 34.2046 73.894 33.9547 73.9071 33.7053C73.9549 33.5388 73.9975 33.3792 74.0406 33.2624C74.0838 33.1456 74.7037 32.603 74.9008 32.3339C75.0915 32.1086 75.3182 31.9164 75.5717 31.7651C76.0824 31.5454 76.5908 31.271 77.1028 31.0206C77.2215 30.9644 77.3526 30.94 77.4835 30.9495C77.9338 30.95 78.3725 30.8071 78.7362 30.5417C78.7766 30.4865 78.881 30.4887 78.8777 30.3485C78.8744 30.2082 79.9862 29.6019 80.1591 29.6119C80.601 29.6599 80.9955 29.5989 81.4268 29.618C81.4682 29.6483 81.4925 29.5282 81.6292 29.6601C81.8629 29.9055 81.9525 29.8121 82.0771 29.7867C82.2519 29.7415 82.4344 29.7341 82.6123 29.7652C82.7475 29.8293 82.8693 29.9184 82.9711 30.028C83.1088 30.2013 83.2032 30.4048 83.2465 30.6219C83.2416 30.7878 83.3856 30.9675 83.468 31.1445L83.5592 31.3385C83.4328 31.8026 83.2347 32.2441 82.972 32.647C82.972 32.647 81.7683 33.4511 81.6447 33.562C81.5211 33.6729 81.4654 33.5898 81.3711 33.5737C81.2769 33.5577 80.3779 34.2351 80.337 34.2476C80.0998 34.2965 79.9275 34.4883 79.6023 34.3244C79.5471 34.284 79.5048 34.3272 79.4588 34.3466C79.083 34.5103 78.6856 34.6191 78.2787 34.6697C78.077 34.7303 77.88 34.8058 77.6894 34.8954C77.6894 34.8954 77.6273 34.8499 77.5643 34.878C77.5137 34.8675 77.4617 34.8652 77.4103 34.8712C76.9612 35.0936 76.4205 35.0793 75.9626 35.2847C75.8537 35.3321 75.2071 35.1873 75.0761 35.2503C74.9451 35.3134 74.6419 34.9747 74.5982 35.0488Z" fill="#231F20"/>
<path d="M67.4284 33.6784C67.6624 33.6483 67.5689 33.9932 67.2602 34.5305C67.1064 34.7735 66.9176 34.9924 66.6997 35.1801C66.5519 35.2567 66.3982 35.3214 66.24 35.3736C66.1651 35.4035 65.3175 35.1857 65.0058 35.1482C64.7278 35.1058 64.462 35.0051 64.2257 34.8526C63.7469 34.5655 63.2446 34.325 62.7607 34.0448C62.6474 33.9804 62.5558 33.8838 62.4975 33.7673C62.2711 33.3895 61.927 33.0965 61.518 32.9334C61.4628 32.8929 61.4007 32.8475 61.2747 32.9036C61.1488 32.9598 60.0848 32.3715 60.0111 32.2116C59.8237 31.8305 59.6092 31.472 59.4149 31.0859C59.3735 31.0556 59.3252 31.0202 59.3546 30.8933C59.4619 30.5585 59.335 30.5291 59.2536 30.4377C59.1333 30.2966 59.0399 30.1348 58.9778 29.9601C58.9703 29.806 58.99 29.6518 59.0359 29.5044C59.1259 29.2981 59.2605 29.1143 59.43 28.9662C59.5872 28.848 59.7183 28.6985 59.8151 28.5273L59.9414 28.3548C60.3834 28.2259 60.8425 28.1653 61.3028 28.175L62.6817 28.7819C62.7438 28.8274 62.7875 28.9124 62.8193 28.9993C62.8511 29.0862 63.8483 29.5195 63.8828 29.5448C64.0369 29.7107 64.282 29.7524 64.2947 30.1115C64.2644 30.1529 64.3384 30.1965 64.4051 30.1923C64.7234 30.4149 65.0033 30.6879 65.2337 31.0006C65.3821 31.1303 65.5414 31.2469 65.7099 31.3492C65.7099 31.3492 65.7398 31.4242 65.7573 31.4582C65.7748 31.4922 65.7928 31.569 65.8273 31.5942C66.1662 31.9183 66.5312 32.2139 66.9186 32.4782C67.0083 32.5438 67.2473 33.1005 67.371 33.1487C67.4947 33.1969 67.3378 33.6862 67.4284 33.6784Z" fill="#231F20"/>
<path d="M64.5672 68.4639C62.8016 69.1957 61.0402 69.9942 59.3137 70.8608C58.6826 71.1725 58.1178 71.5964 57.4816 71.915L55.781 72.7898L54.1156 73.6163C52.9826 74.1647 51.8652 74.7351 50.7142 75.3659C49.7453 75.9072 48.8515 76.5778 47.9433 77.1955C46.8311 77.9181 45.6688 78.7526 44.4705 79.4334C44.0881 79.6516 43.8902 79.4007 43.8977 78.8549C43.9217 78.0894 44.1789 77.3494 44.6347 76.7338C46.5219 74.3896 48.8994 72.487 51.6002 71.1594C52.39 70.7222 53.1555 70.2423 53.8932 69.7218C54.6676 69.2289 55.4283 68.7258 56.2372 68.258C58.0036 67.2935 59.7843 66.3819 61.5962 65.5144C62.7003 64.9766 63.8477 64.4811 64.9624 63.9722C66.6797 63.205 68.4495 62.5398 70.2161 61.8935C71.5673 61.2842 72.9611 60.7743 74.3864 60.3678C74.7177 60.2859 75.0543 60.2277 75.3938 60.1937C76.6927 60.0848 77.1583 60.5636 77.3629 61.2541C77.4189 61.4111 77.4642 61.5718 77.4984 61.735C77.542 62.2545 77.0765 62.6875 76.3853 63.1248C74.3629 64.2941 72.1541 65.1679 69.8453 66.2652C68.1206 66.9846 66.3374 67.6824 64.5916 68.5029L64.5672 68.4639Z" fill="#231F20"/>
<path d="M76.173 66.5418C76.0961 66.4007 76.3347 66.321 76.714 66.2808C76.8953 66.2815 77.075 66.316 77.2437 66.3825C77.3437 66.4434 77.4384 66.5127 77.5267 66.5896C77.5681 66.62 77.7488 67.3142 77.8832 67.5504C77.9758 67.7528 78.0322 67.9698 78.0496 68.1917C78.123 68.6271 78.2153 69.0657 78.3195 69.5025C78.3317 69.6013 78.3264 69.7015 78.3041 69.7986C78.2035 70.1327 78.2264 70.4919 78.3687 70.8106C78.4101 70.8409 78.3872 70.9301 78.492 70.9751C78.5969 71.0201 78.9019 71.9643 78.8537 72.0881C78.7188 72.4027 78.6693 72.7163 78.5532 73.0341C78.5229 73.0755 78.585 73.121 78.4522 73.1721C78.1543 73.3038 78.2169 73.392 78.2147 73.4964C78.2049 73.6425 78.1595 73.784 78.0825 73.9085C77.986 74.0086 77.8722 74.0905 77.7466 74.1501C77.5433 74.2139 77.3311 74.2446 77.1181 74.2411C76.9635 74.1916 76.7557 74.2727 76.5695 74.2953C76.5044 74.3096 76.4381 74.3178 76.3714 74.3198C75.9951 74.1344 75.6542 73.8848 75.3639 73.582C75.3225 73.5517 75.1236 72.4626 75.0549 72.2957C74.9863 72.1289 75.0944 72.155 75.138 72.0809C75.1817 72.0069 74.9613 71.1352 74.9727 71.0906C75.0099 70.8952 74.9325 70.7113 75.1627 70.4983C75.1981 70.4499 75.2132 70.4292 75.2284 70.4085C75.2187 70.0724 75.2511 69.7365 75.3247 69.4084C75.3605 69.2438 75.3516 69.0677 75.3736 68.8929C75.3955 68.7182 75.414 68.8377 75.4342 68.8101C75.4682 68.7869 75.4931 68.7528 75.505 68.7135C75.5812 68.3083 75.6365 67.8994 75.6706 67.4885C75.6677 67.391 75.9383 66.9636 75.9336 66.8542C75.9289 66.7448 76.2061 66.5979 76.173 66.5418Z" fill="#231F20"/>
<path d="M80.1625 64.9156C79.9877 64.8937 80.0482 64.6518 80.2462 64.3091C80.35 64.1604 80.4823 64.0339 80.6354 63.9368C80.7539 63.9124 80.8736 63.8939 80.994 63.8814C81.0354 63.9117 81.7533 64.1618 82.0173 64.2067C82.2535 64.2623 82.48 64.3532 82.6893 64.4762C83.1161 64.7039 83.5632 64.9041 84.0103 65.1043C84.1115 65.1469 84.2013 65.2127 84.2725 65.2963C84.515 65.586 84.8422 65.7922 85.2081 65.8861C85.2755 65.9278 85.3605 65.9288 85.4288 65.8887C85.8527 65.9256 86.2587 66.0764 86.604 66.3251C86.8042 66.6308 87.048 66.8624 87.2602 67.1661C87.2947 67.1914 87.3361 67.2217 87.3219 67.328C87.2555 67.6503 87.3718 67.6507 87.4514 67.7302C87.5729 67.8287 87.6698 67.9541 87.7344 68.0965C87.7579 68.234 87.7589 68.3743 87.7375 68.5121C87.6762 68.7186 87.575 68.911 87.4395 69.0784C87.3139 69.2153 87.2199 69.3781 87.1644 69.5554L87.0481 69.7141C86.6384 69.8911 86.2019 69.9979 85.7568 70.0299C85.7264 70.0713 84.6014 69.5231 84.4606 69.4837C84.3199 69.4442 84.3617 69.3582 84.3249 69.2782C84.288 69.1982 83.3856 68.8236 83.3612 68.7846C83.1956 68.6633 83.03 68.542 82.9617 68.2588C82.9921 68.2174 82.8927 68.2083 82.8582 68.183C82.5706 67.958 82.3125 67.6978 82.0898 67.4083C81.938 67.2971 81.7931 67.191 81.6666 67.0454C81.6666 67.0454 81.6183 67.01 81.621 66.9484C81.6035 66.9054 81.5788 66.8657 81.5478 66.8312C81.1959 66.5735 80.9537 66.1947 80.583 65.9338C80.5001 65.8732 80.2773 65.3813 80.1876 65.3156C80.0978 65.25 80.2259 64.9303 80.1625 64.9156Z" fill="#231F20"/>
<path d="M78.5314 57.3713C78.6056 57.574 78.2622 57.6087 77.7324 57.507C77.4847 57.4436 77.2494 57.3393 77.036 57.1985C76.9282 57.0861 76.828 56.9666 76.736 56.841C76.6877 56.8056 76.5767 55.9293 76.4891 55.6001C76.4173 55.3289 76.3904 55.0478 76.4095 54.7679C76.5131 54.2501 76.572 53.7208 76.6618 53.1929C76.6759 53.0713 76.7265 52.9568 76.8068 52.8645C77.0606 52.5277 77.1851 52.1111 77.1578 51.6904C77.1932 51.6421 77.1922 51.5565 77.0868 51.4688C76.9815 51.381 77.0405 50.2581 77.1383 50.139C77.3809 49.8078 77.5467 49.4945 77.7621 49.1858C77.7975 49.1375 77.7524 49.0833 77.8733 49.034C78.2043 48.9584 78.1569 48.8494 78.1848 48.7533C78.2322 48.6066 78.3016 48.468 78.3906 48.3421C78.5086 48.2587 78.6351 48.1879 78.7679 48.1308C78.9802 48.0716 79.2019 48.054 79.4208 48.0789C79.5519 48.1749 79.7937 48.0763 79.9868 48.0587L80.1988 48.0443C80.5859 48.3744 80.9024 48.7792 81.1293 49.2346L81.1562 49.4874C81.185 49.6632 81.2001 49.8409 81.2016 50.019C81.2198 50.4139 81.2329 50.8158 81.2459 50.8995C81.2588 50.9831 81.1448 51.0375 81.0842 51.1203C81.0235 51.2031 81.108 52.3038 81.0896 52.3434C81.0015 52.5651 81.0642 52.8124 80.7479 52.9837C80.7075 53.0389 80.6873 53.0665 80.662 53.101C80.5862 53.4947 80.4509 53.8746 80.2609 54.2278C80.1982 54.4175 80.1484 54.6112 80.1119 54.8077C80.1119 54.8077 80.0614 54.8767 80.0361 54.9112C79.9946 54.9391 79.9642 54.9806 79.9502 55.0285C79.87 55.4999 79.548 55.9107 79.4508 56.3908C79.4316 56.5039 78.9436 56.9098 78.9455 57.0809C78.9475 57.2519 78.4946 57.2913 78.5314 57.3713Z" fill="#231F20"/>
<path d="M81.5856 60.1058C81.4491 60.2922 81.2025 59.9631 81.0319 59.4142C80.9865 59.1639 80.9841 58.9076 81.025 58.6564C81.1261 58.5184 81.1738 58.352 81.2408 58.2314C81.3079 58.1109 82.0557 57.6832 82.3181 57.4408C82.5579 57.2405 82.8288 57.0808 83.1201 56.968C83.7017 56.8108 84.2777 56.6177 84.8624 56.4417C84.9945 56.4023 85.1341 56.3955 85.2693 56.4216C85.7449 56.487 86.2292 56.4101 86.661 56.2004C86.7015 56.1452 86.8146 56.1645 86.8559 56.0357C86.8972 55.9069 88.1425 55.4513 88.3191 55.4852C88.7753 55.5861 89.196 55.5761 89.6434 55.66C89.6917 55.6953 89.7593 55.6176 89.8444 55.7329C90.0529 56.0128 90.1412 55.9502 90.2896 55.9212C90.4797 55.9053 90.6711 55.9234 90.8548 55.9746C90.9919 56.041 91.1158 56.1317 91.2205 56.2424C91.3319 56.4353 91.3949 56.6524 91.404 56.875C91.3613 57.0346 91.4851 57.2418 91.5437 57.4225L91.599 57.622C91.3735 58.0676 91.0765 58.4733 90.7197 58.8227C90.7197 58.8227 89.3191 59.4614 89.1403 59.5319C88.9615 59.6024 88.9573 59.5357 88.8561 59.5146C88.7549 59.4935 87.7056 60.029 87.6559 60.0245C87.403 60.0513 87.1893 60.2128 86.8756 60.0043C86.8204 59.9639 86.7694 59.9901 86.7234 60.0095C86.305 60.109 85.8749 60.1507 85.4452 60.1336C85.2256 60.1675 85.008 60.2134 84.7933 60.271C84.7933 60.271 84.7312 60.2255 84.6664 60.2417C84.6016 60.2578 84.5767 60.176 84.5036 60.2179C84.0007 60.369 83.4143 60.2577 82.9252 60.419C82.8006 60.4443 82.1461 60.2089 81.9926 60.2449C81.839 60.2809 81.6481 60.035 81.5856 60.1058Z" fill="#231F20"/>
<path d="M74.4651 57.6692C74.6789 57.6667 74.5095 57.9561 74.0909 58.4552C73.8935 58.6726 73.6705 58.8652 73.4269 59.0291C73.2695 59.0828 73.1081 59.1242 72.9442 59.1526C72.8605 59.1656 72.1076 58.8474 71.833 58.7736C71.5922 58.6975 71.3727 58.5658 71.1922 58.3892L70.0862 57.4096C70.0049 57.3323 69.9489 57.2321 69.9255 57.1223C69.8308 56.7495 69.5945 56.4282 69.2669 56.2266C69.2151 56.1659 69.1317 56.1425 69.0558 56.1674C68.8444 56.2246 68.1381 55.4954 68.1007 55.3726C68.0315 55.0039 67.9352 54.6577 67.8402 54.2808C67.8402 54.2808 67.7574 54.2201 67.8364 54.0978C68.0385 53.8217 67.9148 53.7735 67.8692 53.6765C67.7959 53.5431 67.7522 53.3954 67.7411 53.2435C67.7752 53.1024 67.8284 52.9665 67.899 52.8397C68.0396 52.6619 68.2111 52.511 68.4054 52.3942C68.5731 52.2948 68.7231 52.1682 68.8493 52.0197L68.9756 51.8471C69.4218 51.7862 69.8745 51.7925 70.3188 51.866L70.8294 52.2399C71.0916 52.4319 71.3538 52.624 71.409 52.6644C71.4643 52.7048 71.4671 52.8023 71.4731 52.8809C71.4791 52.9595 72.2667 53.462 72.2943 53.4823C72.3937 53.6505 72.6117 53.7147 72.5163 54.0477C72.4759 54.1029 72.5361 54.1364 72.5637 54.1566C72.7897 54.406 72.9707 54.6928 73.0986 55.0041C73.1852 55.1498 73.2903 55.2837 73.4111 55.4026C73.4111 55.4026 73.4171 55.4812 73.4227 55.5171C73.4282 55.5529 73.4255 55.6145 73.448 55.6416C73.6633 55.9782 73.9146 56.2903 74.1977 56.5722C74.2736 56.6278 74.3259 57.1644 74.4207 57.2232C74.5154 57.282 74.3745 57.677 74.4651 57.6692Z" fill="#231F20"/>
</svg>
