<svg width="300" height="307" viewBox="0 0 300 307" fill="none" xmlns="http://www.w3.org/2000/svg">
<rect width="300" height="307" rx="77" fill="#FCF6CA"/>
<path d="M90.9042 203.569H209.096C214.013 203.569 218 208.487 218 212.474V218.736C218 223.653 214.013 227.64 209.096 227.64H90.9042C85.9866 227.64 82 222.722 82 218.736V212.474C82 207.556 85.9866 203.569 90.9042 203.569Z" fill="#FFCF0F"/>
<path d="M167.697 79.36H132.315C127.501 79.36 123.411 83.2151 123.411 88.2642V115.221C123.411 120.035 119.556 124.125 114.507 124.125H102.951C95.0059 124.125 91.1604 133.753 96.9335 139.292L143.626 184.301C146.992 187.667 152.53 187.667 155.906 184.301L202.598 139.292C208.371 133.753 204.525 124.125 196.58 124.125H185.024C180.21 124.125 176.12 120.27 176.12 115.221V88.2642C176.12 83.4501 172.265 79.36 167.216 79.36H167.697Z" fill="#FFCF0F"/>
</svg>
