<svg width="300" height="307" viewBox="0 0 300 307" fill="none" xmlns="http://www.w3.org/2000/svg">
<rect width="300" height="307" rx="77" fill="#FCF6CA"/>
<path d="M107.51 221.5H82V195.987C82 193.092 83.1489 190.317 85.1983 188.27L157.122 116.347L187.153 146.379L115.23 218.302C113.183 220.349 110.405 221.5 107.513 221.5H107.51Z" fill="#FFCF0F"/>
<path d="M197.397 94.9301L208.57 106.103C213.774 111.307 213.774 119.759 208.57 124.963L193.974 139.559L163.941 109.526L178.537 94.9301C183.741 89.7258 192.193 89.7258 197.397 94.9301Z" fill="#FFCF0F"/>
<path d="M54.7679 271.897C59.4634 270.483 63.9445 268.436 68.0877 265.812L81.7382 257.479C85.0185 255.456 88.3518 253.18 91.4867 251.249C92.8094 250.39 94.3702 249.345 95.9046 248.392C97.4943 247.412 99.1419 246.528 100.838 245.747C101.72 245.332 102.633 244.949 103.576 244.596C104.793 244.136 106.058 243.812 107.346 243.63C108.67 243.424 110.022 243.501 111.314 243.855L112.253 244.12C112.565 244.215 112.857 244.368 113.113 244.57C113.616 244.944 114.061 245.39 114.436 245.892C114.831 246.35 115.132 246.88 115.322 247.453C115.448 248.027 115.514 248.612 115.521 249.199C115.424 250.469 115.111 251.712 114.595 252.876C114.33 253.485 114.079 254.12 113.788 254.688L113.378 255.495L113.073 256.077L111.843 258.326L111.023 259.794C110.834 260.125 110.67 260.47 110.534 260.826C110.352 261.181 110.305 261.59 110.402 261.977C110.615 262.301 110.995 262.475 111.38 262.426C111.736 262.415 112.091 262.371 112.439 262.294L112.968 262.162L113.722 261.924L114.489 261.686L115.494 261.328C116.182 261.077 116.817 260.826 117.544 260.535C120.282 259.411 122.981 258.075 125.666 256.725C129.132 254.854 132.695 253.167 136.34 251.673C140.096 250.103 144.099 249.207 148.165 249.027C150.811 249.027 150.321 249.953 148.43 251.13L146.776 252.122C146.142 252.479 145.454 252.85 144.7 253.3C143.205 254.106 141.512 255.112 139.594 255.945L137.041 257.268C136.195 257.717 135.361 258.154 134.488 258.59C132.769 259.463 131.063 260.376 129.303 261.315C125.726 263.281 122.044 265.047 118.272 266.606L116.79 267.188C116.592 267.267 116.116 267.413 115.785 267.519L114.767 267.929L113.669 268.273L113.126 268.445L112.439 268.577C111.575 268.807 110.687 268.936 109.793 268.961C109.001 269.018 108.205 268.942 107.439 268.736C106.766 268.513 106.133 268.187 105.56 267.77C105.267 267.532 104.988 267.276 104.727 267.003C104.499 266.7 104.3 266.377 104.132 266.037C103.807 265.396 103.626 264.692 103.603 263.974C103.577 262.317 103.954 260.678 104.701 259.199C105.045 258.392 105.547 257.479 105.904 256.805L106.777 255.31L108.285 252.77C108.451 252.554 108.606 252.329 108.748 252.096C108.974 251.783 109.051 251.386 108.96 251.011C108.464 250.568 107.753 250.459 107.148 250.733L106.857 250.826C106.654 250.899 106.455 250.982 106.261 251.077C105.851 251.249 105.441 251.448 105.018 251.659C104.198 252.096 103.351 252.585 102.518 253.114C100.865 254.186 99.1717 255.31 97.4521 256.553L96.1294 257.493L94.7141 258.418L92.0687 260.138L78.2859 268.683L71.4077 272.942C69.0401 274.344 66.6062 275.72 64.0402 276.91C60.8219 278.488 57.4046 279.623 53.8817 280.283C52.0105 280.623 50.1056 280.738 48.2072 280.627C47.0355 280.54 45.8843 280.273 44.7945 279.833C43.6662 279.357 42.6651 278.623 41.8713 277.691C41.2903 276.978 40.8423 276.167 40.5486 275.296C40.2584 274.441 40.0805 273.552 40.0195 272.651C39.9472 271.159 40.0762 269.664 40.4031 268.207C41.0203 265.583 41.9068 263.03 43.0486 260.588C45.1695 255.869 47.7386 251.364 50.7203 247.136C53.0219 243.882 55.4689 240.8 58.0085 237.877C59.3313 236.408 60.5746 234.94 61.8974 233.525C63.2201 232.11 64.5428 230.76 65.9978 229.411C67.4528 228.062 68.3919 227.043 69.6617 225.919C74.3574 221.7 76.1828 220.787 78.2727 221.038C78.7406 221.054 79.2058 221.116 79.6615 221.224C80.2964 221.448 80.3097 222.189 79.807 223.327C79.0045 224.95 77.9757 226.45 76.7515 227.784L63.1936 243.353C58.7821 248.398 55.0388 253.991 52.0563 259.993C50.9847 262.174 50.0569 264.423 49.2786 266.725C48.9313 267.744 48.6616 268.787 48.4717 269.847C48.3214 270.595 48.2548 271.359 48.2733 272.122C48.2733 272.201 48.2733 272.122 48.2733 272.241C48.2733 272.36 48.2733 272.241 48.2733 272.241H48.3527C48.3527 272.241 48.3527 272.241 48.432 272.241H48.6834C49.6092 272.323 50.5414 272.296 51.4611 272.162C52.5426 272.025 53.6125 271.808 54.6621 271.513L54.7679 271.897Z" fill="#231F20"/>
</svg>
