<svg width="300" height="307" viewBox="0 0 300 307" fill="none" xmlns="http://www.w3.org/2000/svg">
<rect y="0.000183105" width="300" height="307" rx="77" fill="#FCF6CA"/>
<path d="M187.785 66.5002H111.215C108.109 66.5053 105.133 67.6374 102.937 69.6485C100.742 71.6596 99.5056 74.3857 99.5 77.2298V105.771C99.5 108.616 100.734 111.345 102.931 113.358C105.128 115.37 108.108 116.5 111.215 116.5H187.785C190.892 116.5 193.872 115.37 196.069 113.358C198.266 111.345 199.5 108.616 199.5 105.771V77.2298C199.494 74.3857 198.258 71.6596 196.063 69.6485C193.867 67.6374 190.891 66.5053 187.785 66.5002Z" fill="#FFCF0F"/>
<path d="M187.785 128.5H111.215C108.109 128.505 105.133 129.637 102.937 131.649C100.742 133.66 99.5056 136.386 99.5 139.23V167.771C99.5 170.616 100.734 173.345 102.931 175.358C105.128 177.37 108.108 178.5 111.215 178.5H187.785C190.892 178.5 193.872 177.37 196.069 175.358C198.266 173.345 199.5 170.616 199.5 167.771V139.23C199.494 136.386 198.258 133.66 196.063 131.649C193.867 129.637 190.891 128.505 187.785 128.5Z" fill="#FFCF0F"/>
<path d="M187.785 190.5H111.215C108.109 190.505 105.133 191.637 102.937 193.649C100.742 195.66 99.5056 198.386 99.5 201.23V229.771C99.5 232.616 100.734 235.345 102.931 237.358C105.128 239.37 108.108 240.5 111.215 240.5H187.785C190.892 240.5 193.872 239.37 196.069 237.358C198.266 235.345 199.5 232.616 199.5 229.771V201.23C199.494 198.386 198.258 195.66 196.063 193.649C193.867 191.637 190.891 190.505 187.785 190.5Z" fill="#FFCF0F"/>
<path d="M225.998 160.061C225.484 160.784 224.661 161.225 223.774 161.252C222.78 161.293 221.791 161.098 220.887 160.683C220.233 160.409 219.369 158.87 219.622 158.385C220.096 157.447 220.56 156.52 221.118 155.666C221.213 155.571 221.635 155.045 222.267 154.349L223.342 153.148L224.501 151.672C225.334 150.671 226.04 149.48 226.725 148.479C227.41 147.478 227.853 146.466 228.2 145.844C229.433 143.304 230.645 140.891 231.973 138.488C232.679 137.297 233.185 135.991 233.786 134.737C234.387 133.482 234.766 132.155 235.145 130.89C236.015 128.225 236.685 125.498 237.148 122.733C237.327 121.5 237.664 120.299 237.97 119.066C239.047 114.842 239.212 110.438 238.455 106.145C238.46 105.411 238.263 104.689 237.885 104.059C237.506 103.553 236.958 100.412 236.031 97.356C235.103 94.2998 233.955 91.2541 233.754 90.527C232.775 86.8556 231.213 83.3651 229.128 80.1886C228.854 79.7038 228.337 79.3982 228.295 78.7658C228.23 78.1218 227.993 77.5069 227.61 76.9848C227.189 76.5633 226.757 76.1312 226.409 75.6359C225.344 74.2975 224.08 73.2014 222.994 71.7787C222.444 71.0506 221.937 70.2905 221.477 69.5024C221.325 69.275 221.31 68.9826 221.437 68.7407C221.565 68.4988 221.815 68.3462 222.088 68.3431C222.931 68.5328 222.626 67.8057 222.752 67.4263C222.797 67.2935 222.868 67.1715 222.963 67.0679C223.564 67.1872 224.155 67.3492 224.733 67.5527C226.047 67.9245 227.327 68.4075 228.559 68.9965C229.881 69.5938 231.172 70.2586 232.426 70.9883C233.151 71.4159 233.829 71.9174 234.45 72.4848C234.503 72.5375 235.356 73.2436 236.442 74.4766C237.021 75.0562 237.643 75.7834 238.349 76.5527C239.055 77.322 239.677 78.2178 240.373 79.082C242.402 81.7836 244.22 84.6375 245.811 87.6183C246.282 88.5059 246.596 89.4687 246.738 90.4637C246.812 90.5375 247.149 91.4227 247.686 92.6558C248.224 93.8888 248.846 95.5012 249.33 97.1663L250.184 99.5586L250.743 101.761C250.967 102.541 251.147 103.332 251.28 104.132C251.417 105.513 251.712 106.883 251.723 108.285C251.838 109.684 251.688 111.093 251.28 112.437C251.156 112.983 251.12 113.545 251.175 114.102C251.134 118.836 250.425 123.541 249.067 128.076L248.14 131.554C247.855 132.724 247.486 133.872 247.086 135.011C246.915 135.415 246.714 135.806 246.485 136.18C246.2 136.653 245.943 137.142 245.716 137.645C243.557 142.949 240.635 147.909 237.042 152.368C236.002 153.441 234.886 154.438 233.702 155.35L231.531 157.036C231.018 157.395 230.525 157.782 230.055 158.196C229.419 158.61 228.727 158.933 228 159.155C227.278 159.317 226.596 159.625 225.998 160.061Z" fill="#231F20"/>
<path d="M74.1467 139.616C74.6513 138.899 75.469 138.469 76.3556 138.453C77.3493 138.425 78.3414 138.632 79.251 139.059C79.908 139.341 80.7918 140.891 80.545 141.373C80.0825 142.305 79.6305 143.227 79.0826 144.073C78.989 144.167 78.574 144.689 77.9504 145.376L76.8905 146.564L75.7497 148.025C74.9297 149.016 74.2386 150.198 73.5662 151.191C72.8937 152.184 72.4638 153.19 72.1239 153.807C70.9228 156.332 69.7412 158.73 68.4436 161.117C67.7524 162.299 67.2631 163.6 66.6781 164.846C66.0932 166.093 65.7306 167.416 65.3672 168.676C64.5308 171.331 63.8959 174.05 63.4678 176.809C63.3043 178.04 62.9822 179.238 62.6921 180.467C61.6686 184.678 61.5591 189.081 62.371 193.384C62.3753 194.118 62.5813 194.843 62.9666 195.478C63.3525 195.989 63.9404 199.137 64.9067 202.205C65.873 205.274 67.0605 208.334 67.27 209.064C68.2962 212.749 69.9027 216.26 72.0283 219.463C72.3085 219.952 72.8289 220.264 72.8791 220.897C72.953 221.542 73.1973 222.16 73.5868 222.687C74.0138 223.114 74.4514 223.551 74.8055 224.051C75.8871 225.403 77.1658 226.516 78.2695 227.952C78.8293 228.688 79.3457 229.454 79.8162 230.248C79.9711 230.478 79.99 230.77 79.8655 231.011C79.741 231.251 79.493 231.4 79.2196 231.4C78.3739 231.2 78.6888 231.931 78.5671 232.309C78.524 232.441 78.4538 232.562 78.3608 232.664C77.7583 232.537 77.1645 232.368 76.5839 232.157C75.2651 231.769 73.9789 231.269 72.7394 230.664C71.4091 230.05 70.1095 229.369 68.8457 228.623C68.1158 228.186 67.4313 227.676 66.803 227.101C66.7496 227.048 65.8869 226.331 64.7856 225.084C64.1985 224.496 63.5674 223.761 62.8514 222.983C62.1355 222.204 61.5022 221.301 60.7956 220.427C58.7319 217.7 56.8774 214.822 55.2485 211.821C54.7655 210.927 54.4394 209.96 54.2849 208.963C54.2101 208.888 53.8616 207.999 53.3084 206.759C52.7552 205.518 52.1129 203.898 51.6069 202.226L50.7228 199.823L50.1363 197.613C49.9016 196.83 49.7121 196.036 49.5687 195.234C49.4141 193.852 49.1016 192.478 49.0733 191.076C48.9403 189.674 49.0726 188.267 49.4634 186.928C49.581 186.384 49.6095 185.822 49.5477 185.264C49.528 180.53 50.1781 175.833 51.4787 171.314L52.3622 167.848C52.632 166.681 52.9864 165.537 53.3725 164.404C53.538 164.001 53.7339 163.613 53.9585 163.241C54.2379 162.772 54.4886 162.286 54.7094 161.786C56.8017 156.509 59.6613 151.585 63.1977 147.171C64.2242 146.11 65.3283 145.127 66.5012 144.23L68.6512 142.571C69.1595 142.218 69.6473 141.838 70.1122 141.43C70.7435 141.023 71.4314 140.709 72.1555 140.497C72.876 140.344 73.5537 140.044 74.1467 139.616Z" fill="#231F20"/>
</svg>
