<svg width="300" height="307" viewBox="0 0 300 307" fill="none" xmlns="http://www.w3.org/2000/svg">
<rect width="300" height="307" rx="77" fill="#FCF6CA"/>
<g clip-path="url(#clip0_2105_16530)">
<path d="M150 153.5C150 123.287 195.335 123.287 195.335 153.5C195.335 183.713 150 183.713 150 153.5ZM104.665 198.835C104.665 186.306 114.802 176.169 127.331 176.169H149.996V198.835C149.996 229.048 104.661 229.048 104.661 198.835H104.665ZM150 85.5V130.835H172.665C202.879 130.835 202.879 85.5 172.665 85.5H150ZM104.665 108.165C104.665 120.694 114.802 130.83 127.331 130.83H149.996V85.4957H127.331C114.802 85.4957 104.665 95.632 104.665 108.161V108.165ZM104.665 153.5C104.665 166.029 114.802 176.169 127.331 176.169H149.996V130.83H127.331C114.802 130.83 104.665 140.971 104.665 153.5Z" fill="#FFCF0F"/>
</g>
<defs>
<clipPath id="clip0_2105_16530">
<rect width="136" height="136" fill="white" transform="translate(82 85.5)"/>
</clipPath>
</defs>
</svg>
