<svg width="300" height="307" viewBox="0 0 300 307" fill="none" xmlns="http://www.w3.org/2000/svg">
<rect width="300" height="307" rx="77" fill="#FCF6CA"/>
<path d="M149.586 74.7C148.96 74.6977 148.34 74.8152 147.761 75.046C147.182 75.2768 146.655 75.6163 146.211 76.0451C145.766 76.4739 145.413 76.9836 145.172 77.5451C144.93 78.1067 144.804 78.709 144.802 79.3178V104.879C144.799 105.49 144.921 106.097 145.161 106.662C145.4 107.228 145.753 107.742 146.197 108.175C146.642 108.607 147.171 108.95 147.752 109.183C148.334 109.416 148.957 109.535 149.586 109.532C150.212 109.531 150.832 109.41 151.411 109.175C151.989 108.941 152.514 108.597 152.956 108.165C153.398 107.733 153.747 107.22 153.985 106.656C154.223 106.092 154.344 105.488 154.342 104.879V79.3178C154.337 78.093 153.834 76.9199 152.943 76.0547C152.052 75.1894 150.845 74.7024 149.586 74.7ZM93.3049 93.6872C92.6769 93.6873 92.0552 93.8081 91.4753 94.0428C90.8955 94.2774 90.3691 94.6212 89.9263 95.0544C89.0386 95.9231 88.5403 97.0982 88.5403 98.3231C88.5403 99.548 89.0386 100.723 89.9263 101.592L108.504 119.701C108.946 120.134 109.473 120.477 110.053 120.712C110.632 120.946 111.254 121.067 111.882 121.067C112.51 121.067 113.132 120.946 113.712 120.712C114.291 120.477 114.818 120.134 115.261 119.701C115.706 119.27 116.059 118.758 116.3 118.194C116.541 117.63 116.665 117.025 116.665 116.414C116.665 115.803 116.541 115.198 116.3 114.634C116.059 114.07 115.706 113.558 115.261 113.127L96.6462 95.0544C95.761 94.1883 94.5603 93.697 93.3049 93.6872ZM129.529 128.764C128.778 128.736 128.031 128.88 127.348 129.186C126.666 129.492 126.067 129.951 125.602 130.525C125.136 131.098 124.817 131.771 124.669 132.488C124.522 133.205 124.551 133.946 124.754 134.65L151.522 228.897C151.77 229.774 152.279 230.56 152.983 231.158C153.687 231.755 154.557 232.138 155.483 232.259C156.41 232.38 157.352 232.233 158.194 231.836C159.035 231.439 159.738 230.811 160.215 230.029L175.972 203.952L197.779 225.167C198.671 226.03 199.879 226.515 201.138 226.515C202.398 226.515 203.605 226.03 204.498 225.167L223.671 206.515C224.559 205.646 225.057 204.471 225.057 203.246C225.057 202.021 224.559 200.846 223.671 199.977L201.65 178.554L228.595 163.47C229.412 163.016 230.072 162.337 230.493 161.518C230.914 160.7 231.076 159.778 230.96 158.87C230.843 157.962 230.453 157.108 229.839 156.415C229.224 155.722 228.412 155.222 227.506 154.977L130.627 128.936C130.269 128.837 129.9 128.78 129.529 128.764ZM73.7504 148.439C73.1246 148.442 72.5054 148.564 71.9282 148.799C71.351 149.034 70.827 149.378 70.3863 149.81C69.9455 150.242 69.5965 150.755 69.3593 151.318C69.1221 151.881 69.0013 152.485 69.0037 153.093C69.0061 154.318 69.5067 155.492 70.3961 156.359C71.2855 157.226 72.4914 157.715 73.7504 157.72H100.025C100.651 157.723 101.272 157.605 101.852 157.373C102.432 157.142 102.959 156.802 103.403 156.372C103.847 155.942 104.2 155.431 104.441 154.869C104.683 154.306 104.807 153.703 104.809 153.093C104.811 152.482 104.689 151.875 104.449 151.31C104.21 150.744 103.858 150.23 103.413 149.797C102.968 149.365 102.44 149.022 101.858 148.789C101.277 148.556 100.654 148.437 100.025 148.439H73.7504Z" fill="#FFCF0F"/>
<path d="M106.941 148.66C107.607 148.41 108.353 148.489 108.951 148.875C109.639 149.35 110.242 149.936 110.737 150.609C111.141 151.121 111.351 152.749 110.923 153.022C110.119 153.561 109.272 154.034 108.391 154.435C107.843 154.702 99.7748 155.752 97.0685 156.155C94.4434 156.51 91.7976 156.69 89.1485 156.696C83.7537 156.746 78.4326 156.908 73.0749 156.935C71.881 156.902 70.6909 156.784 69.5141 156.58C65.4722 155.993 61.3841 155.787 57.3037 155.964C56.6174 155.914 55.9285 156.015 55.286 156.262C54.1893 156.797 43.1018 156.594 41.6443 156.312C38.1116 155.533 34.5575 154.987 31.01 154.25C30.497 154.153 29.949 154.26 29.5466 153.839C28.6462 153.078 27.5107 152.651 26.332 152.63C24.8048 152.385 23.2992 152.02 21.8292 151.539C21.0601 151.175 20.3451 150.706 19.7043 150.146C19.0836 149.661 19.6504 148.319 19.8714 148.242C20.5988 147.882 20.1316 147.178 20.1057 146.64C20.1021 146.441 20.1249 146.243 20.1737 146.05C21.6426 145.497 23.1551 145.067 24.6954 144.764C26.409 144.277 28.1583 143.925 29.9272 143.711C29.9272 143.711 30.8129 143.743 32.0588 143.77L36.6181 143.852C39.9908 143.899 43.5277 143.896 44.2457 143.868C45.0114 143.888 45.7692 144.028 46.4912 144.284C46.8328 144.372 57.0045 144.216 57.4115 144.267C59.5313 144.225 61.6443 144.52 63.6715 145.142C64.0794 145.284 64.513 145.336 64.943 145.297C68.5575 145.354 72.1611 145.814 75.77 146.152C77.6152 146.327 79.4731 146.279 81.3172 146.364C81.656 146.411 81.9919 146.476 82.3234 146.561C82.733 146.664 83.1504 146.734 83.5714 146.768C87.9569 146.821 92.3191 147.338 96.6904 147.112C97.696 147.059 102.493 147.934 103.64 147.813C104.264 147.746 106.396 148.877 106.941 148.66Z" fill="#231F20"/>
<path d="M119.784 119.862C120.572 120.577 120.889 121.675 120.604 122.7C120.543 123.098 119.824 123.701 119.509 123.573C118.9 123.339 118.277 123.109 117.696 122.823C117.365 122.64 112.693 119.086 110.987 117.997C110.168 117.443 109.39 116.878 108.631 116.277C107.872 115.677 107.232 114.983 106.596 114.303L98.3835 106.149C97.7824 105.538 97.2414 104.871 96.7681 104.156C95.0958 101.742 93.1664 99.5156 91.0137 97.5174C90.7156 97.1077 90.3044 96.794 89.8305 96.6148C88.9546 96.3701 83.6642 90.4758 83.1224 89.5635C82.4833 88.4159 81.8019 87.3243 81.1166 86.2193C80.4312 85.1143 79.8288 83.9414 79.18 82.8112C79.0013 82.4968 78.6722 82.2698 78.719 81.7731C78.7278 80.9093 78.3717 80.0818 77.7384 79.4942C77.0748 78.6057 76.4686 77.6756 75.9236 76.7098C75.6959 76.1358 75.5466 75.5339 75.4796 74.9201C75.3234 74.3796 76.2936 73.8357 76.4966 73.8795C77.0786 74.0188 77.1578 73.381 77.4428 73.0497C77.5417 72.9295 77.652 72.8192 77.7722 72.7203C80.0843 73.715 82.3253 74.8677 84.4791 76.1702L88.3218 79.335C90.1315 81.0375 92.0052 82.8094 92.3559 83.1619C92.7515 83.5613 93.0705 84.0299 93.2971 84.5443C93.3674 84.7876 98.885 89.7963 99.0577 90.0393C100.215 91.0908 101.098 92.4085 101.631 93.8783C101.738 94.1741 101.915 94.4394 102.147 94.6515C103.844 96.6742 105.432 98.7862 106.904 100.978C107.688 102.07 108.614 103.046 109.458 104.091C109.589 104.303 109.707 104.523 109.809 104.751C109.941 105.028 110.101 105.291 110.285 105.536C112.323 107.977 114.205 110.538 116.197 113.022C116.641 113.596 118.26 116.818 118.832 117.429C119.088 117.809 119.458 119.547 119.784 119.862Z" fill="#231F20"/>
<path d="M153.412 112.333C153.903 113.299 153.079 114.209 151.547 115.104C151.052 115.383 149.509 115.473 149.26 115.197C148.77 114.697 148.32 114.16 147.916 113.588C147.734 113.246 146.105 107.713 145.646 105.808C145.214 103.985 144.955 102.124 144.871 100.251C144.652 96.4834 144.443 92.6889 144.224 88.921C144.191 88.0801 144.245 87.238 144.385 86.4082C144.811 83.5488 144.883 80.6477 144.599 77.7707C144.638 77.2783 144.542 76.7846 144.322 76.3423C143.821 75.5806 143.687 67.8498 143.902 66.8539C144.455 64.3687 144.709 61.8873 145.2 59.4108C145.316 59.0641 145.152 58.6679 145.553 58.3574C146.137 57.7503 146.418 56.9136 146.319 56.0773C146.393 55.0014 146.549 53.9327 146.784 52.8802C147 52.3026 147.311 51.7651 147.703 51.2898C148.025 50.819 149.265 51.0574 149.336 51.1999C149.726 51.6723 150.261 51.2731 150.808 51.2342C150.979 51.2086 151.152 51.197 151.324 51.1998C152.42 53.383 153.303 55.6669 153.961 58.0197C153.961 58.0197 154.044 58.656 154.126 59.5591C154.209 60.4622 154.326 61.6145 154.426 62.8201C154.617 65.2135 154.816 67.7137 154.886 68.212C154.912 68.7551 154.836 69.2983 154.66 69.8128C154.575 70.0662 155.289 77.22 155.289 77.4424C155.438 78.9391 155.274 80.4505 154.808 81.8804C154.71 82.1633 154.685 82.466 154.734 82.761C154.792 85.2953 154.718 87.8309 154.513 90.3576C154.466 91.6474 154.583 92.9332 154.692 94.2455C154.668 94.4862 154.623 94.7243 154.557 94.9569C154.481 95.2443 154.441 95.5401 154.439 95.8374C154.624 98.8668 154.386 101.962 154.869 104.988C155.019 105.691 154.291 109.096 154.404 109.906C154.252 110.36 153.204 111.936 153.412 112.333Z" fill="#231F20"/>
</svg>
