<svg width="61" height="60" viewBox="0 0 61 60" fill="none" xmlns="http://www.w3.org/2000/svg">
<g id="calendar-grid--Streamline-Freehand" clip-path="url(#clip0_2270_13482)">
<g id="Group">
<path id="Vector" d="M29.225 28.35C28.25 27.525 28.25 26.925 25.525 26.95C24.5115 27.0999 23.5657 27.5487 22.8087 28.2389C22.0516 28.9292 21.5176 29.8296 21.275 30.825C21.0489 31.5733 21.0545 32.3725 21.291 33.1176C21.5275 33.8628 21.9838 34.5189 22.6 35C23.4621 35.4877 24.4465 35.7164 25.4354 35.6587C26.4242 35.6011 27.3754 35.2595 28.175 34.675C29.0259 34.191 29.6886 33.4341 30.0561 32.5268C30.4236 31.6194 30.4743 30.6147 30.2 29.675C29.9883 29.1602 29.6535 28.7052 29.225 28.35ZM26.725 32.625C26.3442 32.909 25.8903 33.0787 25.4166 33.1141C24.9428 33.1495 24.4688 33.0492 24.05 32.825C23.425 32.425 23.525 31.575 23.775 30.825C24.025 30.075 24.7 28.875 25.55 28.725C25.9462 28.677 26.3481 28.7246 26.7222 28.8638C27.0962 29.003 27.4315 29.2297 27.7 29.525C27.9488 29.7409 28.1237 30.0294 28.2 30.35C28.55 31.325 27.725 32.125 26.825 32.625H26.725Z" fill="black"/>
<path id="Vector_2" d="M14.425 41.4499C13.45 40.6249 13.45 40.0249 10.7 40.0499C9.691 40.2044 8.75069 40.6553 7.99844 41.3452C7.24619 42.0351 6.71592 42.9331 6.47498 43.9249C6.22655 44.687 6.22058 45.5074 6.45788 46.2731C6.69519 47.0387 7.16409 47.7119 7.79998 48.1999C8.66209 48.6876 9.64654 48.9163 10.6354 48.8587C11.6242 48.8011 12.5754 48.4595 13.375 47.8749C14.2259 47.3909 14.8886 46.6341 15.2561 45.7267C15.6236 44.8194 15.6743 43.8147 15.4 42.8749C15.203 42.324 14.8672 41.8331 14.425 41.4499ZM11.925 45.7249C11.5442 46.009 11.0903 46.1787 10.6166 46.2141C10.1428 46.2495 9.66878 46.1492 9.24998 45.9249C8.62498 45.5249 8.72498 44.6749 8.97498 43.9249C9.22498 43.1749 9.87498 41.9749 10.75 41.8249C11.1422 41.7811 11.5392 41.8307 11.9085 41.9698C12.2779 42.1088 12.6091 42.3333 12.875 42.6249C13.1305 42.8395 13.3138 43.1276 13.4 43.4499C13.75 44.4249 13 45.2249 12.025 45.7249H11.925Z" fill="black"/>
<path id="Vector_3" d="M42.425 28.025C41.4 27.15 41.4 26.6 38.7 26.6C37.6878 26.7562 36.7451 27.2108 35.9925 27.9055C35.2399 28.6001 34.7116 29.5035 34.475 30.5C34.2285 31.2584 34.2236 32.0746 34.4609 32.8359C34.6983 33.5972 35.1662 34.266 35.8 34.75C36.6561 35.2566 37.644 35.4962 38.6371 35.4383C39.6302 35.3804 40.5835 35.0276 41.375 34.425C42.2259 33.941 42.8886 33.1841 43.2561 32.2768C43.6236 31.3694 43.6743 30.3647 43.4 29.425C43.2033 28.8809 42.8671 28.3981 42.425 28.025ZM39.925 32.3C39.5442 32.584 39.0903 32.7537 38.6166 32.7891C38.1428 32.8245 37.6688 32.7242 37.25 32.5C36.625 32.1 36.725 31.225 36.975 30.475C37.225 29.725 37.875 28.525 38.75 28.4C39.3228 28.3059 39.9106 28.4141 40.4123 28.7061C40.9141 28.998 41.2987 29.4555 41.5 30C41.75 31 40.925 31.775 40.025 32.3H39.925Z" fill="black"/>
<path id="Vector_4" d="M27.625 41.125C26.65 40.3 26.65 39.7 23.9 39.7C22.88 39.8362 21.9269 40.2839 21.1708 40.9819C20.4147 41.6799 19.8923 42.5941 19.675 43.6C19.4247 44.358 19.4179 45.1754 19.6555 45.9376C19.8931 46.6997 20.3632 47.3684 21 47.8499C21.8586 48.353 22.8478 48.5884 23.8409 48.5261C24.8341 48.4637 25.786 48.1064 26.575 47.5C27.4259 47.0159 28.0887 46.2591 28.4561 45.3518C28.8236 44.4444 28.8743 43.4397 28.6 42.5C28.3995 41.9649 28.0635 41.4912 27.625 41.125ZM25.125 45.4C24.7442 45.684 24.2903 45.8537 23.8166 45.8891C23.3428 45.9245 22.8688 45.8242 22.45 45.6C21.8 45.2 21.925 44.325 22.175 43.575C22.425 42.825 23.075 41.625 23.95 41.5C24.3402 41.453 24.7359 41.4987 25.1051 41.6334C25.4744 41.768 25.8066 41.9878 26.075 42.275C26.3305 42.4895 26.5138 42.7776 26.6 43.1C26.925 44.1 26.125 45 25.225 45.4H25.125Z" fill="black"/>
<path id="Vector_5" d="M53.75 28.275C52.775 27.425 52.75 26.85 50.025 26.85C49.005 26.9863 48.0519 27.4339 47.2958 28.1319C46.5397 28.8299 46.0173 29.7442 45.8 30.75C45.5497 31.5081 45.5429 32.3254 45.7805 33.0876C46.0181 33.8497 46.4882 34.5184 47.125 35C47.9811 35.5066 48.969 35.7462 49.9621 35.6883C50.9552 35.6304 51.9085 35.2776 52.7 34.675C53.5509 34.191 54.2137 33.4341 54.5811 32.5268C54.9486 31.6194 54.9993 30.6147 54.725 29.675C54.5283 29.1309 54.1921 28.6481 53.75 28.275ZM51.25 32.55C50.8692 32.834 50.4153 33.0037 49.9416 33.0391C49.4678 33.0745 48.9938 32.9743 48.575 32.75C47.925 32.35 48.05 31.475 48.3 30.725C48.55 29.975 49.2 28.775 50.075 28.65C50.6322 28.5803 51.1967 28.7002 51.6774 28.9905C52.1581 29.2807 52.5272 29.7244 52.725 30.25C53 31.25 52.25 32.025 51.35 32.5L51.25 32.55Z" fill="black"/>
<path id="Vector_6" d="M36.875 39.9999C35.866 40.1544 34.9257 40.6052 34.1735 41.2952C33.4212 41.9851 32.8909 42.883 32.65 43.8749C32.4016 44.637 32.3956 45.4574 32.6329 46.2231C32.8702 46.9887 33.3391 47.6619 33.975 48.1499C34.8389 48.6316 35.8224 48.8569 36.8098 48.7993C37.7973 48.7417 38.7479 48.4037 39.55 47.8249C40.4009 47.3409 41.0637 46.5841 41.4311 45.6767C41.7986 44.7694 41.8493 43.7646 41.575 42.8249C41.1858 41.9214 40.5229 41.1627 39.6797 40.6559C38.8365 40.1491 37.8555 39.9197 36.875 39.9999ZM38.2 45.6749C37.8192 45.959 37.3653 46.1287 36.8916 46.1641C36.4178 46.1995 35.9438 46.0992 35.525 45.8749C34.9 45.4749 35 44.6249 35.25 43.8499C35.5 43.0749 36.175 41.9249 37.025 41.7749C37.4152 41.728 37.8109 41.7737 38.1802 41.9084C38.5494 42.043 38.8816 42.2628 39.15 42.5499C39.4009 42.7685 39.5832 43.055 39.675 43.3749C39.925 44.2999 39.1 44.9999 38.2 45.5999V45.6749Z" fill="black"/>
<g id="Group_2">
<path id="Vector_7" d="M39.9 9.67495C39.6176 11.5705 39.8241 13.5067 40.5 15.3C40.9518 16.1792 41.7096 16.8628 42.6306 17.222C43.5516 17.5812 44.5722 17.5911 45.5 17.25C46.1311 17.0971 46.7137 16.788 47.1943 16.3512C47.6748 15.9143 48.0378 15.3637 48.25 14.75C48.6588 13.3471 48.8113 11.882 48.7 10.425V9.57495V6.77495C48.7373 6.22142 48.6538 5.66639 48.4552 5.14835C48.2567 4.63032 47.9478 4.16169 47.55 3.77495C46.2172 2.87083 44.5917 2.50463 43 2.74995C42.8928 2.7466 42.7861 2.76482 42.6862 2.80352C42.5862 2.84222 42.495 2.90062 42.4181 2.97524C42.3411 3.04986 42.2799 3.13919 42.2382 3.23792C42.1964 3.33665 42.1749 3.44276 42.175 3.54995C42.1136 3.39579 41.9995 3.26844 41.853 3.1906C41.7065 3.11276 41.5371 3.08949 41.375 3.12495C41.2115 3.17071 41.062 3.25634 40.9398 3.37416C40.8177 3.49197 40.7267 3.63828 40.675 3.79995C40.526 4.67495 40.4673 5.56296 40.5 6.44995L40.15 7.97495C40.0197 8.53371 39.9361 9.10234 39.9 9.67495ZM41.975 8.64995C41.975 8.64995 42.375 3.99995 42.375 3.82495C42.438 3.97206 42.5425 4.09766 42.6757 4.18644C42.8088 4.27521 42.9649 4.32334 43.125 4.32495C45.375 4.32495 46.325 4.74995 46.575 5.62495C46.6562 7.21558 46.5471 8.81021 46.25 10.375C46.2568 11.3428 46.1477 12.308 45.925 13.25C45.75 13.85 45.525 14.45 44.9 14.6C44.656 14.7104 44.3905 14.7651 44.1228 14.76C43.8551 14.7548 43.5918 14.69 43.3523 14.5703C43.1128 14.4505 42.903 14.2788 42.7383 14.0677C42.5735 13.8566 42.4579 13.6114 42.4 13.35C42.0026 11.817 41.859 10.2293 41.975 8.64995Z" fill="black"/>
<path id="Vector_8" d="M21.875 8.89996C21.875 9.14996 22.05 9.39996 23.025 9.49996C24.425 9.49996 25.025 9.94996 26.95 10.05H30.1H33.225C34.95 10.05 36 9.89996 37.75 9.77496C38.575 9.77496 39.225 8.17496 38.125 7.89996C36.225 7.82496 34.925 7.49996 33 7.49996H28C26.4541 7.49485 24.9094 7.5867 23.375 7.77496C22.325 7.84996 21.85 8.52496 21.875 8.89996Z" fill="black"/>
<path id="Vector_9" d="M58 10.175C57.1564 9.25719 56.0458 8.62755 54.825 8.37498C53.668 8.06898 52.4694 7.9508 51.275 8.02498C49.5 8.27498 49.975 9.49998 50.9 9.49998C51.7376 9.49158 52.5743 9.55852 53.4 9.69998C54.647 9.78902 55.8155 10.342 56.675 11.25C57.2576 12.4184 57.5897 13.6957 57.65 15C57.9 16.95 58.1 19.475 58.225 22.25C54.55 22.25 47.175 21.95 38.9 21.8H30.425H21.95C13 21.875 5.22499 22.175 2.77499 22.275C2.75912 18.5031 3.14463 14.7403 3.92499 11.05C4.17092 10.5985 4.5315 10.2198 4.9704 9.95209C5.4093 9.68436 5.91102 9.53704 6.42499 9.52498C7.46331 9.27232 8.53272 9.17128 9.59999 9.22498C9.7413 9.20066 9.8712 9.13197 9.97086 9.02887C10.0705 8.92576 10.1347 8.7936 10.1542 8.65154C10.1737 8.50948 10.1475 8.3649 10.0793 8.23876C10.0111 8.11262 9.90453 8.01147 9.77499 7.94998C8.22628 7.61449 6.6237 7.61449 5.07499 7.94998C4.46154 8.09757 3.89013 8.38391 3.40471 8.78698C2.91929 9.19005 2.53281 9.69911 2.27499 10.275C1.29999 12.575 0.299989 25.275 0.524989 36.525C0.699989 44.7 1.67499 52.025 3.47499 54.225C4.79999 55.825 8.24999 56.725 12.6 57.075C19.375 57.525 28.375 56.775 33.025 56.775C38.8646 56.9599 44.7101 56.7678 50.525 56.2C53.1463 55.9723 55.696 55.2244 58.025 54C58.7033 53.4249 59.1552 52.6274 59.3 51.75C60.1901 46.6162 60.5919 41.4096 60.5 36.2C60.5 25 59.575 12.025 58 10.175ZM57.375 48.825C57.2356 49.9221 56.9585 50.9972 56.55 52.025C53.7523 53.196 50.7574 53.8238 47.725 53.875C41.875 54.35 35.425 54.125 33.025 54.125C28.425 54.125 19.5 54.9 12.775 54.5C9.32499 54.3 6.47499 53.95 5.42499 52.7C3.72499 50.725 2.99999 44 2.77499 36.575C2.60879 32.3019 2.59211 28.0243 2.72499 23.75C5.22499 23.75 12.85 24.15 21.95 24.325H30.425H38.9C47.225 24.175 54.625 23.95 58.275 23.85C58.275 26.35 58.4 29.175 58.275 31.925C58.3251 37.5715 58.0245 43.2157 57.375 48.825Z" fill="black"/>
<path id="Vector_10" d="M11.7 9.59994C11.5076 11.6018 11.7028 13.622 12.275 15.5499C12.7268 16.4292 13.4847 17.1128 14.4056 17.472C15.3266 17.8312 16.3472 17.8411 17.275 17.4999C17.9117 17.353 18.5005 17.0464 18.986 16.609C19.4714 16.1716 19.8376 15.6179 20.05 14.9999C20.4752 13.5832 20.6279 12.0986 20.5 10.6249V7.97494V6.97494C20.534 6.42173 20.449 5.86767 20.2506 5.35014C20.0522 4.83261 19.7451 4.36366 19.35 3.97494C18.0217 3.05975 16.395 2.68434 14.8 2.92494C14.5812 2.92494 14.3714 3.01186 14.2166 3.16658C14.0619 3.32129 13.975 3.53114 13.975 3.74994C13.9137 3.59578 13.7995 3.46842 13.653 3.39058C13.5065 3.31274 13.3371 3.28948 13.175 3.32494C13.0116 3.3707 12.862 3.45633 12.7399 3.57414C12.6177 3.69196 12.5267 3.83827 12.475 3.99994C12.2873 4.82102 12.1785 5.65816 12.15 6.49994L11.875 7.82494V8.47494L11.7 9.59994ZM13.75 8.87494C13.75 8.87494 14.15 4.24994 14.15 4.04994C14.2063 4.20367 14.3084 4.33644 14.4425 4.43033C14.5766 4.52421 14.7363 4.57468 14.9 4.57494C17.15 4.57494 18.1 4.99994 18.35 5.87494C18.423 7.46656 18.3055 9.0612 18 10.6249C18.0022 11.5926 17.8931 12.5572 17.675 13.4999C17.525 14.0749 17.3 14.6749 16.675 14.8249C16.4311 14.9354 16.1656 14.9901 15.8978 14.985C15.6301 14.9798 15.3669 14.915 15.1273 14.7953C14.8878 14.6755 14.678 14.5038 14.5133 14.2927C14.3485 14.0816 14.233 13.8364 14.175 13.5749C13.7731 12.0428 13.6295 10.4543 13.75 8.87494Z" fill="black"/>
</g>
</g>
</g>
<defs>
<clipPath id="clip0_2270_13482">
<rect width="60" height="60" fill="white" transform="translate(0.5)"/>
</clipPath>
</defs>
</svg>
