<svg width="62" height="60" viewBox="0 0 62 60" fill="none" xmlns="http://www.w3.org/2000/svg">
<g id="conversation-chat--Streamline-Freehand" clip-path="url(#clip0_2270_13470)">
<g id="Group">
<path id="Vector" d="M7.18458 24.7501C9.00424 24.8602 10.8292 24.6485 12.5729 24.1251C12.697 24.1127 12.817 24.074 12.9245 24.0118C13.0319 23.9495 13.1244 23.865 13.1956 23.7642C13.2668 23.6635 13.3149 23.5487 13.3367 23.4279C13.3585 23.3071 13.3534 23.183 13.3219 23.0643C13.2903 22.9456 13.233 22.835 13.1538 22.7402C13.0747 22.6453 12.9756 22.5684 12.8634 22.5148C12.7512 22.4612 12.6285 22.4321 12.5038 22.4296C12.379 22.427 12.2552 22.4511 12.1408 22.5001C10.5965 22.9291 8.98955 23.0981 7.38792 23.0001C6.43091 22.98 5.51939 22.5945 4.84625 21.9251C3.40021 19.2358 2.7155 16.2138 2.86375 13.1751C2.73115 11.0236 2.93691 8.86482 3.47375 6.77506C3.63453 6.08319 4.01779 5.46073 4.56667 5.00006C6.87958 3.57506 19.0033 3.15006 31.0762 3.35006C38.2848 3.35641 45.485 3.83245 52.6296 4.77506C54.1428 4.85334 55.619 5.26334 56.9504 5.97506C58.488 8.2928 59.0529 11.1064 58.5262 13.8251C58.5135 16.6286 57.5672 19.3508 55.8321 21.5751C54.7392 22.5001 51.4604 22.5001 47.5462 22.5001C38.7012 22.5001 26.8571 21.5751 25.4083 22.1251C24.1369 22.6915 22.9691 23.4602 21.9517 24.4001C20.1217 26.0001 18.2154 28.0751 16.8683 29.4001C16.6396 29.6001 16.4617 29.7751 16.2837 29.9001C16.2178 29.7904 16.1665 29.6727 16.1313 29.5501C15.6635 27.6323 15.3239 25.6865 15.1146 23.7251C14.9621 22.3751 13.5133 22.7001 13.5133 23.4001C13.5133 24.1001 13.6912 25.1501 13.8692 26.4251C14.0137 28.0205 14.3639 29.5915 14.9113 31.1001C14.9981 31.3531 15.1736 31.5675 15.4065 31.7049C15.6393 31.8423 15.9142 31.8938 16.1821 31.8501C16.9744 31.5519 17.6934 31.0917 18.2917 30.5001C19.8675 29.1001 22.1804 26.7001 24.2392 25.1751C24.8169 24.7193 25.4591 24.3487 26.1454 24.0751C27.7467 23.5251 42.1579 25.3501 50.7742 25.0751C53.1424 25.1817 55.4982 24.6821 57.6112 23.6251C59.9911 20.9699 61.3649 17.5873 61.5 14.0501C61.8095 12.3188 61.7691 10.5445 61.3809 8.82859C60.9928 7.1127 60.2646 5.48891 59.2379 4.05006C57.7774 2.96918 56.0477 2.29554 54.2308 2.10006C48.3977 1.16872 42.5009 0.675625 36.5917 0.625059C22.3837 0.275059 6.09167 1.32506 3.34667 3.12506C1.69458 4.15006 0.779582 7.50006 0.754166 11.2501C0.754166 16.0251 1.92333 21.4501 3.55 23.1501C4.51526 24.112 5.81218 24.6829 7.18458 24.7501Z" fill="black"/>
<path id="Vector_2" d="M46.6567 50.475V51.225C46.4099 53.2576 46.0192 55.2709 45.4875 57.25L44.9792 56.775C43.6321 55.55 41.7513 53.45 39.8958 51.775C38.8829 50.792 37.7049 49.9885 36.4138 49.4C33.7615 49.1127 31.0852 49.1127 28.4329 49.4C23.1463 49.65 16.1821 50.1 11.1496 49.9C9.35485 50.0225 7.55539 49.7403 5.88833 49.075C4.43958 47.975 3.34667 44.425 2.94 40.825C2.27731 37.8302 2.80476 34.6995 4.41417 32.075C4.85465 31.7144 5.37825 31.4655 5.93917 31.35C6.96434 31.0426 8.00859 30.8004 9.06542 30.625C9.29778 30.5881 9.50582 30.4622 9.64397 30.2748C9.78212 30.0873 9.83913 29.8537 9.8025 29.625C9.75348 29.404 9.62165 29.2093 9.43325 29.0796C9.24486 28.9499 9.01372 28.8947 8.78583 28.925C7.45134 29.1026 6.13378 29.3869 4.84625 29.775C4.15858 29.9654 3.52404 30.3074 2.99083 30.775C0.982917 32.825 0.449167 36.975 0.627084 41.025C0.9575 45.475 2.50792 49.75 4.21083 51.15C5.91375 52.55 9.44667 52.775 14.1996 52.8C18.9525 52.825 25.0779 52.425 29.4496 52.125C31.4457 51.8623 33.4611 51.7703 35.4733 51.85C36.1524 52.1008 36.7871 52.4551 37.3542 52.9C39.3875 54.375 41.7513 56.725 43.3271 58.125C43.9351 58.7048 44.6515 59.1632 45.4367 59.475C45.7086 59.526 45.9902 59.4845 46.235 59.3573C46.4798 59.23 46.6733 59.0247 46.7837 58.775C47.2688 57.4964 47.5766 56.1594 47.6987 54.8C47.9021 53.275 48.08 51.725 48.1308 51.025V50.625C48.3342 50 46.7583 49.725 46.6567 50.475Z" fill="black"/>
<path id="Vector_3" d="M58.5263 29.225C55.5977 28.1136 52.4897 27.5293 49.3508 27.5C42.5776 27.1546 35.7907 27.1546 29.0175 27.5C28.8153 27.5 28.6213 27.5791 28.4783 27.7197C28.3353 27.8604 28.255 28.0511 28.255 28.25C28.255 28.449 28.3353 28.6397 28.4783 28.7804C28.6213 28.921 28.8153 29 29.0175 29C35.0667 29 41.2175 29.425 46.2754 29.85C48.8171 30.075 51.2063 30.35 53.0871 30.625C54.4158 30.7182 55.7204 31.0221 56.9504 31.525C57.4633 32.0155 57.802 32.6554 57.9163 33.35C58.5175 35.5411 58.7915 37.8064 58.7296 40.075C58.7752 42.3676 58.5016 44.6555 57.9163 46.875C57.7831 47.6845 57.4018 48.4346 56.8233 49.025C56.0757 49.531 55.1892 49.8013 54.2817 49.8C52.5716 49.8042 50.8666 49.6197 49.1983 49.25C48.9691 49.2865 48.7641 49.411 48.6282 49.5962C48.4924 49.7814 48.4369 50.0121 48.474 50.2375C48.511 50.463 48.6376 50.6647 48.8259 50.7983C49.0142 50.9319 49.2487 50.9865 49.4779 50.95C51.0409 51.367 52.641 51.6349 54.2563 51.75C55.5765 51.7732 56.875 51.417 57.9925 50.725C59.7463 49.55 61.0933 44.875 61.2967 40.125C61.4473 37.6054 61.216 35.0777 60.6104 32.625C60.3339 31.2897 59.5978 30.0889 58.5263 29.225Z" fill="black"/>
</g>
</g>
<defs>
<clipPath id="clip0_2270_13470">
<rect width="61" height="60" fill="white" transform="translate(0.5)"/>
</clipPath>
</defs>
</svg>
