<svg width="61" height="60" viewBox="0 0 61 60" fill="none" xmlns="http://www.w3.org/2000/svg">
<g id="envelope-letter-front--Streamline-Freehand" clip-path="url(#clip0_2270_13476)">
<g id="Group">
<path id="Vector" d="M59.45 12.725C59.2278 11.3831 58.6097 10.1381 57.675 9.14997C56.394 8.60331 55.0177 8.31448 53.625 8.29997C43.7221 7.76271 33.7959 7.82115 23.9 8.47497C13.85 9.12497 4.74999 10.45 1.87499 12.5C1.3929 12.9464 1.08316 13.5482 0.999994 14.2C0.584236 17.4492 0.417084 20.7253 0.499994 24C0.46031 32.4247 0.877589 40.8454 1.74999 49.225C1.766 49.327 1.80222 49.4248 1.85655 49.5126C1.91088 49.6004 1.9822 49.6765 2.06634 49.7364C2.15048 49.7962 2.24574 49.8387 2.34651 49.8612C2.44728 49.8837 2.55154 49.8859 2.65317 49.8676C2.75479 49.8492 2.85173 49.8108 2.93828 49.7545C3.02484 49.6982 3.09926 49.6251 3.15719 49.5396C3.21512 49.4542 3.25538 49.358 3.27561 49.2567C3.29584 49.1554 3.29563 49.0512 3.27499 48.95C2.89999 46.575 2.54999 38.95 2.49999 31.175C2.38841 26.078 2.55533 20.9787 2.99999 15.9C7.09999 18.65 15.2 24.025 21.825 27.625L25.475 29.425C27.4361 30.499 29.5817 31.1944 31.8 31.475C32.809 31.3126 33.7769 30.956 34.65 30.425C35.3299 30.0616 35.9892 29.661 36.625 29.225L40.225 26.725C41.075 26.1 41.9 25.5 42.725 24.8C47.5817 21.0817 52.1223 16.9676 56.3 12.5C56.3 12.775 56.475 13.1 56.55 13.45C57.2788 17.3653 57.6221 21.3427 57.575 25.325C57.704 32.1454 57.4034 38.9673 56.675 45.75C56.675 46.3 56.5 46.875 56.425 47.2H54.7C50.225 47.65 40.7 48.35 31 48.95C20.025 49.625 8.84999 50.2 4.59999 50.3C4.48509 50.3 4.37131 50.3226 4.26515 50.3666C4.15899 50.4106 4.06253 50.475 3.98128 50.5563C3.90002 50.6375 3.83557 50.734 3.7916 50.8401C3.74763 50.9463 3.72499 51.0601 3.72499 51.175C3.73151 51.4093 3.82919 51.6319 3.99728 51.7953C4.16536 51.9587 4.39057 52.0501 4.62499 52.05C10.3 52.05 28.25 51.325 41.7 50.6C48.1 50.275 53.475 49.925 56.025 49.675C56.7626 49.6341 57.4888 49.4736 58.175 49.2C58.4518 49.0225 58.6626 48.759 58.775 48.45C59.0487 47.6906 59.2333 46.902 59.325 46.1C60.1575 39.1818 60.5499 32.2178 60.5 25.25C60.5554 21.0509 60.2038 16.8563 59.45 12.725ZM43.625 20.925C40.55 23.225 37.425 25.375 35.025 26.825C33.9995 27.5798 32.8484 28.1469 31.625 28.5C30.5155 28.3587 29.4402 28.02 28.45 27.5C26.2 26.575 23.3 25.15 20.225 23.525C13.85 20.25 6.79999 16.225 3.32499 14.2C6.27499 12.475 14.75 11.7 24.05 11.2C33.8258 10.6578 43.6242 10.6578 53.4 11.2H54.95C51.4299 14.7272 47.6438 17.9785 43.625 20.925Z" fill="black"/>
<path id="Vector_2" d="M44.7 36.025C45.55 36.85 46.425 37.65 47.2 38.4C49.7 40.725 52.2 42.75 53.35 43.875C53.5178 44.0369 53.7418 44.1274 53.975 44.1274C54.2082 44.1274 54.4322 44.0369 54.6 43.875C54.6831 43.7935 54.7492 43.6963 54.7943 43.5889C54.8394 43.4816 54.8626 43.3664 54.8626 43.25C54.8626 43.1336 54.8394 43.0183 54.7943 42.911C54.7492 42.8037 54.6831 42.7064 54.6 42.625C53.525 41.35 51.525 38.975 49.15 36.4C48.35 35.55 47.5167 34.7166 46.65 33.9C45.8 33.075 44.925 32.25 44.15 31.4C43.375 30.55 42.125 29.7 41.175 28.9C39.45 27.725 38.175 28.9 39.4 30.375C40.25 31.3 41.175 32.325 42.2 33.375C43.225 34.425 43.85 35.2 44.7 36.025Z" fill="black"/>
<path id="Vector_3" d="M11.975 38.375C9.37815 40.9468 6.92446 43.6592 4.62501 46.5C4.5495 46.587 4.49186 46.688 4.45539 46.7973C4.41893 46.9066 4.40434 47.022 4.41246 47.1369C4.42059 47.2518 4.45127 47.364 4.50275 47.467C4.55423 47.5701 4.62551 47.662 4.71251 47.7375C4.79951 47.813 4.90053 47.8706 5.0098 47.9071C5.11908 47.9436 5.23447 47.9582 5.34938 47.95C5.46429 47.9419 5.57648 47.9112 5.67953 47.8598C5.78259 47.8083 5.8745 47.737 5.95001 47.65C7.42501 46.15 10.175 43.875 13.175 41.2C14.75 39.775 16.4 38.275 17.925 36.725C19.45 35.175 21.475 32.925 22.925 31.2C24.375 29.475 22.575 28.7 20.875 30.225C19.575 31.375 18.175 32.575 16.7 33.9C15.225 35.225 13.5 36.875 11.975 38.375Z" fill="black"/>
</g>
</g>
<defs>
<clipPath id="clip0_2270_13476">
<rect width="60" height="60" fill="white" transform="translate(0.5)"/>
</clipPath>
</defs>
</svg>
