<svg width="179" height="179" viewBox="0 0 179 179" fill="none" xmlns="http://www.w3.org/2000/svg">
<g id="Group">
<path id="Vector" d="M23.9354 147.498C0.671718 106.447 14.7304 54.1422 55.4729 30.6129C96.2153 7.0835 148.529 21.0573 172.438 61.7354L23.9354 147.498Z" fill="#F79A55"/>
<path id="Vector_2" d="M31.008 143.412C9.95417 106.205 22.649 58.9904 59.5558 37.6848C96.4653 16.369 143.68 28.9765 165.376 65.8211L31.0052 143.423L31.008 143.412Z" fill="#FBDDA9"/>
<path id="Vector_3" d="M94.1026 97.4078L88.2701 53.3862C86.9209 43.2366 75.7043 37.7104 66.8381 42.8313L58.3333 47.7435C49.4671 52.8644 48.64 65.3553 56.7545 71.5888L91.9473 98.6526C92.8959 99.3869 94.2537 98.5941 94.1026 97.4078Z" fill="#F79A55"/>
<path id="Vector_4" d="M106.747 99.6829C106.773 99.4609 106.867 99.235 107.021 99.0254L134.083 63.8178C140.316 55.6998 152.803 56.525 157.921 65.393L159.977 68.9556L106.754 99.6958L106.747 99.6829Z" fill="#F79A55"/>
<path id="Vector_5" d="M99.9783 97.2587L94.225 53.2271C92.8988 43.0731 102.308 34.8246 112.201 37.4753L121.697 40.0197C131.59 42.6704 135.614 54.5187 129.389 62.6492L102.39 97.905C101.666 98.8567 100.15 98.4504 99.9885 97.2614L99.9783 97.2587Z" fill="#F79A55"/>
<g id="Group_2">
<path id="Vector_6" d="M35.6667 140.722L33.6106 137.16C28.4928 128.291 34.022 117.06 44.1662 115.719L88.176 109.877C88.4347 109.848 88.6769 109.88 88.8825 109.968L35.6593 140.709L35.6667 140.722Z" fill="#F79A55"/>
<path id="Vector_7" d="M90.1842 102.912L54.942 75.9105C46.8146 69.6842 34.9686 73.7124 32.3169 83.6088L29.7715 93.1083C27.1198 103.005 35.3646 112.416 45.5162 111.088L89.5376 105.325C90.7236 105.173 91.1301 103.656 90.1814 102.922L90.1842 102.912Z" fill="#F79A55"/>
</g>
<path id="Vector_8" d="M92.5801 107.038C93.4417 105.817 93.4437 103.286 92.5826 102.062C92.4878 101.927 92.5932 101.737 92.7643 101.75C94.2574 101.877 96.4385 100.617 97.075 99.2599C97.1491 99.1051 97.3663 99.1088 97.4354 99.2582C98.0641 100.616 100.256 101.88 101.744 101.744C101.91 101.734 102.014 101.915 101.922 102.054C101.799 102.228 101.694 102.418 101.613 102.637L93.4308 107.364C93.1987 107.335 92.9741 107.318 92.7718 107.34C92.6055 107.35 92.5012 107.17 92.593 107.03L92.5801 107.038Z" fill="#F79A55"/>
</g>
</svg>
