<svg width="43" height="42" viewBox="0 0 43 42" fill="none" xmlns="http://www.w3.org/2000/svg">
<g id="color-palette--Streamline-Freehand" clip-path="url(#clip0_2427_284)">
<g id="Group">
<path id="Vector" fill-rule="evenodd" clip-rule="evenodd" d="M40.851 22.4832C40.0171 20.1253 38.3309 18.1452 36.1085 16.914C35.1812 16.4645 34.1992 16.1315 33.186 15.9232C33.2294 14.0171 32.8347 12.1258 32.031 10.3882C31.1971 8.03028 29.5109 6.0502 27.2885 4.81899C25.0452 3.83978 22.623 3.3111 20.166 3.2644C17.8083 3.29474 15.5039 3.95378 13.5021 5.17022C11.5002 6.38667 9.87723 8.11423 8.80853 10.1661C7.70302 12.1688 7.21668 14.4417 7.40853 16.709C4.91966 17.9383 2.8699 19.8737 1.52853 22.2611C0.401047 24.2528 -0.0975475 26.5256 0.0955247 28.7934C0.288597 31.0612 1.1647 33.2225 2.61353 35.0052C3.62418 36.3054 4.94615 37.3437 6.46353 38.029C8.6824 38.9633 11.0513 39.5125 13.4635 39.6519C13.5417 39.6614 13.6211 39.6557 13.6971 39.635C13.773 39.6143 13.844 39.5791 13.9058 39.5314C13.9677 39.4837 14.0192 39.4245 14.0575 39.3572C14.0957 39.2899 14.1199 39.2159 14.1285 39.1394C14.1484 38.9833 14.1045 38.8257 14.0062 38.701C13.9079 38.5763 13.7632 38.4944 13.6035 38.4732C11.3399 38.3075 9.12407 37.7523 7.05853 36.8332C5.79389 36.2046 4.71086 35.2766 3.90853 34.134C2.75782 32.5877 2.09509 30.7469 2.00181 28.8378C1.90854 26.9288 2.3888 25.0347 3.38353 23.3886C5.13353 20.2452 9.14103 18.8786 9.64853 18.3661C10.156 17.8536 9.49103 13.3777 10.7685 11.2082C11.6522 9.54196 12.9769 8.13718 14.6049 7.13978C16.2329 6.14239 18.1047 5.58879 20.026 5.53649C22.1825 5.54053 24.3172 5.95845 26.3085 6.76649C28.1045 7.75233 29.4865 9.32524 30.211 11.2082C30.7354 12.2228 31.0899 13.3128 31.261 14.4369C32.381 19.1519 33.011 17.8536 35.111 18.8273C36.9321 19.812 38.325 21.4085 39.031 23.3202C39.7105 24.655 40.1086 26.1094 40.2018 27.5972C40.295 29.0849 40.0814 30.5758 39.5735 31.9815C39.1139 33.3979 38.2688 34.6658 37.1283 35.6497C35.9879 36.6337 34.595 37.2966 33.0985 37.5677C33.0084 37.5802 32.9218 37.6101 32.8438 37.6558C32.7657 37.7014 32.6978 37.7618 32.6439 37.8334C32.5901 37.905 32.5515 37.9864 32.5304 38.0728C32.5093 38.1592 32.5061 38.2489 32.521 38.3365C32.5336 38.4239 32.5643 38.5079 32.6113 38.5834C32.6582 38.6589 32.7205 38.7242 32.7942 38.7754C32.8679 38.8265 32.9515 38.8625 33.04 38.881C33.1284 38.8995 33.2198 38.9003 33.3085 38.8832C35.0806 38.625 36.7469 37.9001 38.1284 36.7863C39.5098 35.6726 40.554 34.2122 41.1485 32.5623C41.791 30.948 42.0957 29.2245 42.0446 27.4934C41.9935 25.7622 41.5876 24.0587 40.851 22.4832Z" fill="#F97316"/>
<g id="Group_2">
<path id="Vector_2" fill-rule="evenodd" clip-rule="evenodd" d="M29.686 38.5415C27.4598 38.3404 25.2865 37.7624 23.2635 36.8332C22.6654 36.4325 22.003 36.1323 21.3035 35.9448C21.006 35.9448 20.621 35.9448 20.061 36.4061C19.1303 37.0524 18.0679 37.4952 16.946 37.7044C16.8575 37.719 16.7729 37.7504 16.6968 37.797C16.6208 37.8435 16.5549 37.9042 16.5029 37.9756C16.4509 38.047 16.4138 38.1276 16.3938 38.213C16.3737 38.2984 16.3711 38.3868 16.386 38.4732C16.4009 38.5595 16.4332 38.6422 16.4808 38.7164C16.5285 38.7906 16.5906 38.8549 16.6638 38.9057C16.7369 38.9565 16.8195 38.9927 16.907 39.0123C16.9945 39.0318 17.085 39.0344 17.1735 39.0198C18.6799 38.7956 20.1054 38.2085 21.321 37.3115C21.7257 37.5998 22.1529 37.8568 22.5985 38.0802C24.8174 39.0146 27.1862 39.5638 29.5985 39.7032C29.6829 39.7233 29.7706 39.7256 29.856 39.7101C29.9413 39.6946 30.0224 39.6615 30.0936 39.6131C30.1649 39.5647 30.2248 39.502 30.2694 39.4293C30.314 39.3565 30.3422 39.2754 30.3522 39.1912C30.3622 39.107 30.3537 39.0217 30.3274 38.9409C30.3011 38.8601 30.2574 38.7857 30.1994 38.7227C30.1413 38.6596 30.0702 38.6093 29.9908 38.5752C29.9113 38.541 29.8253 38.5237 29.7385 38.5244L29.686 38.5415Z" fill="#F97316"/>
<path id="Vector_3" fill-rule="evenodd" clip-rule="evenodd" d="M30.9284 19.3056C30.9284 19.5106 30.8059 19.7156 30.7359 19.9206C30.3285 21.0949 29.6564 22.1651 28.7689 23.052C27.8815 23.939 26.8015 24.6203 25.6084 25.0456C25.4062 24.1516 25.107 23.2811 24.7159 22.4489C24.2476 21.4364 23.6914 20.4648 23.0534 19.5448C24.6996 18.2566 26.7538 17.568 28.8634 17.5973H29.5284C30.8934 16.9994 31.2784 16.2819 29.3884 15.3252H29.0034C26.2791 15.3466 23.6505 16.3089 21.5834 18.0414C21.0887 17.636 20.5486 17.2864 19.9734 16.9994C17.7285 16.0269 15.3066 15.5041 12.8509 15.4619C10.1384 16.3331 10.5584 17.0335 12.7284 17.6314C14.8753 17.6364 16.9994 18.0604 18.9759 18.8785C19.2688 19.019 19.5446 19.1909 19.7984 19.391C18.9597 20.2512 18.2418 21.2163 17.6634 22.261C17.131 23.2472 16.7367 24.2987 16.4909 25.3873C15.7864 25.1981 15.1011 24.9465 14.4434 24.6356C13.1699 24.0132 12.0797 23.0842 11.2759 21.9364C10.7997 21.257 10.4117 20.5225 10.1209 19.7498C8.59845 19.3056 8.19595 19.7498 8.51095 20.6039C8.89397 21.4344 9.36308 22.2243 9.91095 22.9614C10.926 24.2686 12.2539 25.3127 13.7784 26.0023C14.5847 26.3311 15.4154 26.5995 16.2634 26.8052C15.9789 29.77 16.8681 32.7287 18.7484 35.0735L19.0284 35.381C20.0784 36.0814 20.6034 35.7398 20.7784 34.8514C20.5464 34.6301 20.3409 34.3836 20.1659 34.1169C18.7201 32.1363 18.0949 29.6953 18.4159 27.2835C19.2034 27.4202 20.0084 27.5569 20.7784 27.6252C20.857 27.6372 20.9373 27.6332 21.0143 27.6135C21.0912 27.5938 21.1632 27.5588 21.2256 27.5107C21.288 27.4626 21.3396 27.4024 21.3771 27.3339C21.4146 27.2654 21.4372 27.1901 21.4434 27.1127C21.4585 26.9593 21.4123 26.8062 21.3145 26.6852C21.2167 26.5643 21.0748 26.4848 20.9184 26.4635C20.1659 26.361 19.3609 26.2073 18.5734 26.0364C18.8097 25.1096 19.1748 24.2187 19.6584 23.3885C20.1309 22.5141 20.7193 21.7042 21.4084 20.9798C21.9686 21.7639 22.4603 22.5925 22.8784 23.4569C24.1826 26.1711 24.3767 29.2689 23.4209 32.1181C23.0582 33.0765 22.5381 33.9708 21.8809 34.766C21.5134 35.6373 21.8809 36.0644 23.4909 35.2444C24.1123 34.4689 24.6189 33.6121 24.9959 32.6989C25.7499 30.7379 26.0139 28.6296 25.7659 26.5489C27.2561 26.1192 28.6232 25.3568 29.7592 24.3219C30.8952 23.2871 31.7689 22.0083 32.3109 20.5869C32.4159 20.2964 32.5209 19.9889 32.6084 19.6814C32.7309 18.7248 31.4534 18.0414 30.9284 19.3056Z" fill="#F97316"/>
</g>
</g>
</g>
<defs>
<clipPath id="clip0_2427_284">
<rect width="42" height="41" fill="white" transform="translate(0.0585938 0.95813)"/>
</clipPath>
</defs>
</svg>
