<svg width="43" height="43" viewBox="0 0 43 43" fill="none" xmlns="http://www.w3.org/2000/svg">
<g id="business-management-teamwork-clap--Streamline-Freehand" clip-path="url(#clip0_2427_263)">
<g id="Group">
<path id="Vector" fill-rule="evenodd" clip-rule="evenodd" d="M12.6935 25.9748C13.1641 26.0358 13.6405 26.0358 14.111 25.9748C14.5698 25.9074 15.0211 25.7961 15.4585 25.6423C16.4388 25.2688 17.3772 24.7937 18.2585 24.2248C18.3906 24.1571 18.4915 24.0412 18.5404 23.9011C18.5893 23.761 18.5823 23.6074 18.521 23.4723C18.4503 23.3432 18.3342 23.2449 18.1952 23.1964C18.0562 23.1479 17.9042 23.1527 17.7685 23.2098C16.8392 23.536 15.8854 23.7876 14.916 23.9623C14.3378 24.0809 13.7536 24.1685 13.166 24.2248H12.291C13.3123 22.8868 13.926 21.2827 14.0585 19.6048C14.4085 16.1048 12.676 12.6048 8.61604 12.2548C7.31125 12.2471 6.02328 12.5492 4.85806 13.1364C3.69283 13.7236 2.68366 14.579 1.91354 15.6323C1.05334 16.6417 0.539792 17.9006 0.448437 19.2236C0.357081 20.5467 0.692739 21.8642 1.40604 22.9823C1.85822 23.6553 2.45641 24.2175 3.15604 24.6273L3.82104 24.9773C2.47866 26.3498 1.46193 28.0064 0.846038 29.8248C0.386244 31.2346 0.121292 32.7007 0.0585384 34.1823C-0.0196114 36.3434 0.121105 38.507 0.478538 40.6398C0.482742 40.7189 0.503183 40.7963 0.538589 40.8672C0.573995 40.9381 0.623609 41.0009 0.684343 41.0518C0.745077 41.1027 0.815633 41.1405 0.891621 41.163C0.967609 41.1854 1.0474 41.192 1.12604 41.1823C1.26837 41.1647 1.39853 41.0932 1.48969 40.9825C1.58086 40.8718 1.62608 40.7303 1.61604 40.5873C1.50801 38.4972 1.5724 36.4018 1.80854 34.3223C1.9612 32.9902 2.22461 31.6731 2.59604 30.3848C3.08566 28.5881 3.92409 26.9052 5.06354 25.4323C5.53604 25.5548 6.00854 25.6773 6.48104 25.7648C6.60867 25.7903 6.74122 25.7641 6.84952 25.6919C6.95783 25.6197 7.03301 25.5074 7.05854 25.3798C7.08406 25.2521 7.05784 25.1196 6.98564 25.0113C6.91344 24.903 6.80117 24.8278 6.67354 24.8023C3.17354 23.9973 2.54354 22.3698 2.52604 22.3173C2.02856 21.4221 1.83309 20.3903 1.96866 19.3751C2.10422 18.36 2.56359 17.4156 3.27854 16.6823C3.88975 15.8684 4.68282 15.2088 5.59438 14.7561C6.50594 14.3033 7.51075 14.07 8.52854 14.0748C11.521 14.2498 12.711 16.8573 12.5535 19.4473C12.5712 20.8018 12.1394 22.124 11.3256 23.2069C10.5118 24.2898 9.362 25.0725 8.05604 25.4323C7.91218 25.458 7.78344 25.5373 7.69575 25.6543C7.60807 25.7712 7.56797 25.917 7.58354 26.0623C7.60927 26.2049 7.68928 26.332 7.80677 26.4168C7.92425 26.5017 8.07006 26.5377 8.21354 26.5173C9.16031 26.3813 10.0573 26.0081 10.821 25.4323C11.4139 25.7076 12.0453 25.8906 12.6935 25.9748Z" fill="#F97316"/>
<path id="Vector_2" fill-rule="evenodd" clip-rule="evenodd" d="M18.5561 26.6573C17.8417 27.3334 17.0485 27.921 16.1936 28.4073C15.3476 28.8754 14.4564 29.2565 13.5336 29.5448C12.8235 29.7196 12.1226 29.9299 11.4336 30.1748C10.9455 30.3545 10.5324 30.6937 10.2611 31.1373C9.86693 32.1015 9.69929 33.1432 9.77106 34.1823C9.77106 36.3698 10.4886 39.0648 10.5936 40.4473C10.5958 40.5201 10.6126 40.5918 10.6431 40.6579C10.6735 40.7241 10.717 40.7834 10.7709 40.8324C10.8248 40.8814 10.888 40.919 10.9567 40.9431C11.0255 40.9671 11.0984 40.9771 11.1711 40.9723C11.2423 40.9701 11.3124 40.9538 11.3774 40.9244C11.4423 40.895 11.5009 40.8532 11.5496 40.8012C11.5984 40.7491 11.6364 40.688 11.6615 40.6213C11.6867 40.5546 11.6984 40.4836 11.6961 40.4123C11.6961 39.2223 11.5036 37.0348 11.5036 35.0223C11.5036 30.4898 12.5711 31.7673 14.1811 31.1373C15.1429 30.6833 16.0623 30.1445 16.9286 29.5273C17.8103 28.9006 18.6098 28.1657 19.3086 27.3398C19.3574 27.2956 19.3964 27.2415 19.4231 27.1813C19.4498 27.121 19.4636 27.0558 19.4636 26.9898C19.4636 26.9239 19.4498 26.8587 19.4231 26.7984C19.3964 26.7382 19.3574 26.6841 19.3086 26.6398C19.2613 26.5858 19.2027 26.5427 19.137 26.5138C19.0713 26.4849 19 26.4708 18.9282 26.4724C18.8564 26.4741 18.7859 26.4915 18.7216 26.5235C18.6573 26.5554 18.6008 26.6011 18.5561 26.6573Z" fill="#F97316"/>
<path id="Vector_3" fill-rule="evenodd" clip-rule="evenodd" d="M36.1786 23.9098C35.3467 23.9974 34.5079 23.9974 33.6761 23.9098C31.1911 23.5598 27.8136 21.3898 29.0036 17.8373C29.4048 16.7999 30.0474 15.8731 30.8782 15.1335C31.7091 14.394 32.7042 13.8631 33.7811 13.5848C34.9181 13.2403 36.1364 13.2761 37.2512 13.6866C38.3661 14.0972 39.3166 14.8602 39.9586 15.8598C40.2774 16.3712 40.4915 16.9408 40.5884 17.5355C40.6853 18.1303 40.6631 18.7384 40.5231 19.3245C40.3831 19.9106 40.128 20.463 39.7728 20.9498C39.4175 21.4365 38.9691 21.8478 38.4536 22.1598C38.3343 22.2445 38.2529 22.3724 38.2267 22.5163C38.2006 22.6602 38.2317 22.8086 38.3136 22.9298C38.3522 22.9928 38.4036 23.0469 38.4646 23.0887C38.5255 23.1304 38.5946 23.1588 38.6673 23.172C38.7399 23.1852 38.8146 23.183 38.8863 23.1654C38.9581 23.1478 39.0253 23.1152 39.0836 23.0698C39.7552 22.6935 40.3453 22.1874 40.8196 21.581C41.2939 20.9746 41.643 20.2799 41.8466 19.5374C42.0501 18.7949 42.104 18.0194 42.0052 17.2559C41.9064 16.4924 41.6569 15.7561 41.2711 15.0898C40.4909 13.7396 39.2902 12.682 37.8524 12.0784C36.4146 11.4748 34.8187 11.3585 33.3086 11.7473C31.9377 12.1055 30.6761 12.7958 29.6354 13.7573C28.5946 14.7187 27.8066 15.9216 27.3411 17.2598C27.0487 18.1548 26.9967 19.1109 27.1902 20.0323C27.3837 20.9537 27.8159 21.8081 28.4436 22.5098C28.1547 22.4086 27.8739 22.2858 27.6036 22.1423C26.6895 21.5339 25.9384 20.7107 25.4161 19.7448C24.9875 18.9735 24.4447 18.2714 23.8061 17.6624C23.2933 17.1475 22.6582 16.7714 21.9603 16.5694C21.2623 16.3674 20.5245 16.346 19.8161 16.5073C19.2355 16.7528 18.7252 17.1388 18.3311 17.6307C17.937 18.1225 17.6715 18.7048 17.5586 19.3249C17.4548 19.7207 17.4548 20.1365 17.5586 20.5323C17.7433 21.0157 17.9536 21.4889 18.1886 21.9499C18.4238 22.4031 18.6868 22.8415 18.9761 23.2624C19.6952 24.3663 20.541 25.3823 21.4961 26.2898C22.4614 27.2002 23.5444 27.9771 24.7161 28.5998C25.6539 28.9943 26.6119 29.339 27.5861 29.6323C27.877 29.7367 28.1534 29.8778 28.4086 30.0523C28.5894 30.6985 28.7067 31.3608 28.7586 32.0298C28.8896 33.0745 28.9422 34.1274 28.9161 35.1798C28.8769 36.7899 28.7483 38.3965 28.5311 39.9923C28.5102 40.1223 28.5418 40.2552 28.6189 40.3619C28.696 40.4686 28.8124 40.5402 28.9423 40.5611C29.0723 40.582 29.2052 40.5504 29.3119 40.4733C29.4185 40.3961 29.4902 40.2798 29.5111 40.1498C29.7736 38.5398 30.0361 36.8948 30.1411 35.2498C30.2197 34.1371 30.2197 33.0201 30.1411 31.9073C30.1205 31.1859 30.0503 30.4667 29.9311 29.7548C29.8572 29.4443 29.6999 29.1599 29.4761 28.9323C29.0912 28.6039 28.661 28.3327 28.1986 28.1273C27.3236 27.7248 26.2911 27.4623 25.5386 27.0423C24.5217 26.4613 23.5811 25.7559 22.7386 24.9423C21.8975 24.1221 21.1412 23.2192 20.4811 22.2473C20.2361 21.8623 20.0086 21.4774 19.7986 21.0749C19.0636 19.7449 19.2386 19.8148 19.3436 19.4473C19.3883 19.1701 19.4991 18.9077 19.6667 18.6823C19.8342 18.4569 20.0535 18.2751 20.3061 18.1523C20.9011 17.9248 21.6886 18.1523 22.8086 18.9398C23.9286 19.7273 24.7336 22.1249 26.9211 23.2799C27.9545 23.8055 29.105 24.0585 30.2636 24.0148C30.4325 24.1243 30.6078 24.2236 30.7886 24.3123C31.65 24.7026 32.5749 24.9339 33.5186 24.9948C34.4246 25.041 35.3329 25 36.2311 24.8723C36.295 24.866 36.3569 24.8466 36.413 24.8155C36.4692 24.7844 36.5184 24.7422 36.5578 24.6914C36.5971 24.6407 36.6256 24.5824 36.6416 24.5203C36.6577 24.4581 36.6609 24.3933 36.6511 24.3298C36.6421 24.2123 36.5878 24.1027 36.4997 24.0244C36.4115 23.946 36.2964 23.905 36.1786 23.9098Z" fill="#F97316"/>
<path id="Vector_4" fill-rule="evenodd" clip-rule="evenodd" d="M37.7536 23.1923C37.7094 23.1365 37.6535 23.091 37.5899 23.059C37.5263 23.027 37.4565 23.0092 37.3853 23.007C37.3141 23.0047 37.2433 23.018 37.1778 23.0458C37.1122 23.0737 37.0536 23.1156 37.0059 23.1684C36.9582 23.2213 36.9225 23.2839 36.9015 23.352C36.8805 23.42 36.8745 23.4918 36.8841 23.5624C36.8936 23.633 36.9184 23.7006 36.9568 23.7606C36.9951 23.8206 37.0461 23.8715 37.1061 23.9098C38.5607 25.556 39.4767 27.6079 39.7311 29.7898C39.9592 31.0973 40.0995 32.4186 40.1511 33.7448C40.2161 35.7995 40.1635 37.8562 39.9936 39.9048C39.9838 39.9762 39.9883 40.0487 40.0068 40.1183C40.0254 40.1879 40.0576 40.2531 40.1015 40.3101C40.1455 40.3671 40.2004 40.4148 40.263 40.4504C40.3256 40.4859 40.3946 40.5087 40.4661 40.5173C40.6096 40.5377 40.7554 40.5017 40.8729 40.4169C40.9904 40.332 41.0704 40.205 41.0961 40.0623C41.5451 37.983 41.8202 35.8698 41.9186 33.7448C41.9763 32.2877 41.8469 30.8291 41.5336 29.4048C41.0112 26.9666 39.6789 24.777 37.7536 23.1923Z" fill="#F97316"/>
<path id="Vector_5" fill-rule="evenodd" clip-rule="evenodd" d="M12.5535 9.06978C12.6383 9.36503 12.7496 9.65202 12.886 9.92728C13.0085 10.1987 13.1488 10.4618 13.306 10.7148C13.7087 11.3279 14.1531 11.9126 14.636 12.4648C14.7018 12.5751 14.8071 12.6563 14.9305 12.692C15.054 12.7278 15.1863 12.7153 15.301 12.6573C15.4146 12.5945 15.4987 12.4893 15.5347 12.3646C15.5708 12.2399 15.556 12.106 15.4935 11.9923C15.266 11.3098 15.1435 10.6448 14.916 9.97978C14.8174 9.69826 14.7005 9.4235 14.566 9.15728C14.4433 8.89154 14.303 8.63429 14.146 8.38728C13.7785 7.77478 13.376 7.19728 12.9735 6.63728C12.9083 6.50673 12.7948 6.40675 12.6571 6.35862C12.5194 6.31049 12.3683 6.31801 12.236 6.37958C12.1037 6.44116 12.0007 6.55192 11.9489 6.6883C11.8971 6.82467 11.9005 6.9759 11.9585 7.10978C12.1685 7.73978 12.3085 8.40478 12.5535 9.06978Z" fill="#F97316"/>
<path id="Vector_6" fill-rule="evenodd" clip-rule="evenodd" d="M20.4811 9.48981C20.481 9.61679 20.5302 9.73885 20.6184 9.83025C20.7065 9.92166 20.8267 9.97528 20.9536 9.97981C21.0185 9.98464 21.0837 9.97599 21.1452 9.95441C21.2066 9.93284 21.2629 9.8988 21.3105 9.85443C21.3582 9.81007 21.3962 9.75633 21.4221 9.6966C21.448 9.63686 21.4613 9.57242 21.4611 9.50731C21.6186 8.77231 21.8111 8.08981 21.8986 7.33731C21.9165 7.02841 21.9165 6.71872 21.8986 6.40981C21.9155 6.10088 21.9155 5.79125 21.8986 5.48231C21.8986 4.76481 21.6886 4.06481 21.5836 3.32981C21.5839 3.18716 21.5297 3.04978 21.4321 2.94571C21.3346 2.84164 21.201 2.77873 21.0586 2.76981C20.9859 2.76747 20.9134 2.77977 20.8456 2.80598C20.7777 2.83219 20.7159 2.87177 20.6636 2.92239C20.6114 2.973 20.5698 3.0336 20.5415 3.10058C20.5131 3.16757 20.4985 3.23957 20.4986 3.31231C20.3761 4.04731 20.2361 4.74731 20.1661 5.48231C20.1487 5.79124 20.1487 6.10089 20.1661 6.40981C20.1489 6.71874 20.1489 7.02839 20.1661 7.33731C20.2011 8.07231 20.3761 8.75481 20.4811 9.48981Z" fill="#F97316"/>
<path id="Vector_7" fill-rule="evenodd" clip-rule="evenodd" d="M26.8509 11.9048C27.3661 11.5347 27.8517 11.1251 28.3034 10.6798C28.4801 10.4849 28.6383 10.274 28.7759 10.0498C28.9159 9.83982 29.0384 9.61232 29.1609 9.38482C29.4234 8.82482 29.6334 8.28232 29.8784 7.73982C29.9691 7.62426 30.0123 7.47851 29.9993 7.33221C29.9863 7.18591 29.918 7.05007 29.8084 6.95232C29.6872 6.87048 29.5388 6.83932 29.3949 6.86548C29.251 6.89164 29.1231 6.97306 29.0384 7.09232C28.5834 7.52982 28.1634 7.93232 27.7434 8.40482C27.5859 8.59732 27.4284 8.78982 27.2884 8.99982C27.1183 9.21444 26.9661 9.44271 26.8334 9.68232C26.5709 10.2248 26.3959 10.7673 26.1159 11.2923C26.071 11.3402 26.0362 11.3966 26.0136 11.4582C25.9909 11.5198 25.9808 11.5853 25.984 11.6508C25.9871 11.7164 26.0034 11.7806 26.0318 11.8398C26.0602 11.8989 26.1003 11.9517 26.1495 11.9951C26.1987 12.0385 26.2562 12.0715 26.3184 12.0923C26.3807 12.113 26.4465 12.1211 26.5119 12.1159C26.5773 12.1108 26.641 12.0925 26.6993 12.0623C26.7575 12.032 26.8091 11.9904 26.8509 11.9398V11.9048Z" fill="#F97316"/>
</g>
</g>
<defs>
<clipPath id="clip0_2427_263">
<rect width="42" height="42" fill="white" transform="translate(0.0585938 0.932373)"/>
</clipPath>
</defs>
</svg>
