<svg width="44" height="19" viewBox="0 0 44 19" fill="none" xmlns="http://www.w3.org/2000/svg">
<g id="Group">
<path id="Vector" fill-rule="evenodd" clip-rule="evenodd" d="M6.47291 1.57783C6.34395 1.5623 6.21316 1.57505 6.08964 1.61519C5.96611 1.65534 5.85282 1.72191 5.75764 1.81029C5.66823 1.81029 5.52517 2.13216 5.43576 2.22157L4.55956 3.15142L2.46739 5.74428C2.18128 6.13768 1.93094 6.54896 1.68059 6.96024C1.43025 7.37152 0.983205 8.1762 0.661333 8.74841C0.618257 8.80483 0.587669 8.86976 0.571597 8.9389C0.555525 9.00804 0.554338 9.0798 0.568113 9.14943C0.581888 9.21906 0.610311 9.28497 0.651496 9.34278C0.692682 9.40059 0.745688 9.44899 0.807 9.48475C0.868312 9.52052 0.936528 9.54284 1.00712 9.55023C1.07772 9.55762 1.14908 9.54993 1.21647 9.52764C1.28386 9.50536 1.34575 9.469 1.39802 9.42098C1.45029 9.37296 1.49175 9.31437 1.51966 9.24911C1.82365 8.74842 2.14552 8.28349 2.46739 7.81856C2.78926 7.35364 3.1469 6.92448 3.50453 6.49531L5.57882 4.51044V4.81443C5.39778 5.96704 5.14698 7.10761 4.82778 8.22984C4.50591 9.73191 4.20192 11.2519 3.96946 12.7897C3.73026 14.3294 3.58099 15.8818 3.52242 17.439C3.51756 17.5118 3.52714 17.5849 3.55061 17.654C3.57407 17.7231 3.61095 17.7869 3.65913 17.8417C3.70731 17.8965 3.76585 17.9413 3.83138 17.9735C3.8969 18.0056 3.96814 18.0245 4.04099 18.0291C4.18995 18.039 4.3369 17.9904 4.45049 17.8935C4.56408 17.7966 4.6353 17.6591 4.64897 17.5105C4.78256 16.3088 4.97953 15.115 5.23906 13.9341C5.61458 12.146 6.09739 10.3578 6.63384 8.67689C6.99843 7.50621 7.27929 6.31107 7.47429 5.10053C7.59326 4.16277 7.53871 3.21112 7.31335 2.2931C7.2765 2.09559 7.1729 1.91674 7.01989 1.78652C6.86688 1.6563 6.67377 1.58262 6.47291 1.57783Z" fill="#F97316"/>
<path id="Vector_2" fill-rule="evenodd" clip-rule="evenodd" d="M24.8552 16.7416L21.7796 16.5985L19.4728 16.2766L18.4714 16.0084C18.2935 15.9497 18.1202 15.878 17.9529 15.7938L18.2569 15.4898C18.6503 15.0607 19.2046 14.5957 19.6338 14.1308C20.6705 13.0245 21.6436 11.8604 22.5485 10.6439C23.1534 9.73381 23.5896 8.72225 23.836 7.65762C23.9272 7.29214 23.9988 6.92206 24.0505 6.54895C24.0954 6.25261 24.0954 5.9512 24.0505 5.65486C24.0439 5.42471 24.0078 5.19635 23.9433 4.97535C23.9342 4.73368 23.8982 4.49378 23.836 4.26008C23.7354 3.89295 23.5622 3.54975 23.3265 3.25083C23.0908 2.95191 22.7975 2.70336 22.464 2.51991C22.1304 2.33647 21.7634 2.22187 21.3848 2.1829C21.0061 2.14394 20.6235 2.18141 20.2596 2.29309C18.5491 2.90381 17.069 4.02795 16.0216 5.5118C15.9805 5.56347 15.95 5.62272 15.9318 5.68617C15.9136 5.74963 15.9081 5.81605 15.9156 5.88163C15.9231 5.94722 15.9434 6.0107 15.9754 6.06844C16.0074 6.12617 16.0504 6.17704 16.1021 6.21813C16.1538 6.25923 16.213 6.28975 16.2765 6.30794C16.3399 6.32614 16.4063 6.33166 16.4719 6.32418C16.5375 6.31671 16.601 6.2964 16.6587 6.26439C16.7165 6.23239 16.7673 6.18933 16.8084 6.13767C17.7606 4.94366 19.0604 4.07509 20.5278 3.6521C21.2431 3.54481 21.8332 3.86668 22.1908 4.86806L22.3339 5.7085C22.3626 5.87417 22.3626 6.04353 22.3339 6.20919C22.2684 6.52369 22.1848 6.83416 22.0836 7.13904C21.8377 7.96811 21.4506 8.7485 20.9391 9.44579C20.0902 10.6113 19.183 11.7333 18.2211 12.8076C17.5105 13.5207 16.908 14.334 16.4329 15.2216C16.1826 15.9905 16.3256 16.9025 18.0423 17.4389L19.2761 17.725L21.7617 17.9039L24.9625 17.8145C25.0353 17.8121 25.107 17.7955 25.1733 17.7655C25.2397 17.7355 25.2995 17.6927 25.3493 17.6395C25.3992 17.5864 25.438 17.5239 25.4637 17.4558C25.4894 17.3876 25.5014 17.315 25.499 17.2422C25.4954 17.1648 25.4751 17.0891 25.4394 17.0203C25.4038 16.9515 25.3536 16.8912 25.2924 16.8436C25.2313 16.796 25.1605 16.7623 25.085 16.7446C25.0095 16.727 24.9311 16.726 24.8552 16.7416Z" fill="#F97316"/>
<path id="Vector_3" fill-rule="evenodd" clip-rule="evenodd" d="M42.2185 8.17622C41.6045 7.69184 40.8676 7.38839 40.0906 7.30002C40.1963 7.15167 40.2919 6.99634 40.3767 6.83509C40.643 6.32328 40.7996 5.76155 40.8366 5.18577C40.8735 4.61 40.79 4.03285 40.5913 3.4912C39.9296 1.41692 38.6064 0.75529 37.2831 0.862581C36.2926 1.08517 35.3623 1.52025 34.5565 2.13775C33.7506 2.75524 33.0885 3.5404 32.616 4.43893C32.554 4.55666 32.538 4.69321 32.571 4.82208C32.6041 4.95095 32.6838 5.06295 32.7948 5.13632C32.9089 5.20169 33.0441 5.21958 33.1712 5.18612C33.2983 5.15267 33.4072 5.07055 33.4743 4.95751C33.884 4.24905 34.4435 3.6387 35.1138 3.1692C35.7841 2.69969 36.5489 2.38238 37.3547 2.23948C38.1415 2.23948 38.7673 2.75805 39.1428 4.02765C39.2465 4.36984 39.2762 4.73017 39.2299 5.08471C39.1837 5.43925 39.0626 5.7799 38.8746 6.08406C38.496 6.71112 37.943 7.2144 37.2831 7.53248C36.5063 7.70189 35.7417 7.92292 34.9943 8.19411C34.7732 8.26488 34.5836 8.41026 34.4578 8.60539C34.2969 8.83785 34.1359 10.179 35.3698 10.0717C35.725 10.019 36.0772 9.9474 36.4248 9.85711L37.4977 9.42795C38.05 9.30337 38.6128 9.23152 39.1786 9.21337C39.8475 9.14662 40.5186 9.31756 41.0741 9.69617C42.0218 10.4472 41.8788 11.7526 41.4138 12.9328C40.9796 14.213 40.0967 15.2928 38.9283 15.9727C38.2615 16.229 37.5343 16.285 36.8361 16.1336C35.638 15.919 34.4578 15.3647 33.2597 15.0786C33.1869 15.0598 33.1112 15.0555 33.0367 15.066C32.9623 15.0765 32.8906 15.1016 32.8259 15.1398C32.7611 15.178 32.7045 15.2286 32.6593 15.2886C32.6141 15.3487 32.5811 15.4171 32.5624 15.4899C32.5436 15.5627 32.5393 15.6384 32.5498 15.7129C32.5603 15.7873 32.5854 15.859 32.6236 15.9237C32.6617 15.9885 32.7123 16.0451 32.7724 16.0903C32.8325 16.1355 32.9008 16.1685 32.9736 16.1873C34.1717 16.527 35.3519 17.135 36.55 17.4032C37.4933 17.6415 38.4845 17.6105 39.4111 17.3138C40.3493 16.8383 41.1787 16.1732 41.8466 15.3606C42.5146 14.548 43.0065 13.6056 43.2914 12.593C43.5837 11.8352 43.6376 11.0061 43.4459 10.2168C43.2541 9.42747 42.8259 8.71553 42.2185 8.17622Z" fill="#F97316"/>
<path id="Vector_4" fill-rule="evenodd" clip-rule="evenodd" d="M15.4317 9.57102C14.5609 9.32621 13.6688 9.16455 12.7674 9.08822C12.3864 9.06141 12.0039 9.06141 11.6229 9.08822C11.2448 9.10144 10.8682 9.14328 10.4964 9.21339C9.63397 9.41354 8.78573 9.67041 7.95716 9.98231C7.89093 9.99305 7.82754 10.017 7.77074 10.0527C7.71395 10.0884 7.66491 10.1352 7.62655 10.1902C7.58818 10.2453 7.56127 10.3075 7.54741 10.3731C7.53356 10.4388 7.53304 10.5066 7.54588 10.5724C7.55636 10.6382 7.58033 10.7011 7.6163 10.7572C7.65227 10.8132 7.69945 10.8612 7.75487 10.8982C7.8103 10.9351 7.87277 10.9602 7.93836 10.9719C8.00394 10.9835 8.07123 10.9814 8.13598 10.9658C9.06583 10.9658 9.92416 11.0552 11.0328 10.9658C11.5872 10.9658 12.1594 10.9658 12.7137 10.8585C13.5613 10.741 14.4152 10.6753 15.2708 10.6618C15.3437 10.6718 15.4178 10.6672 15.4889 10.6483C15.56 10.6294 15.6267 10.5965 15.6849 10.5516C15.7432 10.5066 15.7919 10.4505 15.8282 10.3866C15.8646 10.3226 15.8879 10.252 15.8967 10.179C15.9079 10.0381 15.8667 9.8981 15.7808 9.78584C15.695 9.67359 15.5706 9.59707 15.4317 9.57102Z" fill="#F97316"/>
<path id="Vector_5" fill-rule="evenodd" clip-rule="evenodd" d="M30.9888 9.96442C30.2331 9.72559 29.4537 9.5697 28.6642 9.4995C28.3366 9.48145 28.0083 9.48145 27.6807 9.4995L26.733 9.62467C25.9641 9.7856 25.2846 10.0538 24.5693 10.2505C24.4365 10.2505 24.3091 10.3033 24.2153 10.3972C24.1214 10.4911 24.0686 10.6184 24.0686 10.7512C24.0686 10.884 24.1214 11.0114 24.2153 11.1053C24.3091 11.1992 24.4365 11.2519 24.5693 11.2519C25.4175 11.3632 26.2711 11.4289 27.1264 11.4486C27.617 11.4328 28.1065 11.391 28.5927 11.3234C29.2958 11.1998 30.007 11.128 30.7206 11.1089C30.87 11.1348 31.0236 11.1004 31.1476 11.0133C31.2717 10.9261 31.3561 10.7933 31.3822 10.6439C31.4157 10.5019 31.3936 10.3524 31.3205 10.2261C31.2473 10.0997 31.1287 10.0061 30.9888 9.96442Z" fill="#F97316"/>
</g>
</svg>
