<svg width="44" height="44" viewBox="0 0 44 44" fill="none" xmlns="http://www.w3.org/2000/svg">
<g id="text-formating-align-bottom--Streamline-Freehand" clip-path="url(#clip0_2427_313)">
<g id="Group">
<path id="Vector" d="M1.13182 42.8294L4.14182 43.0802L11.3085 42.8294H32.0918L37.4668 42.9369H39.7064C39.9928 42.9554 40.28 42.9554 40.5664 42.9369C40.5664 42.9369 43.5047 43.1698 43.5047 42.059C43.5047 40.9482 40.5664 41.1811 40.5664 41.1811H37.4668L32.0918 41.0557H19.5502C16.7731 41.0557 13.996 41.0557 11.2189 41.199L4.05223 41.5932C3.45744 41.5171 2.85537 41.5171 2.26057 41.5932C1.92015 41.5932 1.5439 41.7365 1.06015 41.8261C0.919203 41.8397 0.788775 41.9066 0.695529 42.0132C0.602283 42.1198 0.553261 42.2579 0.558484 42.3994C0.584435 42.5291 0.657257 42.6446 0.763028 42.7239C0.868798 42.8032 1.0001 42.8408 1.13182 42.8294Z" fill="#F97316"/>
<path id="Vector_2" d="M6.22026 34.7132C6.39777 34.7132 6.56828 34.644 6.69546 34.5201C6.82264 34.3963 6.89642 34.2277 6.9011 34.0503C6.9011 32.599 6.9011 27.7973 7.09818 23.0673C7.18776 19.7348 7.36693 16.4382 7.6536 14.3957C7.75582 13.9651 7.88142 13.5405 8.02985 13.1236C10.1051 13.0445 12.1834 13.1223 14.2469 13.3565C14.4082 14.7003 14.6232 18.2119 14.8561 21.8132C15.089 25.4144 15.3398 29.3203 15.3398 31.1119V34.0323C15.34 34.6748 15.286 35.3161 15.1786 35.9494C15.1863 36.0807 15.1863 36.2123 15.1786 36.3436C14.5316 36.6569 13.8189 36.8105 13.1003 36.7915C10.9682 36.8811 8.2986 36.469 6.99068 36.4511C6.83387 36.4511 6.68348 36.5134 6.5726 36.6243C6.46172 36.7351 6.39943 36.8855 6.39943 37.0423C6.39943 37.1992 6.46172 37.3495 6.5726 37.4604C6.68348 37.5713 6.83387 37.6336 6.99068 37.6336C8.2986 37.6336 11.004 38.2248 13.154 38.2248C14.1922 38.2953 15.2292 38.0718 16.1461 37.5798C16.5712 37.1587 16.8317 36.5995 16.8807 36.0032C17.0973 34.3996 17.211 32.7838 17.2211 31.1657C17.2211 29.0515 17.2211 24.1244 16.9882 19.8423C16.9233 17.2262 16.6899 14.6169 16.2894 12.0307C16.2141 11.8394 16.0902 11.671 15.93 11.5422C15.7698 11.4134 15.5787 11.3285 15.3757 11.2961C14.8388 11.181 14.2936 11.1091 13.7453 11.0811C11.458 10.8986 9.15781 10.9586 6.88318 11.2603C6.66955 11.3321 6.47402 11.4493 6.31009 11.604C6.14615 11.7586 6.0177 11.947 5.9336 12.1561C5.58635 13.5456 5.39999 14.9703 5.37818 16.4023C5.12735 22.1357 5.48568 31.8465 5.48568 34.0323C5.48538 34.1265 5.50461 34.2196 5.54213 34.3059C5.57966 34.3922 5.63467 34.4698 5.7037 34.5338C5.77273 34.5978 5.85427 34.6468 5.94318 34.6776C6.03209 34.7085 6.12644 34.7206 6.22026 34.7132Z" fill="#F97316"/>
<path id="Vector_3" d="M24.8893 35.5373C24.978 35.5328 25.065 35.5105 25.1449 35.4718C25.2248 35.433 25.2962 35.3786 25.3546 35.3118C25.4131 35.2449 25.4576 35.167 25.4854 35.0826C25.5132 34.9983 25.5237 34.9092 25.5164 34.8206C25.3193 30.7356 25.176 24.6977 25.176 19.0002C25.176 13.034 25.2835 7.44397 25.5881 4.84606C25.5881 4.57731 25.5881 4.30856 25.7135 4.11147H26.3764C28.2117 4.02265 30.0512 4.08257 31.8768 4.29064C32.0023 5.34772 32.1814 7.65898 32.4143 10.4181C32.8623 15.9544 33.4535 23.2823 33.5968 26.6506C33.5968 27.5106 33.9193 30.6998 33.9552 33.459C33.9937 34.4819 33.9518 35.5063 33.8298 36.5227C33.7784 36.783 33.7126 37.0402 33.6327 37.2931C32.9402 37.588 32.1991 37.7521 31.4468 37.7769C29.3417 37.9532 27.2227 37.8629 25.1402 37.5081C24.9954 37.5677 24.8801 37.6822 24.8196 37.8267C24.7592 37.9711 24.7585 38.1336 24.8177 38.2786C25.0214 38.5501 25.324 38.7303 25.6598 38.7802C27.0011 39.0314 28.3622 39.1633 29.7268 39.1744C31.3272 39.3034 32.9363 39.077 34.4389 38.5115C35.1067 37.7697 35.4712 36.8041 35.4602 35.8061C35.625 32.7326 35.625 29.6525 35.4602 26.579C35.4602 23.6586 35.1556 17.7281 34.8152 12.5861C34.5106 7.76647 34.0985 3.62772 33.9373 3.07231C33.8807 2.87162 33.7735 2.68881 33.6261 2.54137C33.4787 2.39393 33.2959 2.2868 33.0952 2.23023C32.5371 2.08953 31.9674 1.99958 31.3931 1.96148C29.0422 1.72173 26.6686 1.83648 24.3518 2.30189C24.1388 2.45205 23.9611 2.64687 23.8312 2.87277C23.7012 3.09866 23.6221 3.35019 23.5993 3.60981C23.3477 5.56413 23.2399 7.53429 23.2768 9.50439C23.2768 16.6711 23.671 28.3527 24.1727 34.9461C24.1989 35.1153 24.2864 35.269 24.4185 35.378C24.5506 35.487 24.7182 35.5437 24.8893 35.5373Z" fill="#F97316"/>
</g>
</g>
<defs>
<clipPath id="clip0_2427_313">
<rect width="43" height="43" fill="white" transform="translate(0.558594 0.95813)"/>
</clipPath>
</defs>
</svg>
