<svg width="80" height="81" viewBox="0 0 80 81" fill="none" xmlns="http://www.w3.org/2000/svg">
<g id="multimedia-controls-loop-arrow--Streamline-Freehand" clip-path="url(#clip0_2270_9215)">
<path id="Vector" fill-rule="evenodd" clip-rule="evenodd" d="M76.8334 33.0797C75.5368 31.1668 73.8396 29.5589 71.8596 28.3674C69.8795 27.176 67.664 26.4295 65.3667 26.1797C60.8656 25.7819 56.3532 26.808 52.4667 29.113C49.1102 31.0954 45.9513 33.3948 43.0334 35.9797C36.3667 41.6797 30.6667 48.313 23.4667 53.2463C21.4573 54.5026 19.1654 55.236 16.8 55.3797C14.488 55.6416 12.1474 55.3088 10 54.413C4.33336 51.5797 2.90003 45.1463 4.00003 39.1463C5.10003 33.1463 9.20003 26.7797 14.8 25.813C16.9996 25.4115 19.2471 25.3441 21.4667 25.613C23.5964 25.7778 25.6602 26.4277 27.5 27.513C28.4106 28.2168 29.2382 29.022 29.9667 29.913C30.7673 30.734 31.4616 31.6523 32.0334 32.6463C30.2344 32.5501 28.4425 32.3498 26.6667 32.0463C24.7917 31.7457 22.9499 31.2657 21.1667 30.613C20.8965 30.47 20.5809 30.4388 20.288 30.5261C19.995 30.6133 19.748 30.8121 19.6 31.0797C19.4711 31.3352 19.4406 31.6293 19.5143 31.9058C19.5881 32.1824 19.7609 32.4222 20 32.5797C23.206 34.5143 26.6915 35.9423 30.3334 36.813C32.3312 37.4027 34.4701 37.2969 36.4 36.513C37.0585 36.0377 37.5207 35.3384 37.7 34.5463C37.7793 33.7483 37.7793 32.9444 37.7 32.1463C37.7 30.313 37.4667 24.8797 37.4 22.5463C37.4 21.7463 37.5667 20.2463 36.2334 20.4797C35.5667 20.2463 34.9 20.4797 34.7334 21.4797V22.4463C34.4667 24.5463 33.9334 29.113 33.6667 31.413C33.0568 30.2974 32.3184 29.257 31.4667 28.313C30.6107 27.2628 29.6502 26.3023 28.6 25.4463C26.4777 24.1108 24.0882 23.2574 21.6 22.9463C19.157 22.5949 16.6763 22.5949 14.2334 22.9463C7.46669 23.9463 2.16669 30.8797 0.533361 38.4797C-1.09997 46.0797 0.933361 54.1463 8.06669 57.9463C10.8904 59.2841 14.0223 59.8367 17.1334 59.5463C20.2321 59.4073 23.2416 58.4654 25.8667 56.813C32.8637 51.3565 39.5414 45.5024 45.8667 39.2797C48.5886 36.8551 51.5226 34.6797 54.6334 32.7797C57.715 30.8733 61.3191 29.9869 64.9334 30.2463C66.6797 30.4029 68.3711 30.937 69.8906 31.8119C71.41 32.6867 72.7212 33.8813 73.7334 35.313C75.1513 37.3445 76.0428 39.6961 76.3279 42.1571C76.6129 44.618 76.2827 47.1112 75.3667 49.413C74.3975 51.7224 72.8122 53.7211 70.7841 55.1907C68.7561 56.6604 66.3631 57.5444 63.8667 57.7463C60.55 57.9315 57.2368 57.326 54.2 55.9797C51.1077 55.0016 48.515 52.8629 46.9667 50.013C46.8398 49.6962 46.5962 49.4401 46.2862 49.2975C45.9761 49.1548 45.6232 49.1365 45.3 49.2463C45.1348 49.2976 44.9822 49.3831 44.8521 49.4973C44.7221 49.6114 44.6175 49.7516 44.5452 49.9088C44.4729 50.066 44.4345 50.2366 44.4325 50.4096C44.4304 50.5826 44.4648 50.7541 44.5334 50.913C45.8695 53.873 48.2401 56.2435 51.2 57.5797C55.2464 59.9129 59.865 61.0676 64.5334 60.913C67.6082 60.7304 70.5723 59.6992 73.0966 57.934C75.6209 56.1688 77.6067 53.7385 78.8334 50.913C80.0189 48.0106 80.4571 44.857 80.1077 41.7413C79.7582 38.6256 78.6324 35.6474 76.8334 33.0797Z" fill="black"/>
</g>
<defs>
<clipPath id="clip0_2270_9215">
<rect width="80" height="80" fill="white" transform="translate(0 0.613037)"/>
</clipPath>
</defs>
</svg>
