<svg width="76" height="77" viewBox="0 0 76 77" fill="none" xmlns="http://www.w3.org/2000/svg">
<g id="task-clipboard-check--Streamline-Freehand" clip-path="url(#clip0_2270_9202)">
<g id="Group">
<path id="Vector" fill-rule="evenodd" clip-rule="evenodd" d="M30.59 13.943C31.3816 14.228 29.925 13.7214 36.385 15.3364C40.2324 16.9697 44.2964 18.0364 48.45 18.503C50.2147 18.997 52.0143 19.3569 53.8333 19.5797C56.4933 19.5797 59.3433 18.6297 59.1216 11.5047C59.1216 7.92637 56.715 8.33803 53.675 7.0397C53.6089 5.74598 53.2632 4.48195 52.6616 3.3347C52.1456 2.42378 51.311 1.73579 50.3183 1.40304C46.4866 0.358035 40.185 -0.496965 37.3666 2.16304C34.5483 4.82303 37.3666 6.0897 37.905 4.72803C38.0772 4.2828 38.3478 3.88226 38.6966 3.55637C40.9133 1.68804 46.455 2.92303 49.4633 3.9997C50.2233 4.25303 50.54 6.05803 50.54 6.91303C50.54 7.76803 49.9383 9.16137 51.5216 10.0797C54.6883 11.6314 56.4616 8.68637 55.0366 14.4497C54.8073 14.9153 54.6269 15.4035 54.4983 15.9064C53.295 15.9064 51.3316 15.4314 43.5733 14.323C39.71 12.9554 35.7221 11.969 31.6666 11.378C32.3633 10.713 31.9516 8.21137 31.9516 7.38803V7.07137C32.5615 7.04297 33.1718 7.11792 33.7566 7.29303C34.038 7.35182 34.3312 7.29644 34.5717 7.13907C34.8122 6.98169 34.9803 6.73522 35.0391 6.45387C35.0979 6.17252 35.0425 5.87934 34.8852 5.63882C34.7278 5.39831 34.4813 5.23016 34.2 5.17137C31.6666 4.50637 29.7666 4.50637 29.5766 7.29303C29.4816 9.06637 27.3916 12.708 30.59 13.943Z" fill="black"/>
<path id="Vector_2" fill-rule="evenodd" clip-rule="evenodd" d="M70.0467 16.223C69.0967 14.608 65.1067 13.7214 63.27 13.4047C63.0076 13.4021 62.7528 13.4927 62.5509 13.6604C62.3491 13.8281 62.2133 14.0619 62.1677 14.3204C62.1221 14.5788 62.1696 14.845 62.3019 15.0716C62.4342 15.2983 62.6426 15.4706 62.89 15.558C64.6654 15.8293 66.38 16.4079 67.9567 17.268C67.9567 20.6247 62.985 40.2897 55.0683 72.558C54.3717 72.558 53.0417 72.8747 51.68 72.7797C37.4193 71.6336 23.2975 69.1527 9.5 65.3697C10.5133 54.223 10.83 49.1247 12.6667 36.2997C15.6433 15.938 16.7517 14.133 18.6517 8.78137C21.2198 8.50519 23.8102 8.50519 26.3783 8.78137C26.6053 8.8268 26.8409 8.79059 27.0438 8.67915C27.2466 8.5677 27.4035 8.38818 27.4869 8.17227C27.5702 7.95637 27.5746 7.71796 27.4992 7.49915C27.4239 7.28033 27.2736 7.09517 27.075 6.97637C23.9325 6.47781 20.7373 6.40326 17.575 6.7547C16.7517 7.00803 16.9733 6.91303 14.4083 13.373C11.2536 25.8861 8.8427 38.5749 7.18834 51.373C5.35167 66.7947 5.06667 66.9847 6.365 68.1247C9.81667 71.0697 53.5167 78.2897 57.0317 75.8197C57.26 75.6825 57.4569 75.4989 57.6097 75.2806C57.7624 75.0624 57.8676 74.8145 57.9183 74.553C70.015 21.543 70.9017 17.7747 70.0467 16.223Z" fill="black"/>
<path id="Vector_3" fill-rule="evenodd" clip-rule="evenodd" d="M57.0001 29.6497C57.0495 29.4227 57.0263 29.1859 56.9339 28.9728C56.8414 28.7597 56.6844 28.581 56.4849 28.462C56.2854 28.343 56.0535 28.2897 55.8221 28.3096C55.5906 28.3295 55.3713 28.4217 55.1951 28.573C54.8151 28.858 40.0901 44.1847 39.7101 43.8047C38.4434 42.6013 37.7784 39.3713 36.3534 38.928C34.2634 38.358 35.9417 42.3797 36.8917 44.5647C37.8417 46.7497 40.0584 47.7313 42.9084 45.6413C46.5361 42.8246 49.736 39.4966 52.4084 35.7613C54.1107 33.859 55.6469 31.8143 57.0001 29.6497Z" fill="black"/>
<path id="Vector_4" fill-rule="evenodd" clip-rule="evenodd" d="M34.8334 33.0697C36.7967 32.4047 42.2117 31.898 42.18 33.798C42.18 34.0499 42.2801 34.2916 42.4583 34.4697C42.6364 34.6479 42.8781 34.748 43.13 34.748C43.382 34.748 43.6236 34.6479 43.8018 34.4697C43.9799 34.2916 44.08 34.0499 44.08 33.798C44.3967 29.8713 37.7467 29.523 34.105 30.6313C25.3017 32.943 19.19 41.303 23.7817 49.6313C25.7764 52.8164 28.717 55.2981 32.1921 56.729C35.6671 58.1599 39.5026 58.4684 43.1617 57.6113C49.305 55.838 54.4034 48.4913 51.5217 42.918C51.3701 42.698 51.1441 42.5401 50.8853 42.4735C50.6265 42.4069 50.3524 42.436 50.1134 42.5555C49.8744 42.675 49.6866 42.8769 49.5846 43.1238C49.4826 43.3708 49.4733 43.6463 49.5584 43.8997C51.49 48.143 47.025 53.5897 42.4017 54.6347C39.4306 55.1374 36.3775 54.7679 33.6123 53.5707C30.847 52.3735 28.4882 50.4002 26.8217 47.8897C23.2117 41.8097 28.1517 35.223 34.8334 33.0697Z" fill="black"/>
</g>
</g>
<defs>
<clipPath id="clip0_2270_9202">
<rect width="76" height="76" fill="white" transform="translate(0 0.389648)"/>
</clipPath>
</defs>
</svg>
