<svg width="74" height="75" viewBox="0 0 74 75" fill="none" xmlns="http://www.w3.org/2000/svg">
<g id="connect-flash--Streamline-Freehand" clip-path="url(#clip0_2270_9195)">
<path id="Vector" fill-rule="evenodd" clip-rule="evenodd" d="M64.0408 20.1847C62.5497 19.6247 60.977 19.3122 59.385 19.2597C54.2667 18.8897 46.065 18.8897 42.3958 18.8897C43.66 16.0838 46.1575 10.5647 47.36 8.03633C47.5142 7.66633 48.1617 6.83383 48.1617 6.18633C48.1617 5.53883 46.8975 4.27466 46.0342 5.78549C46.0342 5.97049 45.695 6.43299 45.3867 7.08049C43.66 10.5647 39.4358 19.5988 39.4358 19.5988C39.3438 19.7804 39.2958 19.9811 39.2958 20.1847C39.2958 20.3882 39.3438 20.5889 39.4358 20.7705C39.5442 20.9398 39.6954 21.0774 39.8741 21.1694C40.0528 21.2615 40.2526 21.3047 40.4533 21.2947C47.3936 21.2324 54.3319 21.5618 61.235 22.2813H61.6667C61.5446 22.514 61.4108 22.7404 61.2659 22.9597C59.3326 25.437 57.2744 27.8143 55.0992 30.0822C51.1833 34.2447 46.4042 39.0238 42.3958 42.9397C38.9733 46.4238 21.5833 62.673 13.9367 68.8088L12.7342 69.7338C13.4575 67.2782 14.4938 64.9258 15.8175 62.7347C19.3017 56.3213 24.8825 47.9038 29.9083 39.6097C30.2259 39.1992 30.3982 38.6949 30.3982 38.1759C30.3982 37.6569 30.2259 37.1527 29.9083 36.7422C29.4923 36.2363 28.9156 35.8881 28.2742 35.7555C27.0962 35.6191 25.9064 35.6191 24.7283 35.7555L14.6458 36.0022H12.6417C12.8883 35.4472 13.2583 34.7688 13.505 34.0905C16.28 26.2897 23.7108 8.00549 26.085 3.25716C27.4108 2.91799 30.5558 2.85633 30.8333 2.82549C33.1458 2.64049 35.52 2.54799 37.8942 2.48633H48.6858C48.8195 2.48695 48.9519 2.45952 49.0743 2.40581C49.1968 2.3521 49.3066 2.2733 49.3967 2.1745C49.4867 2.0757 49.5551 1.9591 49.5973 1.83224C49.6395 1.70537 49.6546 1.57107 49.6417 1.43799C49.6546 1.30492 49.6395 1.17061 49.5973 1.04375C49.5551 0.916883 49.4867 0.800284 49.3967 0.701485C49.3066 0.602686 49.1968 0.523885 49.0743 0.470172C48.9519 0.41646 48.8195 0.389031 48.6858 0.389659H36.0442C34.2558 0.389659 32.4367 0.389659 30.5867 0.605492H25.6225C25.0705 0.655009 24.5606 0.921065 24.2042 1.34549C21.9842 5.32299 13.69 24.6555 10.5758 32.7955C10.1186 33.9019 9.72734 35.0344 9.40418 36.1872C9.29609 36.51 9.27919 36.8565 9.35535 37.1883C9.43152 37.5202 9.59779 37.8246 9.83585 38.068C10.3497 38.4959 10.9659 38.7828 11.6242 38.9005C12.6497 38.9973 13.682 38.9973 14.7075 38.9005L24.6667 38.9313C25.1061 38.9831 25.5397 39.076 25.9617 39.2088C20.0725 48.6747 13.6283 58.1405 10.73 64.523C9.79561 66.3428 9.20008 68.3175 8.97251 70.3505C8.88113 71.0408 8.97257 71.743 9.2377 72.3869C9.50284 73.0308 9.93237 73.5938 10.4833 74.0197C10.8234 74.2234 11.2123 74.3311 11.6088 74.3311C12.0052 74.3311 12.3942 74.2234 12.7342 74.0197C13.9826 73.3008 15.1596 72.4645 16.2492 71.5222C23.8958 65.3555 41.2858 48.6747 44.7392 45.1905C50.2583 39.6405 57.0725 32.333 61.3275 27.4613C62.9844 25.8106 64.2489 23.8084 65.0275 21.603C65.0021 21.3008 64.8976 21.0105 64.7243 20.7615C64.5511 20.5126 64.3154 20.3136 64.0408 20.1847Z" fill="black"/>
</g>
<defs>
<clipPath id="clip0_2270_9195">
<rect width="74" height="74" fill="white" transform="translate(0 0.389648)"/>
</clipPath>
</defs>
</svg>
