<svg width="74" height="75" viewBox="0 0 74 75" fill="none" xmlns="http://www.w3.org/2000/svg">
<g id="website-development-browser-hand--Streamline-Freehand" clip-path="url(#clip0_2270_9181)">
<g id="Group">
<path id="Vector" fill-rule="evenodd" clip-rule="evenodd" d="M21.8917 8.49883C21.815 7.08901 21.8666 5.67514 22.0458 4.27466C22.1868 4.08913 22.2551 3.85851 22.238 3.62615C22.2208 3.39379 22.1194 3.17568 21.9528 3.01283C21.7862 2.84999 21.5658 2.75361 21.3331 2.74183C21.1004 2.73004 20.8714 2.80365 20.6892 2.94883C19.6717 3.87383 19.6717 7.04966 19.425 8.15966C17.2264 17.6941 17.1107 27.5906 19.0858 37.1738C19.1185 37.4519 19.2604 37.7055 19.4801 37.879C19.6998 38.0525 19.9795 38.1315 20.2575 38.0988C20.5355 38.0661 20.7892 37.9243 20.9627 37.7046C21.1361 37.4848 21.2152 37.2052 21.1825 36.9272C20.8395 27.4455 21.0763 17.9516 21.8917 8.49883Z" fill="black"/>
<path id="Vector_2" fill-rule="evenodd" clip-rule="evenodd" d="M65.1816 11.7055C51.5378 10.7899 37.848 10.7899 24.2041 11.7055C23.0325 11.7055 22.5083 13.5555 24.7283 13.9871C29.1683 13.9871 33.9783 14.6346 43.2283 14.6655C52.4783 14.6963 58.9841 14.1105 65.3666 13.9255C65.661 13.9009 65.9336 13.7604 66.1244 13.5349C66.3152 13.3094 66.4087 13.0173 66.3841 12.723C66.3596 12.4286 66.2191 12.156 65.9936 11.9652C65.7681 11.7743 65.476 11.6809 65.1816 11.7055Z" fill="black"/>
<path id="Vector_3" fill-rule="evenodd" clip-rule="evenodd" d="M73.26 13.1547C72.9516 10.2872 73.26 4.89134 70.9783 3.19551C66.3225 -0.381158 56.8875 0.667175 50.4125 0.389675C42.2725 0.173842 33.9166 0.913842 26.0233 1.22217C25.7453 1.22217 25.4786 1.33262 25.282 1.52922C25.0854 1.72583 24.975 1.99247 24.975 2.27051C24.975 2.54854 25.0854 2.81519 25.282 3.01179C25.4786 3.20839 25.7453 3.31884 26.0233 3.31884C34.0091 3.31884 42.1183 2.82551 50.1966 3.31884C56.055 3.68884 65.3666 3.31884 68.6966 5.90884C69.4675 6.52551 70.3616 23.7922 70.3925 25.5188C70.4175 30.383 70.0359 35.2407 69.2516 40.0413C65.5208 42.2305 50.2583 43.4947 45.7875 43.7722C45.5672 43.8122 45.368 43.9283 45.2246 44.1001C45.0812 44.272 45.0026 44.4887 45.0026 44.7126C45.0026 44.9364 45.0812 45.1532 45.2246 45.325C45.368 45.4969 45.5672 45.613 45.7875 45.653C51.5225 45.653 64.6883 44.8513 69.6525 43.0322C71.3175 42.4155 72.0266 41.6755 72.52 39.0547C74.0935 30.5104 74.3431 21.7749 73.26 13.1547Z" fill="black"/>
<path id="Vector_4" fill-rule="evenodd" clip-rule="evenodd" d="M28.8909 8.34466C29.1031 7.9624 29.1731 7.51731 29.0885 7.08835C29.0038 6.65939 28.7699 6.27427 28.4284 6.00132C26.6709 5.07632 24.5125 6.86466 26.0542 8.46799C26.2419 8.65879 26.4676 8.80804 26.7166 8.90608C26.9657 9.00413 27.2325 9.04879 27.4999 9.03716C27.7674 9.02553 28.0293 8.95789 28.2689 8.83859C28.5085 8.7193 28.7204 8.55102 28.8909 8.34466Z" fill="black"/>
<path id="Vector_5" fill-rule="evenodd" clip-rule="evenodd" d="M34.9341 7.72805C35.143 7.34237 35.2081 6.89501 35.1178 6.46579C35.0274 6.03657 34.7875 5.65342 34.4408 5.38471C32.6833 4.45971 30.525 6.24805 32.0975 7.82055C32.2831 8.01318 32.5071 8.16471 32.7549 8.26534C33.0028 8.36597 33.269 8.41346 33.5364 8.40474C33.8037 8.39603 34.0663 8.33129 34.3071 8.21473C34.5478 8.09816 34.7615 7.93236 34.9341 7.72805Z" fill="black"/>
<path id="Vector_6" fill-rule="evenodd" clip-rule="evenodd" d="M41.5016 7.72805C41.7202 7.34738 41.7938 6.90051 41.7088 6.46984C41.6238 6.03918 41.386 5.65377 41.0391 5.38471C39.2816 4.45971 37.1233 6.24805 38.6958 7.82055C38.8787 8.01246 39.1 8.16355 39.3454 8.26391C39.5907 8.36427 39.8545 8.41164 40.1194 8.4029C40.3844 8.39417 40.6445 8.32953 40.8827 8.21323C41.1209 8.09692 41.3318 7.93158 41.5016 7.72805Z" fill="black"/>
<path id="Vector_7" fill-rule="evenodd" clip-rule="evenodd" d="M57.8433 55.1189C57.9908 54.1246 57.8686 53.1089 57.4894 52.1781C57.1101 51.2472 56.4878 50.4353 55.6875 49.8272C54.8872 49.219 53.9382 48.837 52.9398 48.7211C51.9413 48.6051 50.93 48.7595 50.0117 49.168C47.248 50.4892 44.7584 52.3198 42.6733 54.5639C41.3783 55.6122 37 58.973 37 58.973C34.6014 58.9528 32.2314 58.4495 30.0317 57.493C30.0317 57.2155 30.2167 56.938 30.5558 56.4755C34.1942 51.4497 38.8808 49.6614 35.5817 44.5739C35.0555 43.8556 34.3173 43.3206 33.471 43.044C32.6247 42.7674 31.7129 42.7633 30.8642 43.0322C25.4375 44.0497 20.165 49.4455 15.0467 51.4189C14.8308 51.4189 14.5842 51.4189 14.5225 51.573C13.6592 45.7764 8.35582 47.2872 6.10499 47.2564C3.85416 47.2255 -0.616677 46.9172 0.215823 48.9522C0.311114 49.176 0.490749 49.3533 0.715823 49.4457C0.940896 49.538 1.19328 49.5379 1.41832 49.4455C2.91363 49.2873 4.42489 49.3811 5.88916 49.723C12.3025 50.4322 11.5317 46.8247 11.1308 69.0247C11.1308 71.0905 11.1308 71.6455 7.70832 71.923C5.74103 72.0462 3.76616 71.9531 1.81916 71.6455C1.68351 71.6192 1.54401 71.6199 1.40862 71.6475C1.27323 71.675 1.1446 71.729 1.03007 71.8063C0.915548 71.8836 0.81737 71.9827 0.741146 72.098C0.664921 72.2132 0.612142 72.3424 0.585823 72.478C0.559504 72.6137 0.56016 72.7532 0.587753 72.8886C0.615347 73.024 0.669337 73.1526 0.746642 73.2671C0.823946 73.3816 0.923052 73.4798 1.0383 73.556C1.15355 73.6323 1.28268 73.685 1.41832 73.7114C3.51502 74.1677 5.65505 74.3951 7.80082 74.3897C10.8842 74.3897 12.8267 73.9272 13.9675 71.3064L20.8742 69.7955C31.7892 72.6014 46.7433 73.1872 56.3325 67.0822C59.9708 64.7389 64.0408 61.7789 62.0367 57.8322C61.6617 57.0328 61.0698 56.3547 60.3285 55.875C59.5872 55.3954 58.7262 55.1334 57.8433 55.1189ZM44.4617 57.123C47.545 55.2114 51.3683 51.1722 53.7117 52.0972C54.3663 52.317 54.914 52.7756 55.2455 53.3814C55.5769 53.9872 55.6678 54.6957 55.5 55.3655C49.7958 56.5989 47.0825 57.8014 41.9642 58.4489C42.8275 58.0172 43.7833 57.5239 44.4617 57.123ZM54.2975 64.3072C41.9642 72.7864 21.09 67.5755 20.3808 67.6989C13.5975 69.3639 14.2142 69.4255 14.2142 69.148C15.1083 60.7922 14.2142 53.7314 14.5225 53.7314C17.8078 52.5775 20.92 50.98 23.7725 48.983C25.5917 47.7805 31.8508 44.2039 33.0225 46.0847C34.965 49.168 31.45 49.9389 27.8425 54.5947C25.9925 56.9997 26.4242 58.6339 27.5342 59.7747C29.1788 60.929 31.0674 61.6887 33.0533 61.9947C40.0833 63.7522 52.2008 59.7439 54.2667 59.3122C56.3325 58.8805 57.72 57.9247 58.6142 59.6205C59.5083 61.3164 55.6542 63.3822 54.2975 64.3072Z" fill="black"/>
</g>
</g>
<defs>
<clipPath id="clip0_2270_9181">
<rect width="74" height="74" fill="white" transform="translate(0 0.389648)"/>
</clipPath>
</defs>
</svg>
